<?xml version="1.0" encoding="UTF-8" standalone="no"?>
<!-- Created with Inkscape (http://www.inkscape.org/) -->

<svg
   width="457.20001mm"
   height="254mm"
   viewBox="0 0 457.20001 254"
   version="1.1"
   id="svg11020"
   xml:space="preserve"
   sodipodi:docname="blank_fnirs.svg"
   inkscape:version="1.2.1 (9c6d41e410, 2022-07-14)"
   xmlns:inkscape="http://www.inkscape.org/namespaces/inkscape"
   xmlns:sodipodi="http://sodipodi.sourceforge.net/DTD/sodipodi-0.dtd"
   xmlns="http://www.w3.org/2000/svg"
   xmlns:svg="http://www.w3.org/2000/svg"><sodipodi:namedview
     id="namedview11022"
     pagecolor="#ffffff"
     bordercolor="#000000"
     borderopacity="0.25"
     inkscape:showpageshadow="2"
     inkscape:pageopacity="0.0"
     inkscape:pagecheckerboard="0"
     inkscape:deskcolor="#d1d1d1"
     inkscape:document-units="mm"
     showgrid="false"
     inkscape:zoom="0.50646226"
     inkscape:cx="690.08104"
     inkscape:cy="405.7558"
     inkscape:window-width="1920"
     inkscape:window-height="991"
     inkscape:window-x="-9"
     inkscape:window-y="-9"
     inkscape:window-maximized="1"
     inkscape:current-layer="layer1" /><defs
     id="defs11017"><clipPath
       clipPathUnits="userSpaceOnUse"
       id="clipPath11218"><rect
         style="fill:#ffffff;stroke:#000000;stroke-width:0.529167;stroke-miterlimit:4.1"
         id="rect11220"
         width="98.736382"
         height="82.541519"
         x="15.330688"
         y="111.01762" /></clipPath></defs><g
     inkscape:label="Layer 1"
     inkscape:groupmode="layer"
     id="layer1"
     transform="translate(125.72128,-21.684702)"><path
       style="fill:#000000;stroke-width:0.254"
       d="m -33.265278,185.10059 c -8.066535,-1.1552 -13.726323,-3.78495 -19.010458,-8.83297 -3.741364,-3.57419 -6.705333,-8.21034 -8.303986,-12.98884 -0.371887,-1.11159 -0.722371,-2.06915 -0.778858,-2.12791 -0.05648,-0.0588 -0.374452,0.14846 -0.70659,0.46049 -0.561879,0.52785 -0.663413,0.54243 -1.459499,0.20953 -0.684424,-0.2862 -0.949163,-0.61837 -1.323203,-1.66027 -0.418374,-1.16538 -0.439718,-1.6075 -0.202756,-4.20011 0.145662,-1.5937 0.205458,-3.6827 0.132883,-4.64222 -0.111021,-1.46784 -0.04923,-1.87554 0.389524,-2.57009 0.397012,-0.62847 0.701225,-0.8255 1.274587,-0.8255 0.448272,0 0.852117,0.17692 0.997707,0.43707 0.198743,0.35513 0.275852,0.248 0.411338,-0.5715 0.09171,-0.55471 0.447142,-2.02294 0.789854,-3.26273 2.53306,-9.16354 8.610762,-16.4151 17.248457,-20.57988 2.215157,-1.06806 5.421912,-2.18496 6.27331,-2.18496 0.229336,0 1.940613,-1.25372 3.802834,-2.78605 1.862219,-1.53232 3.505894,-2.78962 3.652607,-2.794 0.146713,-0.004 1.724279,1.1894 3.505703,2.65282 2.280018,1.87301 3.554641,2.74204 4.305249,2.93528 3.463656,0.89174 7.055686,2.48179 9.956297,4.40728 2.8629031,1.90045 7.1975047,6.20458 8.982825,8.91967 2.41032541,3.66559 4.15935167,7.93044 4.8993781,11.9467 0.2567737,1.39356 0.3643275,1.62081 0.608833,1.28643 0.4751578,-0.64982 1.5366695,-0.50147 2.0920685,0.29237 0.4282491,0.6121 0.5072685,1.32685 0.6388379,5.7785 0.1441857,4.87858 0.1280135,5.12481 -0.4079011,6.20999 -0.7299198,1.47803 -1.7077233,1.85791 -2.6071958,1.0129 -0.3387115,-0.31821 -0.6536614,-0.53048 -0.6998843,-0.47172 -0.046225,0.0588 -0.33819845,0.89834 -0.64883284,1.86575 -2.40077246,7.47672 -8.19962566,14.53048 -14.89012846,18.11246 -3.983977,2.13296 -6.876925,3.11688 -11.049,3.75789 -2.184126,0.33557 -6.251806,0.44593 -7.874,0.21362 z m 7.76368,-0.62028 c 4.33623,-0.60312 9.222929,-2.46556 12.998458,-4.95405 2.7194259,-1.7924 6.8952902,-5.9018 8.6268641,-8.48956 2.4428298,-3.65069 4.08127207,-7.56741 5.0470309,-12.065 0.6658585,-3.10093 0.6109589,-8.89664 -0.1165301,-12.30214 -2.7287119,-12.77353 -12.1215589,-22.02251 -25.2167189,-24.83048 -2.896845,-0.62116 -8.908766,-0.61498 -11.896784,0.0123 -4.165506,0.87438 -9.68832,3.13419 -11.291974,4.6204 -0.36971,0.34264 -0.770375,0.62298 -0.890367,0.62298 -0.119989,0 -1.1565,0.76654 -2.303353,1.70343 -4.816351,3.93458 -8.604194,9.99072 -10.323142,16.50502 -0.901908,3.41796 -1.117161,9.57008 -0.462128,13.20805 0.973765,5.40817 2.905682,9.71467 6.364501,14.18732 4.651815,6.01533 11.826439,10.29295 19.541463,11.65092 2.478182,0.43621 7.272739,0.49944 9.92268,0.13086 z m -23.00368,-34.52561 c 0,-0.1397 0.17145,-0.254 0.381,-0.254 0.20955,0 0.381,0.1143 0.381,0.254 0,0.1397 -0.17145,0.254 -0.381,0.254 -0.20955,0 -0.381,-0.1143 -0.381,-0.254 z m 1.778,-2.286 c 0,-0.1397 0.17145,-0.254 0.381,-0.254 0.20955,0 0.381,0.1143 0.381,0.254 0,0.1397 -0.17145,0.254 -0.381,0.254 -0.20955,0 -0.381,-0.1143 -0.381,-0.254 z m 31.496,-0.254 c 0,-0.1397 0.107554,-0.254 0.239009,-0.254 0.131456,0 0.309652,0.1143 0.395991,0.254 0.08634,0.1397 -0.02121,0.254 -0.239008,0.254 -0.217795,0 -0.395992,-0.1143 -0.395992,-0.254 z m -35.306,-1.27 c 0,-0.1397 0.1143,-0.254 0.254,-0.254 0.1397,0 0.254,0.1143 0.254,0.254 0,0.1397 -0.1143,0.254 -0.254,0.254 -0.1397,0 -0.254,-0.1143 -0.254,-0.254 z m 5.728408,-0.4863 c -0.08178,-0.13233 -0.04043,-0.30751 0.0919,-0.38929 0.132326,-0.0818 0.307505,-0.0404 0.389285,0.0919 0.08178,0.13232 0.04043,0.3075 -0.0919,0.38928 -0.132326,0.0818 -0.307505,0.0404 -0.389286,-0.0919 z m 27.926592,-0.2757 c -0.08634,-0.1397 -0.03594,-0.254 0.112009,-0.254 0.147945,0 0.268991,0.1143 0.268991,0.254 0,0.1397 -0.0504,0.254 -0.112009,0.254 -0.06161,0 -0.182651,-0.1143 -0.268991,-0.254 z m -32.131,-1.524 c 0,-0.1397 0.2286,-0.254 0.508,-0.254 0.2794,0 0.508,0.1143 0.508,0.254 0,0.1397 -0.2286,0.254 -0.508,0.254 -0.2794,0 -0.508,-0.1143 -0.508,-0.254 z m 35.941,-0.254 c 0.08634,-0.1397 0.321686,-0.254 0.522992,-0.254 0.201305,0 0.366008,0.1143 0.366008,0.254 0,0.1397 -0.235346,0.254 -0.522991,0.254 -0.287644,0 -0.452348,-0.1143 -0.366009,-0.254 z m -29.845,-0.254 c 0,-0.1397 0.17145,-0.254 0.381,-0.254 0.20955,0 0.381,0.1143 0.381,0.254 0,0.1397 -0.17145,0.254 -0.381,0.254 -0.20955,0 -0.381,-0.1143 -0.381,-0.254 z m 23.876,-0.254 c 0,-0.1397 0.17145,-0.254 0.381,-0.254 0.20955,0 0.381,0.1143 0.381,0.254 0,0.1397 -0.17145,0.254 -0.381,0.254 -0.20955,0 -0.381,-0.1143 -0.381,-0.254 z m -32.639,-1.016 c 0.08634,-0.1397 0.207386,-0.254 0.268991,-0.254 0.06161,0 0.112009,0.1143 0.112009,0.254 0,0.1397 -0.121047,0.254 -0.268991,0.254 -0.147945,0 -0.198349,-0.1143 -0.112009,-0.254 z m 41.656001,0 c -0.08634,-0.1397 -0.03594,-0.254 0.1120085,-0.254 0.1479448,0 0.268991,0.1143 0.268991,0.254 0,0.1397 -0.050404,0.254 -0.1120089,0.254 -0.061605,0 -0.1826514,-0.1143 -0.2689906,-0.254 z m -37.338001,-0.508 c 0.08634,-0.1397 0.207386,-0.254 0.268991,-0.254 0.0616,0 0.112009,0.1143 0.112009,0.254 0,0.1397 -0.121047,0.254 -0.268991,0.254 -0.147945,0 -0.198349,-0.1143 -0.112009,-0.254 z m 33.033409,0.0217 c -0.08178,-0.13232 -0.04043,-0.3075 0.0919,-0.38928 0.132327,-0.0818 0.307505,-0.0404 0.389286,0.0919 0.08178,0.13232 0.04043,0.3075 -0.0919,0.38928 -0.132327,0.0818 -0.307506,0.0404 -0.389286,-0.0919 z m -26.556409,-0.52969 c 0,-0.1397 0.17145,-0.254 0.381,-0.254 0.20955,0 0.381,0.1143 0.381,0.254 0,0.1397 -0.17145,0.254 -0.381,0.254 -0.20955,0 -0.381,-0.1143 -0.381,-0.254 z m 20.066,0 c 0,-0.1397 0.121047,-0.254 0.268991,-0.254 0.147945,0 0.198349,0.1143 0.112009,0.254 -0.08634,0.1397 -0.207386,0.254 -0.268991,0.254 -0.06161,0 -0.112009,-0.1143 -0.112009,-0.254 z m -29.566167,-0.94883 c -0.272549,-0.27255 -0.159862,-0.57517 0.214176,-0.57517 0.201305,0 0.429249,0.10233 0.506542,0.22739 0.161597,0.26147 -0.491755,0.57674 -0.720718,0.34778 z m 38.837167,-0.32117 c -0.08634,-0.1397 0.08511,-0.254 0.381001,-0.254 0.295889,0 0.467339,0.1143 0.381,0.254 -0.08634,0.1397 -0.25779,0.254 -0.381,0.254 -0.123211,0 -0.294661,-0.1143 -0.381001,-0.254 z m -34.03201,-0.24754 c -0.20526,-0.33212 0.379339,-0.61373 0.670215,-0.32285 0.162588,0.16258 0.11368,0.30084 -0.140998,0.39857 -0.214465,0.0823 -0.452613,0.0482 -0.529217,-0.0757 z m 29.33301,-0.26046 c 0,-0.1397 0.1143,-0.254 0.254,-0.254 0.1397,0 0.254,0.1143 0.254,0.254 0,0.1397 -0.1143,0.254 -0.254,0.254 -0.1397,0 -0.254,-0.1143 -0.254,-0.254 z m -22.47644,-0.51214 c 0.08775,-0.14198 0.265943,-0.19239 0.395991,-0.11201 0.352308,0.21774 0.286616,0.37015 -0.159542,0.37015 -0.217795,0 -0.324196,-0.11616 -0.236449,-0.25814 z m 15.87244,0.004 c 0,-0.1397 0.1143,-0.254 0.254,-0.254 0.1397,0 0.254,0.1143 0.254,0.254 0,0.1397 -0.1143,0.254 -0.254,0.254 -0.1397,0 -0.254,-0.1143 -0.254,-0.254 z m 13.9700006,-1.016 c 0,-0.1397 0.1210462,-0.254 0.268991,-0.254 0.1479449,0 0.1983486,0.1143 0.112009,0.254 -0.08634,0.1397 -0.207386,0.254 -0.2689911,0.254 -0.061605,0 -0.1120089,-0.1143 -0.1120089,-0.254 z m -40.1320006,-0.26899 c 0,-0.14794 0.1143,-0.19835 0.254,-0.11201 0.1397,0.0863 0.254,0.20739 0.254,0.26899 0,0.0616 -0.1143,0.11201 -0.254,0.11201 -0.1397,0 -0.254,-0.12104 -0.254,-0.26899 z m 36.322,0.015 c 0,-0.1397 0.1143,-0.254 0.254,-0.254 0.1397,0 0.254,0.1143 0.254,0.254 0,0.1397 -0.1143,0.254 -0.254,0.254 -0.1397,0 -0.254,-0.1143 -0.254,-0.254 z m -30.861,-0.508 c 0.08634,-0.1397 0.207386,-0.254 0.268991,-0.254 0.06161,0 0.112009,0.1143 0.112009,0.254 0,0.1397 -0.121046,0.254 -0.268991,0.254 -0.147945,0 -0.198349,-0.1143 -0.112009,-0.254 z m 25.527,0 c 0,-0.1397 0.1143,-0.254 0.254,-0.254 0.1397,0 0.254,0.1143 0.254,0.254 0,0.1397 -0.1143,0.254 -0.254,0.254 -0.1397,0 -0.254,-0.1143 -0.254,-0.254 z m -33.387592,-1.2483 c -0.08178,-0.13233 -0.04043,-0.30751 0.0919,-0.38929 0.132327,-0.0818 0.307506,-0.0404 0.389286,0.0919 0.08178,0.13232 0.04043,0.3075 -0.0919,0.38928 -0.132327,0.0818 -0.307505,0.0404 -0.389286,-0.0919 z m 4.177592,-0.38771 c 0,-0.21779 0.1143,-0.39599 0.254,-0.39599 0.1397,0 0.254,0.10756 0.254,0.23901 0,0.13146 -0.1143,0.30965 -0.254,0.39599 -0.1397,0.0863 -0.254,-0.0212 -0.254,-0.23901 z m 36.830001,0.11201 c 0,-0.1397 0.1143,-0.254 0.254,-0.254 0.1397,0 0.2539995,0.1143 0.2539995,0.254 0,0.1397 -0.1142995,0.254 -0.2539995,0.254 -0.1397,0 -0.254,-0.1143 -0.254,-0.254 z m -4.064001,-0.254 c 0,-0.1397 0.1143,-0.254 0.254,-0.254 0.1397,0 0.254,0.1143 0.254,0.254 0,0.1397 -0.1143,0.254 -0.254,0.254 -0.1397,0 -0.254,-0.1143 -0.254,-0.254 z m -27.1399,-0.2413 c 0.05588,-0.16764 0.184467,-0.29623 0.28575,-0.28575 0.303708,0.0314 0.244891,0.37981 -0.08255,0.48895 -0.16764,0.0559 -0.25908,-0.0356 -0.2032,-0.2032 z m 21.671016,-0.0255 c -0.241353,-0.39052 0.08924,-0.64249 0.41525,-0.31648 0.182417,0.18241 0.186799,0.32449 0.01331,0.43171 -0.14222,0.0879 -0.335074,0.036 -0.428566,-0.11523 z m -29.964116,-1.51125 c -0.08634,-0.1397 -0.03594,-0.254 0.112009,-0.254 0.147944,0 0.268991,0.1143 0.268991,0.254 0,0.1397 -0.0504,0.254 -0.112009,0.254 -0.06161,0 -0.182652,-0.1143 -0.268991,-0.254 z m 38.113409,0.0217 c -0.08178,-0.13232 -0.04043,-0.3075 0.0919,-0.38928 0.132327,-0.0818 0.307505,-0.0404 0.389286,0.0919 0.08178,0.13232 0.04043,0.3075 -0.0919,0.38928 -0.132327,0.0818 -0.307505,0.0404 -0.389286,-0.0919 z m -4.331409,-0.52969 c 0.08634,-0.1397 0.207386,-0.254 0.268991,-0.254 0.06161,0 0.112009,0.1143 0.112009,0.254 0,0.1397 -0.121046,0.254 -0.268991,0.254 -0.147945,0 -0.198348,-0.1143 -0.112009,-0.254 z m -5.842,-0.508 c 0.08634,-0.1397 0.207386,-0.254 0.268991,-0.254 0.06161,0 0.112009,0.1143 0.112009,0.254 0,0.1397 -0.121046,0.254 -0.268991,0.254 -0.147945,0 -0.198348,-0.1143 -0.112009,-0.254 z m -26.035,-1.27 c 0,-0.1397 0.1143,-0.254 0.254,-0.254 0.1397,0 0.254,0.1143 0.254,0.254 0,0.1397 -0.1143,0.254 -0.254,0.254 -0.1397,0 -0.254,-0.1143 -0.254,-0.254 z m 34.29,0 c 0,-0.1397 0.1143,-0.254 0.254,-0.254 0.1397,0 0.254,0.1143 0.254,0.254 0,0.1397 -0.1143,0.254 -0.254,0.254 -0.1397,0 -0.254,-0.1143 -0.254,-0.254 z m -38.227,-0.254 c 0.08634,-0.1397 0.207386,-0.254 0.268991,-0.254 0.06161,0 0.112009,0.1143 0.112009,0.254 0,0.1397 -0.121047,0.254 -0.268991,0.254 -0.147945,0 -0.198349,-0.1143 -0.112009,-0.254 z m 8.382,0 c 0.08634,-0.1397 0.264536,-0.254 0.395991,-0.254 0.131455,0 0.239009,0.1143 0.239009,0.254 0,0.1397 -0.178196,0.254 -0.395991,0.254 -0.217795,0 -0.325349,-0.1143 -0.239009,-0.254 z m 25.410849,0.0175 c -0.173503,-0.28073 0.227177,-0.58385 0.461723,-0.34931 0.241501,0.2415 0.196492,0.58576 -0.07658,0.58576 -0.131455,0 -0.304769,-0.1064 -0.385142,-0.23645 z m 8.2441515,-0.0175 c 0,-0.1397 0.1143,-0.254 0.254,-0.254 0.1397,0 0.254,0.1143 0.254,0.254 0,0.1397 -0.1143,0.254 -0.254,0.254 -0.1397,0 -0.254,-0.1143 -0.254,-0.254 z m -5.4610005,-1.778 c -0.08634,-0.1397 -0.03594,-0.254 0.112009,-0.254 0.147945,0 0.268991,0.1143 0.268991,0.254 0,0.1397 -0.0504,0.254 -0.112009,0.254 -0.06161,0 -0.182651,-0.1143 -0.268991,-0.254 z m -34.925,-0.254 c 0,-0.1397 0.1143,-0.254 0.254,-0.254 0.1397,0 0.254,0.1143 0.254,0.254 0,0.1397 -0.1143,0.254 -0.254,0.254 -0.1397,0 -0.254,-0.1143 -0.254,-0.254 z m 4.064,-0.015 c 0,-0.14795 0.1143,-0.19835 0.254,-0.11201 0.1397,0.0863 0.254,0.20738 0.254,0.26899 0,0.0616 -0.1143,0.11201 -0.254,0.11201 -0.1397,0 -0.254,-0.12105 -0.254,-0.26899 z m 4.699,-0.23902 c 0.08634,-0.1397 0.207386,-0.254 0.268991,-0.254 0.06161,0 0.112009,0.1143 0.112009,0.254 0,0.1397 -0.121046,0.254 -0.268991,0.254 -0.147945,0 -0.198349,-0.1143 -0.112009,-0.254 z m 2.667,-0.11201 c 0,-0.21779 0.1143,-0.39599 0.254,-0.39599 0.1397,0 0.254,0.10756 0.254,0.23901 0,0.13146 -0.1143,0.30965 -0.254,0.39599 -0.1397,0.0863 -0.254,-0.0212 -0.254,-0.23901 z m 18.923,0.11201 c 0.08634,-0.1397 0.207386,-0.254 0.268991,-0.254 0.06161,0 0.112009,0.1143 0.112009,0.254 0,0.1397 -0.121046,0.254 -0.268991,0.254 -0.147945,0 -0.198348,-0.1143 -0.112009,-0.254 z m 3.302,-1.27 c -0.08634,-0.1397 -0.03594,-0.254 0.112009,-0.254 0.147945,0 0.268991,0.1143 0.268991,0.254 0,0.1397 -0.0504,0.254 -0.112009,0.254 -0.06161,0 -0.182651,-0.1143 -0.268991,-0.254 z m -24.003,-0.254 c 0,-0.1397 0.1143,-0.254 0.254,-0.254 0.1397,0 0.254,0.1143 0.254,0.254 0,0.1397 -0.1143,0.254 -0.254,0.254 -0.1397,0 -0.254,-0.1143 -0.254,-0.254 z m -3.556,-0.254 c 0,-0.1397 0.121046,-0.254 0.268991,-0.254 0.147945,0 0.198348,0.1143 0.112009,0.254 -0.08634,0.1397 -0.207386,0.254 -0.268991,0.254 -0.06161,0 -0.112009,-0.1143 -0.112009,-0.254 z m 1.040254,-1.76301 c -0.18287,-0.11302 -0.229105,-0.26938 -0.102745,-0.34748 0.12636,-0.0781 0.379367,-0.0495 0.562236,0.0635 0.18287,0.11302 0.229106,0.26939 0.102746,0.34748 -0.12636,0.0781 -0.379367,0.0495 -0.562237,-0.0635 z m 24.613746,-0.015 c 0,-0.1397 0.17145,-0.254 0.381,-0.254 0.20955,0 0.381,0.1143 0.381,0.254 0,0.1397 -0.17145,0.254 -0.381,0.254 -0.20955,0 -0.381,-0.1143 -0.381,-0.254 z m -20.574,-0.254 c 0,-0.1397 0.1143,-0.254 0.254,-0.254 0.1397,0 0.254,0.1143 0.254,0.254 0,0.1397 -0.1143,0.254 -0.254,0.254 -0.1397,0 -0.254,-0.1143 -0.254,-0.254 z m 2.794,0 c 0,-0.1397 0.121046,-0.254 0.268991,-0.254 0.147945,0 0.198349,0.1143 0.112009,0.254 -0.08634,0.1397 -0.207386,0.254 -0.268991,0.254 -0.0616,0 -0.112009,-0.1143 -0.112009,-0.254 z m 11.176,0 c 0,-0.1397 0.1143,-0.254 0.254,-0.254 0.1397,0 0.254,0.1143 0.254,0.254 0,0.1397 -0.1143,0.254 -0.254,0.254 -0.1397,0 -0.254,-0.1143 -0.254,-0.254 z m 2.794,-0.015 c 0,-0.14795 0.1143,-0.19835 0.254,-0.11201 0.1397,0.0863 0.254,0.20738 0.254,0.26899 0,0.0616 -0.1143,0.11201 -0.254,0.11201 -0.1397,0 -0.254,-0.12105 -0.254,-0.26899 z m -15.748,-1.76302 c 0,-0.1397 0.1143,-0.254 0.254,-0.254 0.1397,0 0.254,0.1143 0.254,0.254 0,0.1397 -0.1143,0.254 -0.254,0.254 -0.1397,0 -0.254,-0.1143 -0.254,-0.254 z m 14.732,-0.015 c 0,-0.14795 0.1143,-0.19835 0.254,-0.11201 0.1397,0.0863 0.254,0.20738 0.254,0.26899 0,0.0616 -0.1143,0.11201 -0.254,0.11201 -0.1397,0 -0.254,-0.12105 -0.254,-0.26899 z m -38.626911,38.00811 c 0.544977,-0.5801 0.560182,-0.69141 0.26889,-1.9685 -0.169812,-0.7445 -0.364165,-3.23958 -0.431894,-5.54463 -0.131245,-4.46678 -0.368651,-5.40815 -1.302312,-5.164 -0.843623,0.22062 -1.01284,1.10588 -1.157033,6.053 -0.173381,5.94851 0.09197,7.02842 1.771485,7.20954 0.150271,0.0162 0.533161,-0.24723 0.850864,-0.58541 z m 65.5378207,0.36087 c 0.1096492,0 0.4223131,-0.54292 0.6948068,-1.2065 0.41989,-1.02251 0.4665447,-1.51638 0.3059379,-3.2385 -0.1042314,-1.1176 -0.1976424,-3.31787 -0.2075815,-4.8895 -0.01585,-2.50455 -0.080818,-2.92024 -0.5260721,-3.3655 -0.6522009,-0.6522 -0.9178417,-0.63993 -1.3788542,0.0637 -0.2847239,0.43454 -0.3750844,1.42455 -0.3767328,4.1275 -0.00127,2.16791 -0.1563853,4.34898 -0.3972662,5.58784 l -0.3950945,2.032 0.7024726,0.57178 c 0.3863619,0.31448 0.8546973,0.51451 1.0407498,0.4445 0.1860499,-0.07 0.4279849,-0.12728 0.5376342,-0.12728 z m -33.6419097,-40.513 c 0.9779,0 2.67876,0.0855 3.77969,0.19007 l 2.001691,0.19006 -2.636691,-2.18278 c -1.45018,-1.20053 -2.774764,-2.23942 -2.943522,-2.30865 -0.261163,-0.10713 -5.662168,4.07782 -5.662168,4.38732 0,0.0597 0.828675,0.022 1.8415,-0.0838 1.012825,-0.10575 2.6416,-0.19227 3.6195,-0.19227 z m 88.900002,64.23463 c -8.050429,-1.19381 -14.3424,-4.33727 -19.574889,-9.77958 -3.473661,-3.61296 -5.920212,-7.59447 -7.369142,-11.99254 -0.376253,-1.14208 -0.726145,-2.12458 -0.777535,-2.18334 -0.05139,-0.0588 -0.358653,0.14232 -0.682805,0.44684 -0.519085,0.48766 -0.688312,0.51919 -1.419131,0.26443 -0.630796,-0.2199 -0.951337,-0.57068 -1.336746,-1.46285 -0.445062,-1.03026 -0.483385,-1.46829 -0.313774,-3.58659 0.106261,-1.32715 0.169057,-3.53231 0.139548,-4.90035 -0.04689,-2.17347 0.01384,-2.58215 0.481203,-3.2385 0.607921,-0.85375 1.83758,-1.03964 2.230676,-0.33722 0.17131,0.30612 0.315689,-0.0412 0.554309,-1.3335 1.399621,-7.57982 6.071091,-15.02679 12.411154,-19.78508 3.253578,-2.44185 7.058648,-4.21622 12.095099,-5.64014 0.276081,-0.0781 1.476231,-0.94754 2.667001,-1.93218 1.190767,-0.98464 2.683929,-2.21656 3.318134,-2.73759 l 1.153104,-0.94733 3.329109,2.7523 c 3.096763,2.56021 3.468332,2.79135 5.323899,3.31184 3.057433,0.85763 6.581501,2.46692 9.106787,4.15868 2.816758,1.88702 6.989757,5.98368 8.692108,8.53309 2.543831,3.8096 4.512892,8.49441 5.169185,12.29858 0.256923,1.48926 0.351434,1.69414 0.615137,1.3335 0.488153,-0.66759 1.544551,-0.531 2.106872,0.2724 0.428876,0.61275 0.506872,1.32212 0.635355,5.7785 0.140241,4.86422 0.122906,5.12809 -0.408099,6.21217 -0.702561,1.43433 -1.743245,1.81908 -2.640444,0.97621 -0.318511,-0.29923 -0.621206,-0.49597 -0.672653,-0.43721 -0.05145,0.0588 -0.35508,0.90693 -0.674733,1.88483 -3.593227,10.99256 -12.653366,19.06336 -24.252729,21.60442 -1.732262,0.37949 -8.380771,0.69239 -9.906,0.46621 z m 8.679592,-0.7335 c 6.657701,-1.0798 12.372022,-4.02041 17.25311,-8.87851 14.392601,-14.3248 11.908331,-37.96666 -5.158483,-49.09138 -9.306716,-6.06642 -21.148742,-6.76093 -31.217574,-1.83084 -1.413147,0.69194 -2.870472,1.53713 -3.2385,1.8782 -0.368031,0.34108 -0.669145,0.56135 -0.669145,0.48949 0,-0.33179 -2.571819,1.75179 -4.450855,3.60589 -8.415455,8.3038 -11.495418,20.96252 -7.854534,32.28231 3.569785,11.09873 13.38133,19.60044 24.841963,21.52556 2.799121,0.47019 7.658806,0.47911 10.494018,0.0193 z M 43.950724,149.9547 c 0,-0.1397 0.1143,-0.254 0.254,-0.254 0.1397,0 0.254,0.1143 0.254,0.254 0,0.1397 -0.1143,0.254 -0.254,0.254 -0.1397,0 -0.254,-0.1143 -0.254,-0.254 z m 1.778,-2.286 c 0,-0.1397 0.17145,-0.254 0.381,-0.254 0.20955,0 0.381,0.1143 0.381,0.254 0,0.1397 -0.17145,0.254 -0.381,0.254 -0.20955,0 -0.381,-0.1143 -0.381,-0.254 z m 31.496,-0.254 c 0,-0.1397 0.107554,-0.254 0.239009,-0.254 0.131456,0 0.309652,0.1143 0.395991,0.254 0.08634,0.1397 -0.02121,0.254 -0.239008,0.254 -0.217795,0 -0.395992,-0.1143 -0.395992,-0.254 z m -35.179,-1.27 c -0.08634,-0.1397 -0.03594,-0.254 0.112009,-0.254 0.147944,0 0.268991,0.1143 0.268991,0.254 0,0.1397 -0.0504,0.254 -0.112009,0.254 -0.06161,0 -0.182652,-0.1143 -0.268991,-0.254 z m 39.116001,-0.254 c -0.08634,-0.1397 -0.03594,-0.254 0.112008,-0.254 0.147945,0 0.268992,0.1143 0.268992,0.254 0,0.1397 -0.0504,0.254 -0.112009,0.254 -0.06161,0 -0.182652,-0.1143 -0.268991,-0.254 z m -33.514593,-0.2323 c -0.08178,-0.13233 -0.04043,-0.30751 0.0919,-0.38929 0.132326,-0.0818 0.307505,-0.0404 0.389285,0.0919 0.08178,0.13232 0.04043,0.3075 -0.0919,0.38928 -0.132326,0.0818 -0.307505,0.0404 -0.389286,-0.0919 z m 27.926592,-0.2757 c -0.08634,-0.1397 -0.03594,-0.254 0.112009,-0.254 0.147945,0 0.268991,0.1143 0.268991,0.254 0,0.1397 -0.0504,0.254 -0.112009,0.254 -0.06161,0 -0.182651,-0.1143 -0.268991,-0.254 z m -32.131,-1.524 c 0,-0.1397 0.2286,-0.254 0.508,-0.254 0.2794,0 0.508,0.1143 0.508,0.254 0,0.1397 -0.2286,0.254 -0.508,0.254 -0.2794,0 -0.508,-0.1143 -0.508,-0.254 z m 35.941,-0.254 c 0.08634,-0.1397 0.321686,-0.254 0.522992,-0.254 0.201305,0 0.366009,0.1143 0.366009,0.254 0,0.1397 -0.235347,0.254 -0.522992,0.254 -0.287644,0 -0.452348,-0.1143 -0.366009,-0.254 z m -29.845,-0.254 c 0,-0.1397 0.17145,-0.254 0.381,-0.254 0.20955,0 0.381,0.1143 0.381,0.254 0,0.1397 -0.17145,0.254 -0.381,0.254 -0.20955,0 -0.381,-0.1143 -0.381,-0.254 z m 23.876,-0.254 c 0,-0.1397 0.17145,-0.254 0.381,-0.254 0.20955,0 0.381,0.1143 0.381,0.254 0,0.1397 -0.17145,0.254 -0.381,0.254 -0.20955,0 -0.381,-0.1143 -0.381,-0.254 z m -32.639,-1.016 c 0.08634,-0.1397 0.207386,-0.254 0.268991,-0.254 0.06161,0 0.112009,0.1143 0.112009,0.254 0,0.1397 -0.121047,0.254 -0.268991,0.254 -0.147945,0 -0.198349,-0.1143 -0.112009,-0.254 z m 41.656001,0 c -0.08634,-0.1397 -0.03594,-0.254 0.112008,-0.254 0.147945,0 0.268992,0.1143 0.268992,0.254 0,0.1397 -0.0504,0.254 -0.112009,0.254 -0.06161,0 -0.182652,-0.1143 -0.268991,-0.254 z m -37.338001,-0.508 c 0.08634,-0.1397 0.207386,-0.254 0.268991,-0.254 0.06161,0 0.112009,0.1143 0.112009,0.254 0,0.1397 -0.121046,0.254 -0.268991,0.254 -0.147945,0 -0.198349,-0.1143 -0.112009,-0.254 z m 33.02,0 c -0.08634,-0.1397 -0.03594,-0.254 0.112009,-0.254 0.147945,0 0.268991,0.1143 0.268991,0.254 0,0.1397 -0.0504,0.254 -0.112008,0.254 -0.06161,0 -0.182652,-0.1143 -0.268992,-0.254 z m -26.543,-0.508 c 0,-0.1397 0.17145,-0.254 0.381,-0.254 0.20955,0 0.381,0.1143 0.381,0.254 0,0.1397 -0.17145,0.254 -0.381,0.254 -0.20955,0 -0.381,-0.1143 -0.381,-0.254 z m 20.066,0 c 0,-0.1397 0.121047,-0.254 0.268991,-0.254 0.147945,0 0.198349,0.1143 0.112009,0.254 -0.08634,0.1397 -0.207386,0.254 -0.268991,0.254 -0.06161,0 -0.112009,-0.1143 -0.112009,-0.254 z m -29.591,-1.27 c 0.08634,-0.1397 0.264536,-0.254 0.395991,-0.254 0.131455,0 0.239009,0.1143 0.239009,0.254 0,0.1397 -0.178197,0.254 -0.395991,0.254 -0.217795,0 -0.325349,-0.1143 -0.239009,-0.254 z m 38.862001,0 c -0.08634,-0.1397 0.08511,-0.254 0.381,-0.254 0.295889,0 0.467339,0.1143 0.381,0.254 -0.08634,0.1397 -0.25779,0.254 -0.381,0.254 -0.123211,0 -0.294661,-0.1143 -0.381,-0.254 z m -34.036001,-0.508 c 0.08634,-0.1397 0.264536,-0.254 0.395991,-0.254 0.131455,0 0.239009,0.1143 0.239009,0.254 0,0.1397 -0.178196,0.254 -0.395991,0.254 -0.217795,0 -0.325349,-0.1143 -0.239009,-0.254 z m 29.337,0 c 0,-0.1397 0.1143,-0.254 0.254,-0.254 0.1397,0 0.254,0.1143 0.254,0.254 0,0.1397 -0.1143,0.254 -0.254,0.254 -0.1397,0 -0.254,-0.1143 -0.254,-0.254 z m -22.479,-0.508 c 0.08634,-0.1397 0.207386,-0.254 0.268991,-0.254 0.06161,0 0.112009,0.1143 0.112009,0.254 0,0.1397 -0.121046,0.254 -0.268991,0.254 -0.147945,0 -0.198349,-0.1143 -0.112009,-0.254 z m 15.875,0 c 0,-0.1397 0.1143,-0.254 0.254,-0.254 0.1397,0 0.254,0.1143 0.254,0.254 0,0.1397 -0.1143,0.254 -0.254,0.254 -0.1397,0 -0.254,-0.1143 -0.254,-0.254 z m 13.970001,-1.016 c 0,-0.1397 0.121046,-0.254 0.268991,-0.254 0.147945,0 0.198348,0.1143 0.112009,0.254 -0.08634,0.1397 -0.207386,0.254 -0.268991,0.254 -0.06161,0 -0.112009,-0.1143 -0.112009,-0.254 z m -40.132001,-0.26899 c 0,-0.14794 0.1143,-0.19835 0.254,-0.11201 0.1397,0.0863 0.254,0.20739 0.254,0.26899 0,0.0616 -0.1143,0.11201 -0.254,0.11201 -0.1397,0 -0.254,-0.12104 -0.254,-0.26899 z m 36.322,0.015 c 0,-0.1397 0.1143,-0.254 0.254001,-0.254 0.1397,0 0.254,0.1143 0.254,0.254 0,0.1397 -0.1143,0.254 -0.254,0.254 -0.139701,0 -0.254001,-0.1143 -0.254001,-0.254 z m -30.861,-0.508 c 0.08634,-0.1397 0.207386,-0.254 0.268991,-0.254 0.06161,0 0.112009,0.1143 0.112009,0.254 0,0.1397 -0.121046,0.254 -0.268991,0.254 -0.147945,0 -0.198349,-0.1143 -0.112009,-0.254 z m 25.527,0 c 0,-0.1397 0.1143,-0.254 0.254,-0.254 0.1397,0 0.254,0.1143 0.254,0.254 0,0.1397 -0.1143,0.254 -0.254,0.254 -0.1397,0 -0.254,-0.1143 -0.254,-0.254 z m -33.387592,-1.2483 c -0.08178,-0.13233 -0.04043,-0.30751 0.0919,-0.38929 0.132326,-0.0818 0.307505,-0.0404 0.389285,0.0919 0.08178,0.13232 0.04043,0.3075 -0.0919,0.38928 -0.132327,0.0818 -0.307505,0.0404 -0.389286,-0.0919 z m 4.177592,-0.38771 c 0,-0.21779 0.1143,-0.39599 0.254,-0.39599 0.1397,0 0.254,0.10756 0.254,0.23901 0,0.13146 -0.1143,0.30965 -0.254,0.39599 -0.1397,0.0863 -0.254,-0.0212 -0.254,-0.23901 z m 36.830001,0.11201 c 0,-0.1397 0.1143,-0.254 0.254,-0.254 0.1397,0 0.254,0.1143 0.254,0.254 0,0.1397 -0.1143,0.254 -0.254,0.254 -0.1397,0 -0.254,-0.1143 -0.254,-0.254 z m -4.064001,-0.254 c 0,-0.1397 0.1143,-0.254 0.254,-0.254 0.1397,0 0.254,0.1143 0.254,0.254 0,0.1397 -0.1143,0.254 -0.254,0.254 -0.1397,0 -0.254,-0.1143 -0.254,-0.254 z m -27.178,-0.23901 c 0,-0.13145 0.1143,-0.30965 0.254,-0.39599 0.1397,-0.0863 0.254,0.0212 0.254,0.23901 0,0.2178 -0.1143,0.39599 -0.254,0.39599 -0.1397,0 -0.254,-0.10755 -0.254,-0.23901 z m 21.73807,0.0191 c -0.109416,-0.17703 -0.130343,-0.39048 -0.04651,-0.47432 0.227322,-0.22732 0.475175,0.10701 0.352397,0.47535 -0.08604,0.25811 -0.145865,0.25791 -0.305892,-0.001 z m -29.99307,-1.55809 c -0.08634,-0.1397 -0.03594,-0.254 0.112009,-0.254 0.147944,0 0.268991,0.1143 0.268991,0.254 0,0.1397 -0.0504,0.254 -0.112009,0.254 -0.06161,0 -0.182652,-0.1143 -0.268991,-0.254 z m 38.113409,0.0217 c -0.08178,-0.13232 -0.04043,-0.3075 0.0919,-0.38928 0.132327,-0.0818 0.307505,-0.0404 0.389286,0.0919 0.08178,0.13232 0.04043,0.3075 -0.0919,0.38928 -0.132327,0.0818 -0.307505,0.0404 -0.389286,-0.0919 z m -4.331409,-0.52969 c 0.08634,-0.1397 0.207386,-0.254 0.268992,-0.254 0.06161,0 0.112008,0.1143 0.112008,0.254 0,0.1397 -0.121046,0.254 -0.268991,0.254 -0.147945,0 -0.198348,-0.1143 -0.112009,-0.254 z m -5.842,-0.508 c 0.08634,-0.1397 0.207386,-0.254 0.268991,-0.254 0.06161,0 0.112009,0.1143 0.112009,0.254 0,0.1397 -0.121046,0.254 -0.268991,0.254 -0.147945,0 -0.198348,-0.1143 -0.112009,-0.254 z m -26.162,-1.27 c 0.08634,-0.1397 0.264536,-0.254 0.395991,-0.254 0.131455,0 0.239009,0.1143 0.239009,0.254 0,0.1397 -0.178197,0.254 -0.395991,0.254 -0.217795,0 -0.325349,-0.1143 -0.239009,-0.254 z m 34.417,0 c 0,-0.1397 0.1143,-0.254 0.254,-0.254 0.1397,0 0.254,0.1143 0.254,0.254 0,0.1397 -0.1143,0.254 -0.254,0.254 -0.1397,0 -0.254,-0.1143 -0.254,-0.254 z m -38.227,-0.254 c 0.08634,-0.1397 0.207386,-0.254 0.268991,-0.254 0.06161,0 0.112009,0.1143 0.112009,0.254 0,0.1397 -0.121047,0.254 -0.268991,0.254 -0.147945,0 -0.198349,-0.1143 -0.112009,-0.254 z m 8.382,0 c 0.08634,-0.1397 0.271279,-0.254 0.410979,-0.254 0.1397,0 0.183361,0.1143 0.09702,0.254 -0.08634,0.1397 -0.27128,0.254 -0.41098,0.254 -0.1397,0 -0.18336,-0.1143 -0.09702,-0.254 z m 25.4,0 c -0.08634,-0.1397 0.02121,-0.254 0.239009,-0.254 0.217795,0 0.395991,0.1143 0.395991,0.254 0,0.1397 -0.107553,0.254 -0.239009,0.254 -0.131455,0 -0.309651,-0.1143 -0.395991,-0.254 z m 8.255001,0 c 0,-0.1397 0.1143,-0.254 0.254,-0.254 0.1397,0 0.254,0.1143 0.254,0.254 0,0.1397 -0.1143,0.254 -0.254,0.254 -0.1397,0 -0.254,-0.1143 -0.254,-0.254 z m -5.461001,-1.778 c -0.08634,-0.1397 -0.03593,-0.254 0.112009,-0.254 0.147945,0 0.268991,0.1143 0.268991,0.254 0,0.1397 -0.0504,0.254 -0.112008,0.254 -0.06161,0 -0.182652,-0.1143 -0.268992,-0.254 z m -34.925,-0.254 c 0,-0.1397 0.1143,-0.254 0.254,-0.254 0.1397,0 0.254,0.1143 0.254,0.254 0,0.1397 -0.1143,0.254 -0.254,0.254 -0.1397,0 -0.254,-0.1143 -0.254,-0.254 z m 4.064,-0.015 c 0,-0.14795 0.1143,-0.19835 0.254,-0.11201 0.1397,0.0863 0.254,0.20738 0.254,0.26899 0,0.0616 -0.1143,0.11201 -0.254,0.11201 -0.1397,0 -0.254,-0.12105 -0.254,-0.26899 z m 34.671001,0.015 c 0.08634,-0.1397 0.207385,-0.254 0.268991,-0.254 0.06161,0 0.112009,0.1143 0.112009,0.254 0,0.1397 -0.121047,0.254 -0.268992,0.254 -0.147944,0 -0.198348,-0.1143 -0.112008,-0.254 z m -29.972001,-0.254 c 0.08634,-0.1397 0.207386,-0.254 0.268991,-0.254 0.06161,0 0.112009,0.1143 0.112009,0.254 0,0.1397 -0.121046,0.254 -0.268991,0.254 -0.147945,0 -0.198349,-0.1143 -0.112009,-0.254 z m 21.463,0 c 0,-0.1397 0.1143,-0.254 0.254,-0.254 0.1397,0 0.254,0.1143 0.254,0.254 0,0.1397 -0.1143,0.254 -0.254,0.254 -0.1397,0 -0.254,-0.1143 -0.254,-0.254 z m -18.796,-0.26899 c 0,-0.14794 0.1143,-0.19835 0.254,-0.11201 0.1397,0.0863 0.254,0.20739 0.254,0.26899 0,0.0616 -0.1143,0.11201 -0.254,0.11201 -0.1397,0 -0.254,-0.12104 -0.254,-0.26899 z m 22.098,-1.00101 c 0,-0.1397 0.1143,-0.254 0.254,-0.254 0.1397,0 0.254,0.1143 0.254,0.254 0,0.1397 -0.1143,0.254 -0.254,0.254 -0.1397,0 -0.254,-0.1143 -0.254,-0.254 z m -23.876,-0.254 c 0,-0.1397 0.1143,-0.254 0.254,-0.254 0.1397,0 0.254,0.1143 0.254,0.254 0,0.1397 -0.1143,0.254 -0.254,0.254 -0.1397,0 -0.254,-0.1143 -0.254,-0.254 z m -3.556,-0.254 c 0,-0.1397 0.121046,-0.254 0.268991,-0.254 0.147945,0 0.198348,0.1143 0.112009,0.254 -0.08634,0.1397 -0.207386,0.254 -0.268991,0.254 -0.06161,0 -0.112009,-0.1143 -0.112009,-0.254 z m 26.797,0 c 0.08634,-0.1397 0.207386,-0.254 0.268991,-0.254 0.06161,0 0.112009,0.1143 0.112009,0.254 0,0.1397 -0.121046,0.254 -0.268991,0.254 -0.147945,0 -0.198348,-0.1143 -0.112009,-0.254 z m 3.683,0 c 0,-0.1397 0.107554,-0.254 0.239009,-0.254 0.131456,0 0.309652,0.1143 0.395991,0.254 0.08634,0.1397 -0.02121,0.254 -0.239008,0.254 -0.217795,0 -0.395992,-0.1143 -0.395992,-0.254 z m -29.464,-1.778 c -0.30652,-0.19809 -0.26635,-0.24698 0.205491,-0.25011 0.327043,-0.002 0.517045,0.10847 0.429509,0.25011 -0.18877,0.30544 -0.162372,0.30544 -0.635,0 z m 24.511,0 c 0.08634,-0.1397 0.321686,-0.254 0.522991,-0.254 0.201306,0 0.366009,0.1143 0.366009,0.254 0,0.1397 -0.235346,0.254 -0.522991,0.254 -0.287645,0 -0.452348,-0.1143 -0.366009,-0.254 z m -20.447,-0.254 c 0,-0.1397 0.1143,-0.254 0.254,-0.254 0.1397,0 0.254,0.1143 0.254,0.254 0,0.1397 -0.1143,0.254 -0.254,0.254 -0.1397,0 -0.254,-0.1143 -0.254,-0.254 z m 2.794,0 c 0,-0.1397 0.121046,-0.254 0.268991,-0.254 0.147945,0 0.198349,0.1143 0.112009,0.254 -0.08634,0.1397 -0.207386,0.254 -0.268991,0.254 -0.06161,0 -0.112009,-0.1143 -0.112009,-0.254 z m 11.176,0 c 0,-0.1397 0.1143,-0.254 0.254,-0.254 0.1397,0 0.254,0.1143 0.254,0.254 0,0.1397 -0.1143,0.254 -0.254,0.254 -0.1397,0 -0.254,-0.1143 -0.254,-0.254 z m 2.667,0 c 0.08634,-0.1397 0.207386,-0.254 0.268991,-0.254 0.06161,0 0.112009,0.1143 0.112009,0.254 0,0.1397 -0.121046,0.254 -0.268991,0.254 -0.147945,0 -0.198348,-0.1143 -0.112009,-0.254 z m -15.621,-1.778 c 0,-0.1397 0.1143,-0.254 0.254,-0.254 0.1397,0 0.254,0.1143 0.254,0.254 0,0.1397 -0.1143,0.254 -0.254,0.254 -0.1397,0 -0.254,-0.1143 -0.254,-0.254 z m 14.732,-0.015 c 0,-0.14795 0.1143,-0.19835 0.254,-0.11201 0.1397,0.0863 0.254,0.20738 0.254,0.26899 0,0.0616 -0.1143,0.11201 -0.254,0.11201 -0.1397,0 -0.254,-0.12105 -0.254,-0.26899 z M 30.434522,161.0614 c 0.531285,-0.56553 0.5348,-0.62384 0.172243,-2.8575 -0.203558,-1.25411 -0.370543,-3.76924 -0.371074,-5.58918 -10e-4,-3.57017 -0.27594,-4.51782 -1.237592,-4.26634 -0.835675,0.21853 -1.006097,1.11086 -1.154875,6.04699 -0.122562,4.06644 -0.08127,4.9894 0.263658,5.89257 0.369316,0.96704 0.670915,1.23059 1.512067,1.3213 0.150271,0.0162 0.517281,-0.23033 0.815573,-0.54784 z m 65.579398,0.3233 c 0.113106,0 0.390523,-0.46205 0.616484,-1.02679 0.352359,-0.88062 0.386753,-1.74764 0.24163,-6.09098 -0.149187,-4.46497 -0.225763,-5.12491 -0.647154,-5.57721 -0.612679,-0.65764 -0.867225,-0.64613 -1.329964,0.0601 -0.284262,0.43383 -0.375905,1.40604 -0.377104,4.0005 -0.001,1.96003 -0.168034,4.3517 -0.390373,5.58638 l -0.38879,2.159 0.66468,0.58654 c 0.365572,0.32259 0.831238,0.52261 1.034811,0.4445 0.203574,-0.0781 0.462674,-0.14204 0.57578,-0.14204 z m -33.648196,-40.513 c 0.9779,0 2.677655,0.0854 3.777237,0.18986 l 1.999236,0.18986 -2.634236,-2.17831 c -1.448832,-1.19807 -2.772756,-2.23704 -2.942057,-2.30882 -0.169301,-0.0718 -1.578679,0.90807 -3.131952,2.17744 l -2.824132,2.30795 1.988952,-0.18899 c 1.093925,-0.10394 2.789052,-0.18899 3.766952,-0.18899 z m 88.900006,64.23463 c -7.05371,-1.04601 -12.73803,-3.57888 -17.70812,-7.89054 -4.20276,-3.64601 -7.56315,-8.74853 -9.33861,-14.18009 -0.31966,-0.9779 -0.62329,-1.82607 -0.67474,-1.88483 -0.0514,-0.0588 -0.35414,0.13798 -0.67265,0.43721 -0.8972,0.84287 -1.93788,0.45812 -2.64044,-0.97621 -0.53101,-1.08408 -0.54834,-1.34795 -0.4081,-6.21217 0.12848,-4.45638 0.20648,-5.16575 0.63535,-5.7785 0.57634,-0.82344 1.81235,-0.97258 2.10496,-0.254 0.11941,0.29325 0.37927,-0.4198 0.76367,-2.0955 2.24046,-9.76664 8.46102,-17.72446 17.27068,-22.09398 1.5367,-0.76219 3.86732,-1.68776 5.17918,-2.05682 2.32725,-0.65472 2.46578,-0.73766 5.70489,-3.41555 l 3.31973,-2.74454 1.15309,0.94733 c 0.63421,0.52103 2.12788,1.75338 3.31929,2.73855 1.6761,1.38596 2.50935,1.8884 3.683,2.22075 5.61813,1.59092 9.71627,3.86382 13.77089,7.6376 4.88486,4.54649 8.54289,11.13296 9.71822,17.49809 0.23861,1.29229 0.38298,1.63962 0.55431,1.3335 0.39001,-0.69691 1.62237,-0.51705 2.2214,0.32422 0.46084,0.64716 0.52091,1.07769 0.48738,3.4925 -0.0211,1.5149 0.0485,3.63021 0.15446,4.70071 0.26558,2.68248 -0.28436,4.4143 -1.57264,4.95258 -0.83818,0.35021 -0.92586,0.33875 -1.49431,-0.19528 -0.33213,-0.31203 -0.64595,-0.51925 -0.69733,-0.46049 -0.0514,0.0588 -0.40127,1.04126 -0.77752,2.18334 -1.44895,4.39807 -3.8955,8.37958 -7.36915,11.99254 -4.55379,4.7364 -10.20496,7.87279 -16.78089,9.31337 -1.73226,0.37949 -8.38078,0.69239 -9.906,0.46621 z m 8.70013,-0.73683 c 13.21984,-2.14404 23.76378,-12.549 26.1207,-25.77635 0.5207,-2.92237 0.51727,-8.19435 -0.007,-11.05736 -2.11795,-11.56124 -10.07994,-20.78271 -21.22462,-24.58211 -3.47772,-1.1856 -5.91462,-1.56596 -10.033,-1.56596 -4.07571,0 -6.44543,0.36429 -10.033,1.54234 -2.26545,0.74391 -7.02,3.06903 -7.44617,3.64139 -0.16545,0.22224 -0.58658,0.53218 -0.93583,0.68874 -1.1236,0.50371 -4.43395,3.52415 -6.01112,5.48468 -6.61229,8.21957 -8.85409,18.24651 -6.31625,28.25096 3.03284,11.95582 13.20232,21.31168 25.39242,23.36089 2.78706,0.46853 7.64756,0.47445 10.49408,0.0128 z m -23.55913,-34.4148 c 0,-0.1397 0.1143,-0.254 0.254,-0.254 0.1397,0 0.254,0.1143 0.254,0.254 0,0.1397 -0.1143,0.254 -0.254,0.254 -0.1397,0 -0.254,-0.1143 -0.254,-0.254 z m 1.778,-2.286 c 0,-0.1397 0.17145,-0.254 0.381,-0.254 0.20955,0 0.381,0.1143 0.381,0.254 0,0.1397 -0.17145,0.254 -0.381,0.254 -0.20955,0 -0.381,-0.1143 -0.381,-0.254 z m 31.4452,-0.3048 c 0.23705,-0.23706 0.37254,-0.23706 0.6096,0 0.23705,0.23707 0.16934,0.3048 -0.3048,0.3048 -0.47415,0 -0.54186,-0.0677 -0.3048,-0.3048 z m -35.2552,-1.2192 c 0,-0.1397 0.1143,-0.254 0.254,-0.254 0.1397,0 0.254,0.1143 0.254,0.254 0,0.1397 -0.1143,0.254 -0.254,0.254 -0.1397,0 -0.254,-0.1143 -0.254,-0.254 z m 39.116,-0.254 c 0,-0.1397 0.1143,-0.254 0.254,-0.254 0.1397,0 0.254,0.1143 0.254,0.254 0,0.1397 -0.1143,0.254 -0.254,0.254 -0.1397,0 -0.254,-0.1143 -0.254,-0.254 z m -33.38759,-0.2323 c -0.0818,-0.13233 -0.0404,-0.30751 0.0919,-0.38929 0.13234,-0.0818 0.3075,-0.0404 0.38928,0.0919 0.0818,0.13232 0.0404,0.3075 -0.0919,0.38928 -0.13234,0.0818 -0.30749,0.0404 -0.38928,-0.0919 z m 27.92659,-0.2757 c -0.0863,-0.1397 -0.0359,-0.254 0.11201,-0.254 0.14793,0 0.26899,0.1143 0.26899,0.254 0,0.1397 -0.0504,0.254 -0.11202,0.254 -0.0616,0 -0.18265,-0.1143 -0.26898,-0.254 z m -32.385,-1.524 c 0,-0.1397 0.28575,-0.254 0.635,-0.254 0.34925,0 0.635,0.1143 0.635,0.254 0,0.1397 -0.28575,0.254 -0.635,0.254 -0.34925,0 -0.635,-0.1143 -0.635,-0.254 z m 36.068,-0.254 c 0,-0.1397 0.2286,-0.254 0.508,-0.254 0.2794,0 0.508,0.1143 0.508,0.254 0,0.1397 -0.2286,0.254 -0.508,0.254 -0.2794,0 -0.508,-0.1143 -0.508,-0.254 z m -29.718,-0.254 c 0,-0.1397 0.17145,-0.254 0.381,-0.254 0.20955,0 0.381,0.1143 0.381,0.254 0,0.1397 -0.17145,0.254 -0.381,0.254 -0.20955,0 -0.381,-0.1143 -0.381,-0.254 z m 23.876,-0.254 c 0,-0.1397 0.17145,-0.254 0.381,-0.254 0.20955,0 0.381,0.1143 0.381,0.254 0,0.1397 -0.17145,0.254 -0.381,0.254 -0.20955,0 -0.381,-0.1143 -0.381,-0.254 z m -32.639,-1.016 c 0.0863,-0.1397 0.20739,-0.254 0.26898,-0.254 0.0616,0 0.11202,0.1143 0.11202,0.254 0,0.1397 -0.12106,0.254 -0.26899,0.254 -0.14796,0 -0.19835,-0.1143 -0.11201,-0.254 z m 41.656,0 c -0.0863,-0.1397 -0.0359,-0.254 0.11201,-0.254 0.14793,0 0.26899,0.1143 0.26899,0.254 0,0.1397 -0.0504,0.254 -0.11202,0.254 -0.0616,0 -0.18265,-0.1143 -0.26898,-0.254 z m -37.338,-0.508 c 0.0863,-0.1397 0.20739,-0.254 0.26898,-0.254 0.0616,0 0.11202,0.1143 0.11202,0.254 0,0.1397 -0.12106,0.254 -0.26899,0.254 -0.14796,0 -0.19835,-0.1143 -0.11201,-0.254 z m 33.02,0 c -0.0863,-0.1397 -0.0359,-0.254 0.11201,-0.254 0.14793,0 0.26899,0.1143 0.26899,0.254 0,0.1397 -0.0504,0.254 -0.11202,0.254 -0.0616,0 -0.18265,-0.1143 -0.26898,-0.254 z m -26.543,-0.508 c 0,-0.1397 0.1143,-0.254 0.254,-0.254 0.1397,0 0.254,0.1143 0.254,0.254 0,0.1397 -0.1143,0.254 -0.254,0.254 -0.1397,0 -0.254,-0.1143 -0.254,-0.254 z m 20.066,0 c 0,-0.1397 0.12105,-0.254 0.26898,-0.254 0.14796,0 0.19835,0.1143 0.11202,0.254 -0.0863,0.1397 -0.20739,0.254 -0.26899,0.254 -0.0616,0 -0.11201,-0.1143 -0.11201,-0.254 z m -29.718,-1.27 c 0,-0.1397 0.17145,-0.254 0.381,-0.254 0.20955,0 0.381,0.1143 0.381,0.254 0,0.1397 -0.17145,0.254 -0.381,0.254 -0.20955,0 -0.381,-0.1143 -0.381,-0.254 z m 38.989,0 c -0.0863,-0.1397 0.0211,-0.254 0.23901,-0.254 0.21778,0 0.39599,0.1143 0.39599,0.254 0,0.1397 -0.10755,0.254 -0.23902,0.254 -0.13144,0 -0.30965,-0.1143 -0.39598,-0.254 z m -34.163,-0.35983 c 0,-0.22119 0.18097,-0.40217 0.40215,-0.40217 0.44857,0 0.37044,0.5468 -0.10053,0.70379 -0.16589,0.0553 -0.30162,-0.0804 -0.30162,-0.30162 z m 29.21,-0.14817 c 0,-0.1397 0.17145,-0.254 0.381,-0.254 0.20955,0 0.381,0.1143 0.381,0.254 0,0.1397 -0.17145,0.254 -0.381,0.254 -0.20955,0 -0.381,-0.1143 -0.381,-0.254 z m -22.225,-0.508 c 0.0863,-0.1397 0.20739,-0.254 0.26898,-0.254 0.0616,0 0.11202,0.1143 0.11202,0.254 0,0.1397 -0.12106,0.254 -0.26899,0.254 -0.14796,0 -0.19835,-0.1143 -0.11201,-0.254 z m 15.875,0 c 0,-0.1397 0.1143,-0.254 0.254,-0.254 0.1397,0 0.254,0.1143 0.254,0.254 0,0.1397 -0.1143,0.254 -0.254,0.254 -0.1397,0 -0.254,-0.1143 -0.254,-0.254 z m -30.099,-1.016 c 0.0863,-0.1397 0.20739,-0.254 0.26898,-0.254 0.0616,0 0.11202,0.1143 0.11202,0.254 0,0.1397 -0.12106,0.254 -0.26899,0.254 -0.14796,0 -0.19835,-0.1143 -0.11201,-0.254 z m 44.069,0 c 0,-0.1397 0.12105,-0.254 0.26898,-0.254 0.14796,0 0.19835,0.1143 0.11202,0.254 -0.0863,0.1397 -0.20739,0.254 -0.26899,0.254 -0.0616,0 -0.11201,-0.1143 -0.11201,-0.254 z m -40.132,-0.26899 c 0,-0.14794 0.1143,-0.19835 0.254,-0.11201 0.1397,0.0863 0.254,0.20739 0.254,0.26899 0,0.0616 -0.1143,0.11201 -0.254,0.11201 -0.1397,0 -0.254,-0.12104 -0.254,-0.26899 z m 36.322,0.015 c 0,-0.1397 0.1143,-0.254 0.254,-0.254 0.1397,0 0.254,0.1143 0.254,0.254 0,0.1397 -0.1143,0.254 -0.254,0.254 -0.1397,0 -0.254,-0.1143 -0.254,-0.254 z m -30.988,-0.508 c 0,-0.1397 0.1143,-0.254 0.254,-0.254 0.1397,0 0.254,0.1143 0.254,0.254 0,0.1397 -0.1143,0.254 -0.254,0.254 -0.1397,0 -0.254,-0.1143 -0.254,-0.254 z m 25.654,0 c 0,-0.1397 0.1143,-0.254 0.254,-0.254 0.1397,0 0.254,0.1143 0.254,0.254 0,0.1397 -0.1143,0.254 -0.254,0.254 -0.1397,0 -0.254,-0.1143 -0.254,-0.254 z m -33.38759,-1.2483 c -0.0818,-0.13233 -0.0404,-0.30751 0.0919,-0.38929 0.13234,-0.0818 0.3075,-0.0404 0.38928,0.0919 0.0818,0.13232 0.0404,0.3075 -0.0919,0.38928 -0.13234,0.0818 -0.3075,0.0404 -0.38928,-0.0919 z m 4.07512,-0.23602 c -0.0879,-0.14222 -0.036,-0.33507 0.11522,-0.42856 0.39052,-0.24136 0.64249,0.0892 0.31648,0.41525 -0.18242,0.18241 -0.32448,0.1868 -0.4317,0.0133 z m 36.93247,-0.0397 c 0,-0.1397 0.1143,-0.254 0.254,-0.254 0.1397,0 0.254,0.1143 0.254,0.254 0,0.1397 -0.1143,0.254 -0.254,0.254 -0.1397,0 -0.254,-0.1143 -0.254,-0.254 z m -4.064,-0.254 c 0,-0.1397 0.1143,-0.254 0.254,-0.254 0.1397,0 0.254,0.1143 0.254,0.254 0,0.1397 -0.1143,0.254 -0.254,0.254 -0.1397,0 -0.254,-0.1143 -0.254,-0.254 z m -27.178,-0.381 c 0,-0.20955 0.1143,-0.381 0.254,-0.381 0.1397,0 0.254,0.17145 0.254,0.381 0,0.20955 -0.1143,0.381 -0.254,0.381 -0.1397,0 -0.254,-0.17145 -0.254,-0.381 z m 21.73805,0.16109 c -0.10939,-0.17704 -0.13032,-0.39048 -0.0465,-0.47432 0.22731,-0.22732 0.47516,0.10701 0.3524,0.47535 -0.0861,0.2581 -0.14587,0.2579 -0.30592,-10e-4 z m 8.12036,-1.53639 c -0.0818,-0.13233 -0.0404,-0.30751 0.0919,-0.38929 0.13234,-0.0818 0.3075,-0.0404 0.38929,0.0919 0.0818,0.13232 0.0404,0.3075 -0.0919,0.38928 -0.13234,0.0818 -0.30749,0.0404 -0.38928,-0.0919 z m -33.66841,-0.54469 c 0,-0.14794 0.1143,-0.19835 0.254,-0.11201 0.1397,0.0863 0.254,0.20739 0.254,0.26899 0,0.0616 -0.1143,0.11201 -0.254,0.11201 -0.1397,0 -0.254,-0.12104 -0.254,-0.26899 z m -2.667,-1.76301 c 0.0863,-0.1397 0.26454,-0.254 0.39598,-0.254 0.13147,0 0.23902,0.1143 0.23902,0.254 0,0.1397 -0.17821,0.254 -0.39599,0.254 -0.21781,0 -0.32535,-0.1143 -0.23901,-0.254 z m 34.417,0 c 0,-0.1397 0.1143,-0.254 0.254,-0.254 0.1397,0 0.254,0.1143 0.254,0.254 0,0.1397 -0.1143,0.254 -0.254,0.254 -0.1397,0 -0.254,-0.1143 -0.254,-0.254 z m -38.227,-0.254 c 0.0863,-0.1397 0.20739,-0.254 0.26898,-0.254 0.0616,0 0.11202,0.1143 0.11202,0.254 0,0.1397 -0.12106,0.254 -0.26899,0.254 -0.14796,0 -0.19835,-0.1143 -0.11201,-0.254 z m 8.41659,-0.12554 c 0.0801,-0.20875 0.24984,-0.31515 0.37717,-0.23645 0.26634,0.16461 0.0525,0.61599 -0.29177,0.61599 -0.12708,0 -0.16551,-0.17079 -0.0854,-0.37954 z m 25.36541,0.12554 c -0.0863,-0.1397 -0.0427,-0.254 0.097,-0.254 0.1397,0 0.32464,0.1143 0.41098,0.254 0.0863,0.1397 0.0427,0.254 -0.097,0.254 -0.1397,0 -0.32464,-0.1143 -0.41097,-0.254 z m 8.255,-0.015 c 0,-0.14795 0.1143,-0.19835 0.254,-0.11201 0.1397,0.0863 0.254,0.20738 0.254,0.26899 0,0.0616 -0.1143,0.11201 -0.254,0.11201 -0.1397,0 -0.254,-0.12105 -0.254,-0.26899 z m -40.386,-2.01702 c 0,-0.1397 0.1143,-0.254 0.254,-0.254 0.1397,0 0.254,0.1143 0.254,0.254 0,0.1397 -0.1143,0.254 -0.254,0.254 -0.1397,0 -0.254,-0.1143 -0.254,-0.254 z m 4.064,-0.015 c 0,-0.14795 0.1143,-0.19835 0.254,-0.11201 0.1397,0.0863 0.254,0.20738 0.254,0.26899 0,0.0616 -0.1143,0.11201 -0.254,0.11201 -0.1397,0 -0.254,-0.12105 -0.254,-0.26899 z m 34.671,0.015 c 0.0863,-0.1397 0.20739,-0.254 0.26898,-0.254 0.0616,0 0.11202,0.1143 0.11202,0.254 0,0.1397 -0.12106,0.254 -0.26899,0.254 -0.14795,0 -0.19835,-0.1143 -0.11201,-0.254 z m -30.099,-0.254 c 0,-0.1397 0.1143,-0.254 0.254,-0.254 0.1397,0 0.254,0.1143 0.254,0.254 0,0.1397 -0.1143,0.254 -0.254,0.254 -0.1397,0 -0.254,-0.1143 -0.254,-0.254 z m 2.69153,0.0397 c -0.0879,-0.14222 -0.036,-0.33507 0.11522,-0.42856 0.39052,-0.24136 0.64249,0.0892 0.31648,0.41525 -0.18242,0.18241 -0.32448,0.1868 -0.4317,0.0133 z m 18.89847,-0.0397 c 0,-0.1397 0.1143,-0.254 0.254,-0.254 0.1397,0 0.254,0.1143 0.254,0.254 0,0.1397 -0.1143,0.254 -0.254,0.254 -0.1397,0 -0.254,-0.1143 -0.254,-0.254 z m -2.54,-0.26899 c 0,-0.14794 0.1143,-0.19835 0.254,-0.11201 0.1397,0.0863 0.254,0.20739 0.254,0.26899 0,0.0616 -0.1143,0.11201 -0.254,0.11201 -0.1397,0 -0.254,-0.12104 -0.254,-0.26899 z m 5.842,-1.00101 c 0,-0.1397 0.1143,-0.254 0.254,-0.254 0.1397,0 0.254,0.1143 0.254,0.254 0,0.1397 -0.1143,0.254 -0.254,0.254 -0.1397,0 -0.254,-0.1143 -0.254,-0.254 z m -23.876,-0.254 c 0,-0.1397 0.1143,-0.254 0.254,-0.254 0.1397,0 0.254,0.1143 0.254,0.254 0,0.1397 -0.1143,0.254 -0.254,0.254 -0.1397,0 -0.254,-0.1143 -0.254,-0.254 z m -3.556,-0.254 c 0,-0.1397 0.12105,-0.254 0.26898,-0.254 0.14796,0 0.19835,0.1143 0.11202,0.254 -0.0863,0.1397 -0.2074,0.254 -0.26899,0.254 -0.0616,0 -0.11201,-0.1143 -0.11201,-0.254 z m 26.797,0 c 0.0863,-0.1397 0.20739,-0.254 0.26898,-0.254 0.0616,0 0.11202,0.1143 0.11202,0.254 0,0.1397 -0.12106,0.254 -0.26899,0.254 -0.14795,0 -0.19835,-0.1143 -0.11201,-0.254 z m 3.683,0 c 0,-0.1397 0.1143,-0.254 0.254,-0.254 0.1397,0 0.254,0.1143 0.254,0.254 0,0.1397 -0.1143,0.254 -0.254,0.254 -0.1397,0 -0.254,-0.1143 -0.254,-0.254 z m -29.464,-1.778 c -0.30653,-0.19809 -0.26635,-0.24698 0.20548,-0.25011 0.32705,-0.002 0.51704,0.10847 0.42952,0.25011 -0.18878,0.30544 -0.16239,0.30544 -0.635,0 z m 20.69312,-0.0128 c -0.24137,-0.39052 0.0892,-0.64248 0.41524,-0.31648 0.18242,0.18242 0.18679,0.32449 0.0132,0.43171 -0.14222,0.0879 -0.33508,0.036 -0.42855,-0.11523 z m 3.69088,0.0128 c 0,-0.1397 0.2286,-0.254 0.508,-0.254 0.2794,0 0.508,0.1143 0.508,0.254 0,0.1397 -0.2286,0.254 -0.508,0.254 -0.2794,0 -0.508,-0.1143 -0.508,-0.254 z m -20.32,-0.254 c 0,-0.1397 0.1143,-0.254 0.254,-0.254 0.1397,0 0.254,0.1143 0.254,0.254 0,0.1397 -0.1143,0.254 -0.254,0.254 -0.1397,0 -0.254,-0.1143 -0.254,-0.254 z m 2.68041,0.0217 c -0.0818,-0.13232 -0.0404,-0.3075 0.0919,-0.38928 0.13234,-0.0818 0.3075,-0.0404 0.38928,0.0919 0.0818,0.13232 0.0404,0.3075 -0.0919,0.38928 -0.13234,0.0818 -0.30749,0.0404 -0.38928,-0.0919 z m 11.28959,-0.0217 c 0,-0.1397 0.1143,-0.254 0.254,-0.254 0.1397,0 0.254,0.1143 0.254,0.254 0,0.1397 -0.1143,0.254 -0.254,0.254 -0.1397,0 -0.254,-0.1143 -0.254,-0.254 z m -12.954,-1.778 c 0,-0.1397 0.1143,-0.254 0.254,-0.254 0.1397,0 0.254,0.1143 0.254,0.254 0,0.1397 -0.1143,0.254 -0.254,0.254 -0.1397,0 -0.254,-0.1143 -0.254,-0.254 z m -24.01958,38.0365 0.64675,-0.5715 -0.36972,-2.032 c -0.20514,-1.12742 -0.37368,-3.61812 -0.37859,-5.59498 -0.007,-2.80298 -0.0932,-3.6834 -0.40427,-4.1275 -0.48812,-0.69689 -0.72302,-0.70597 -1.33275,-0.0515 -0.42139,0.4523 -0.49797,1.11224 -0.64715,5.57721 -0.14424,4.31681 -0.10943,5.21361 0.23585,6.07656 0.35253,0.88105 0.63752,1.13387 1.42679,1.26575 0.097,0.0162 0.46738,-0.22771 0.82309,-0.54204 z m 65.83887,0.23336 c 0.0206,-0.0236 0.22063,-0.48506 0.44466,-1.02554 0.34488,-0.832 0.38488,-1.7278 0.2608,-5.842 -0.14996,-4.97282 -0.31966,-5.8659 -1.15613,-6.08464 -0.96164,-0.25148 -1.23655,0.69617 -1.23759,4.26634 0,1.81994 -0.16751,4.33507 -0.37107,5.58918 -0.36441,2.24511 -0.36157,2.28928 0.18471,2.87078 0.41341,0.44006 0.71829,0.54958 1.19606,0.42967 0.35268,-0.0885 0.65801,-0.18022 0.67856,-0.20379 z M 154.82173,120.8717 c 0.9779,0 2.67302,0.085 3.76694,0.18899 l 1.98895,0.18899 -2.82412,-2.30795 c -1.55327,-1.26937 -2.96266,-2.24922 -3.13195,-2.17744 -0.16932,0.0718 -1.49324,1.11075 -2.94206,2.30882 l -2.63423,2.17831 1.99923,-0.18986 c 1.09957,-0.10442 2.79934,-0.18986 3.77724,-0.18986 z m 87.63,64.03694 c -4.03131,-0.66864 -7.08541,-1.72551 -10.922,-3.77956 -6.69051,-3.58198 -12.48936,-10.63574 -14.89014,-18.11246 -0.31062,-0.96741 -0.60259,-1.80699 -0.64882,-1.86575 -0.0462,-0.0588 -0.36116,0.15351 -0.6999,0.47172 -0.89946,0.84501 -1.87726,0.46513 -2.60718,-1.0129 -0.53592,-1.08518 -0.5521,-1.33141 -0.4079,-6.20999 0.13157,-4.45165 0.21059,-5.1664 0.63884,-5.7785 0.55539,-0.79384 1.61691,-0.94219 2.09207,-0.29237 0.2445,0.33438 0.35204,0.10713 0.60884,-1.28643 0.73855,-4.00829 2.49722,-8.30114 4.8756,-11.9012 1.73279,-2.62284 5.26649,-6.28798 7.86943,-8.1621 2.21785,-1.59686 6.54858,-3.89919 8.24916,-4.38546 0.5588,-0.15978 1.67401,-0.47805 2.47828,-0.70727 1.19131,-0.33952 2.06128,-0.90884 4.69498,-3.07238 1.77798,-1.46059 3.373,-2.62383 3.54447,-2.58496 0.17148,0.0389 1.74592,1.24815 3.49875,2.68728 2.93065,2.40618 3.33792,2.65616 5.06395,3.10824 1.76479,0.46225 6.57842,2.38642 7.13557,2.85235 0.1397,0.11682 0.9398,0.6541 1.778,1.19396 5.10941,3.29079 9.50983,8.49943 11.93612,14.12838 0.86639,2.00998 1.97863,5.69245 2.2922,7.58903 0.13548,0.8195 0.21259,0.92663 0.41132,0.5715 0.1456,-0.26015 0.54943,-0.43707 0.99772,-0.43707 0.57335,0 0.87757,0.19703 1.27459,0.8255 0.43874,0.69455 0.50054,1.10225 0.38951,2.57009 -0.0726,0.95952 -0.0127,3.04852 0.1329,4.64222 0.23695,2.59261 0.21562,3.03473 -0.20277,4.20011 -0.37404,1.0419 -0.63879,1.37407 -1.32319,1.66027 -0.79609,0.3329 -0.89764,0.31832 -1.45951,-0.20953 -0.33213,-0.31203 -0.65011,-0.51925 -0.7066,-0.46049 -0.0565,0.0588 -0.40696,1.01632 -0.77884,2.12791 -3.61686,10.81108 -12.8361,18.92656 -24.26645,21.36124 -2.59139,0.55196 -8.47784,0.69507 -11.049,0.26862 z m 10.05174,-0.5587 c 13.21219,-2.22252 23.5519,-12.45049 26.00483,-25.7238 0.57625,-3.1182 0.52044,-8.59849 -0.11953,-11.73889 -1.30285,-6.39314 -4.33139,-11.9867 -8.96044,-16.54949 -2.96753,-2.92507 -8.95934,-6.68655 -10.99736,-6.90384 -0.32019,-0.0341 -0.73182,-0.18329 -0.9147,-0.33145 -0.4583,-0.37125 -4.24902,-1.28932 -6.55554,-1.58767 -4.07457,-0.52705 -8.38909,-0.14614 -12.827,1.13243 -2.54297,0.73263 -7.24799,2.91635 -8.12023,3.76881 -0.31046,0.30341 -0.95357,0.75469 -1.42913,1.00284 -1.42065,0.74131 -4.48551,3.68019 -6.3389,6.0783 -3.09009,3.99828 -5.05879,8.24102 -6.11223,13.17238 -0.72751,3.4055 -0.7824,9.20121 -0.11654,12.30214 1.44839,6.74526 4.1862,11.83828 8.88538,16.52907 2.88765,2.88249 5.93227,5.01578 9.23351,6.4697 2.52059,1.11012 6.06727,2.1766 8.31614,2.50067 2.56123,0.36908 7.49051,0.30965 10.05174,-0.1212 z M 228.86273,149.9547 c 0,-0.1397 0.1143,-0.254 0.254,-0.254 0.1397,0 0.254,0.1143 0.254,0.254 0,0.1397 -0.1143,0.254 -0.254,0.254 -0.1397,0 -0.254,-0.1143 -0.254,-0.254 z m 35.052,-0.254 c 0,-0.1397 0.1143,-0.254 0.254,-0.254 0.1397,0 0.254,0.1143 0.254,0.254 0,0.1397 -0.1143,0.254 -0.254,0.254 -0.1397,0 -0.254,-0.1143 -0.254,-0.254 z m -33.274,-2.032 c 0,-0.1397 0.17145,-0.254 0.381,-0.254 0.20955,0 0.381,0.1143 0.381,0.254 0,0.1397 -0.17145,0.254 -0.381,0.254 -0.20955,0 -0.381,-0.1143 -0.381,-0.254 z m 31.4452,-0.3048 c 0.23706,-0.23706 0.37254,-0.23706 0.6096,0 0.23706,0.23707 0.16934,0.3048 -0.3048,0.3048 -0.47414,0 -0.54186,-0.0677 -0.3048,-0.3048 z m -35.2552,-1.2192 c 0,-0.1397 0.1143,-0.254 0.254,-0.254 0.1397,0 0.254,0.1143 0.254,0.254 0,0.1397 -0.1143,0.254 -0.254,0.254 -0.1397,0 -0.254,-0.1143 -0.254,-0.254 z m 39.116,-0.254 c 0,-0.1397 0.1143,-0.254 0.254,-0.254 0.1397,0 0.254,0.1143 0.254,0.254 0,0.1397 -0.1143,0.254 -0.254,0.254 -0.1397,0 -0.254,-0.1143 -0.254,-0.254 z m -33.39016,-0.23645 c -0.0804,-0.13004 -0.03,-0.30824 0.11202,-0.39599 0.14198,-0.0877 0.25814,0.0186 0.25814,0.23645 0,0.44616 -0.15243,0.51185 -0.37016,0.15954 z m 27.92916,-0.27155 c -0.0863,-0.1397 -0.0359,-0.254 0.11201,-0.254 0.14793,0 0.26899,0.1143 0.26899,0.254 0,0.1397 -0.0504,0.254 -0.11202,0.254 -0.0616,0 -0.18265,-0.1143 -0.26898,-0.254 z m -32.385,-1.524 c 0,-0.1397 0.22184,-0.254 0.49301,-0.254 0.27115,0 0.56365,0.1143 0.64999,0.254 0.089,0.14406 -0.12436,0.254 -0.49302,0.254 -0.35748,0 -0.64998,-0.1143 -0.64998,-0.254 z m 36.068,-0.254 c 0,-0.1397 0.2286,-0.254 0.508,-0.254 0.2794,0 0.508,0.1143 0.508,0.254 0,0.1397 -0.2286,0.254 -0.508,0.254 -0.2794,0 -0.508,-0.1143 -0.508,-0.254 z m -29.718,-0.254 c 0,-0.1397 0.17145,-0.254 0.381,-0.254 0.20955,0 0.381,0.1143 0.381,0.254 0,0.1397 -0.17145,0.254 -0.381,0.254 -0.20955,0 -0.381,-0.1143 -0.381,-0.254 z m 23.876,-0.254 c 0,-0.1397 0.17145,-0.254 0.381,-0.254 0.20955,0 0.381,0.1143 0.381,0.254 0,0.1397 -0.17145,0.254 -0.381,0.254 -0.20955,0 -0.381,-0.1143 -0.381,-0.254 z m -32.639,-1.016 c 0.0863,-0.1397 0.20739,-0.254 0.26898,-0.254 0.0616,0 0.11202,0.1143 0.11202,0.254 0,0.1397 -0.12106,0.254 -0.26899,0.254 -0.14795,0 -0.19835,-0.1143 -0.11201,-0.254 z m 41.656,0 c -0.0863,-0.1397 -0.0359,-0.254 0.11201,-0.254 0.14793,0 0.26899,0.1143 0.26899,0.254 0,0.1397 -0.0504,0.254 -0.11202,0.254 -0.0616,0 -0.18265,-0.1143 -0.26898,-0.254 z m -37.338,-0.508 c 0.0863,-0.1397 0.20739,-0.254 0.26898,-0.254 0.0616,0 0.11202,0.1143 0.11202,0.254 0,0.1397 -0.12106,0.254 -0.26899,0.254 -0.14795,0 -0.19835,-0.1143 -0.11201,-0.254 z m 33.02,0 c -0.0863,-0.1397 -0.0359,-0.254 0.11201,-0.254 0.14793,0 0.26899,0.1143 0.26899,0.254 0,0.1397 -0.0504,0.254 -0.11202,0.254 -0.0616,0 -0.18265,-0.1143 -0.26898,-0.254 z m -26.543,-0.508 c 0,-0.1397 0.1143,-0.254 0.254,-0.254 0.1397,0 0.254,0.1143 0.254,0.254 0,0.1397 -0.1143,0.254 -0.254,0.254 -0.1397,0 -0.254,-0.1143 -0.254,-0.254 z m 20.066,0 c 0,-0.1397 0.12105,-0.254 0.26898,-0.254 0.14796,0 0.19835,0.1143 0.11202,0.254 -0.0863,0.1397 -0.20739,0.254 -0.26899,0.254 -0.0616,0 -0.11201,-0.1143 -0.11201,-0.254 z m -29.718,-1.27 c 0,-0.1397 0.17145,-0.254 0.381,-0.254 0.20955,0 0.381,0.1143 0.381,0.254 0,0.1397 -0.17145,0.254 -0.381,0.254 -0.20955,0 -0.381,-0.1143 -0.381,-0.254 z m 38.989,0 c -0.0863,-0.1397 0.0211,-0.254 0.23901,-0.254 0.21778,0 0.39599,0.1143 0.39599,0.254 0,0.1397 -0.10755,0.254 -0.23902,0.254 -0.13144,0 -0.30965,-0.1143 -0.39598,-0.254 z m -34.036,-0.508 c 0.0863,-0.1397 0.26454,-0.254 0.39598,-0.254 0.13147,0 0.23902,0.1143 0.23902,0.254 0,0.1397 -0.17821,0.254 -0.39599,0.254 -0.2178,0 -0.32535,-0.1143 -0.23901,-0.254 z m 29.21,0 c -0.0863,-0.1397 0.0211,-0.254 0.23901,-0.254 0.21778,0 0.39599,0.1143 0.39599,0.254 0,0.1397 -0.10755,0.254 -0.23902,0.254 -0.13144,0 -0.30965,-0.1143 -0.39598,-0.254 z m -22.352,-0.508 c 0.0863,-0.1397 0.20739,-0.254 0.26898,-0.254 0.0616,0 0.11202,0.1143 0.11202,0.254 0,0.1397 -0.12106,0.254 -0.26899,0.254 -0.14795,0 -0.19835,-0.1143 -0.11201,-0.254 z m 15.875,-0.015 c 0,-0.14795 0.1143,-0.19835 0.254,-0.11201 0.1397,0.0863 0.254,0.20738 0.254,0.26899 0,0.0616 -0.1143,0.11201 -0.254,0.11201 -0.1397,0 -0.254,-0.12105 -0.254,-0.26899 z m -30.099,-1.00102 c 0.0863,-0.1397 0.20739,-0.254 0.26898,-0.254 0.0616,0 0.11202,0.1143 0.11202,0.254 0,0.1397 -0.12106,0.254 -0.26899,0.254 -0.14795,0 -0.19835,-0.1143 -0.11201,-0.254 z m 44.069,0 c 0,-0.1397 0.12106,-0.254 0.26898,-0.254 0.14796,0 0.19835,0.1143 0.11202,0.254 -0.0863,0.1397 -0.20739,0.254 -0.26899,0.254 -0.0616,0 -0.11201,-0.1143 -0.11201,-0.254 z m -3.81,-0.254 c 0,-0.1397 0.1143,-0.254 0.254,-0.254 0.1397,0 0.254,0.1143 0.254,0.254 0,0.1397 -0.1143,0.254 -0.254,0.254 -0.1397,0 -0.254,-0.1143 -0.254,-0.254 z m -30.988,-0.508 c 0,-0.1397 0.1143,-0.254 0.254,-0.254 0.1397,0 0.254,0.1143 0.254,0.254 0,0.1397 -0.1143,0.254 -0.254,0.254 -0.1397,0 -0.254,-0.1143 -0.254,-0.254 z m 25.654,0 c 0,-0.1397 0.1143,-0.254 0.254,-0.254 0.1397,0 0.254,0.1143 0.254,0.254 0,0.1397 -0.1143,0.254 -0.254,0.254 -0.1397,0 -0.254,-0.1143 -0.254,-0.254 z m -33.40888,-1.28275 c -0.24137,-0.39052 0.0892,-0.64249 0.41524,-0.31648 0.18243,0.18241 0.18679,0.32449 0.0132,0.43171 -0.14221,0.0879 -0.33508,0.036 -0.42855,-0.11523 z m 4.09641,-0.20157 c -0.0879,-0.14222 -0.036,-0.33507 0.11522,-0.42856 0.39052,-0.24136 0.64249,0.0892 0.31648,0.41525 -0.18242,0.18241 -0.32448,0.1868 -0.4317,0.0133 z m 36.80547,-0.0397 c 0.0863,-0.1397 0.26454,-0.254 0.39598,-0.254 0.13147,0 0.23902,0.1143 0.23902,0.254 0,0.1397 -0.17821,0.254 -0.39599,0.254 -0.2178,0 -0.32535,-0.1143 -0.23901,-0.254 z m -3.937,-0.254 c 0,-0.1397 0.1143,-0.254 0.254,-0.254 0.1397,0 0.254,0.1143 0.254,0.254 0,0.1397 -0.1143,0.254 -0.254,0.254 -0.1397,0 -0.254,-0.1143 -0.254,-0.254 z m -27.178,-0.22402 c 0,-0.1397 0.1143,-0.32464 0.254,-0.41098 0.1397,-0.0863 0.254,-0.0427 0.254,0.097 0,0.1397 -0.1143,0.32464 -0.254,0.41098 -0.1397,0.0863 -0.254,0.0427 -0.254,-0.097 z m 21.73805,0.004 c -0.10939,-0.17704 -0.13032,-0.39049 -0.0465,-0.47433 0.22731,-0.22732 0.47516,0.10701 0.3524,0.47535 -0.0861,0.25811 -0.14587,0.25791 -0.30592,-0.001 z m -30.12005,-1.5581 c 0,-0.1397 0.12105,-0.254 0.26898,-0.254 0.14796,0 0.19835,0.1143 0.11202,0.254 -0.0863,0.1397 -0.20739,0.254 -0.26899,0.254 -0.0616,0 -0.11201,-0.1143 -0.11201,-0.254 z m 38.23784,0.0175 c -0.0804,-0.13004 -0.03,-0.30824 0.11202,-0.39599 0.14198,-0.0877 0.25814,0.0187 0.25814,0.23645 0,0.44616 -0.15243,0.51185 -0.37016,0.15954 z m -33.66584,-0.54054 c 0,-0.14794 0.1143,-0.19835 0.254,-0.11201 0.1397,0.0863 0.254,0.20739 0.254,0.26899 0,0.0616 -0.1143,0.11201 -0.254,0.11201 -0.1397,0 -0.254,-0.12104 -0.254,-0.26899 z m 29.21,0 c 0,-0.14794 0.1143,-0.19835 0.254,-0.11201 0.1397,0.0863 0.254,0.20739 0.254,0.26899 0,0.0616 -0.1143,0.11201 -0.254,0.11201 -0.1397,0 -0.254,-0.12104 -0.254,-0.26899 z m -5.715,-0.49301 c 0.0863,-0.1397 0.20739,-0.254 0.26898,-0.254 0.0616,0 0.11202,0.1143 0.11202,0.254 0,0.1397 -0.12106,0.254 -0.26899,0.254 -0.14795,0 -0.19835,-0.1143 -0.11201,-0.254 z m -26.289,-1.27 c 0,-0.1397 0.1782,-0.254 0.39598,-0.254 0.21781,0 0.32535,0.1143 0.23902,0.254 -0.0863,0.1397 -0.26454,0.254 -0.39599,0.254 -0.13147,0 -0.23901,-0.1143 -0.23901,-0.254 z m 34.544,0 c 0,-0.1397 0.1143,-0.254 0.254,-0.254 0.1397,0 0.254,0.1143 0.254,0.254 0,0.1397 -0.1143,0.254 -0.254,0.254 -0.1397,0 -0.254,-0.1143 -0.254,-0.254 z m -38.227,-0.254 c 0.0863,-0.1397 0.20739,-0.254 0.26898,-0.254 0.0616,0 0.11202,0.1143 0.11202,0.254 0,0.1397 -0.12106,0.254 -0.26899,0.254 -0.14795,0 -0.19835,-0.1143 -0.11201,-0.254 z m 8.2931,0.0127 c 0.0559,-0.16764 0.18448,-0.29623 0.28575,-0.28575 0.30371,0.0314 0.24488,0.37981 -0.0826,0.48895 -0.16764,0.0559 -0.25908,-0.0356 -0.2032,-0.2032 z m 25.3619,-0.0127 c 0,-0.1397 0.10754,-0.254 0.23901,-0.254 0.13145,0 0.30965,0.1143 0.39599,0.254 0.0863,0.1397 -0.0211,0.254 -0.23902,0.254 -0.21778,0 -0.39598,-0.1143 -0.39598,-0.254 z m 8.382,-0.015 c 0,-0.14795 0.1143,-0.19835 0.254,-0.11201 0.1397,0.0863 0.254,0.20738 0.254,0.26899 0,0.0616 -0.1143,0.11201 -0.254,0.11201 -0.1397,0 -0.254,-0.12105 -0.254,-0.26899 z m -40.386,-2.01702 c 0,-0.1397 0.1143,-0.254 0.254,-0.254 0.1397,0 0.254,0.1143 0.254,0.254 0,0.1397 -0.1143,0.254 -0.254,0.254 -0.1397,0 -0.254,-0.1143 -0.254,-0.254 z m 4.064,-0.015 c 0,-0.14795 0.1143,-0.19835 0.254,-0.11201 0.1397,0.0863 0.254,0.20738 0.254,0.26899 0,0.0616 -0.1143,0.11201 -0.254,0.11201 -0.1397,0 -0.254,-0.12105 -0.254,-0.26899 z m 34.671,0.015 c 0.0863,-0.1397 0.20739,-0.254 0.26898,-0.254 0.0616,0 0.11202,0.1143 0.11202,0.254 0,0.1397 -0.12106,0.254 -0.26899,0.254 -0.14795,0 -0.19835,-0.1143 -0.11201,-0.254 z m -30.099,-0.254 c 0,-0.1397 0.1143,-0.254 0.254,-0.254 0.1397,0 0.254,0.1143 0.254,0.254 0,0.1397 -0.1143,0.254 -0.254,0.254 -0.1397,0 -0.254,-0.1143 -0.254,-0.254 z m 21.59,-0.015 c 0,-0.14795 0.1143,-0.19835 0.254,-0.11201 0.1397,0.0863 0.254,0.20738 0.254,0.26899 0,0.0616 -0.1143,0.11201 -0.254,0.11201 -0.1397,0 -0.254,-0.12105 -0.254,-0.26899 z m -18.92044,-0.24316 c 0.0877,-0.14197 0.26594,-0.19238 0.39599,-0.112 0.3523,0.21773 0.28661,0.37015 -0.15954,0.37015 -0.2178,0 -0.3242,-0.11617 -0.23645,-0.25815 z m 16.38044,-0.0109 c 0,-0.14794 0.1143,-0.19835 0.254,-0.11201 0.1397,0.0863 0.254,0.20739 0.254,0.26899 0,0.0616 -0.1143,0.11201 -0.254,0.11201 -0.1397,0 -0.254,-0.12104 -0.254,-0.26899 z m -22.352,-1.00101 c 0,-0.1397 0.12105,-0.254 0.26898,-0.254 0.14796,0 0.19835,0.1143 0.11202,0.254 -0.0863,0.1397 -0.20739,0.254 -0.26899,0.254 -0.0616,0 -0.11201,-0.1143 -0.11201,-0.254 z m 28.194,0 c 0,-0.1397 0.1143,-0.254 0.254,-0.254 0.1397,0 0.254,0.1143 0.254,0.254 0,0.1397 -0.1143,0.254 -0.254,0.254 -0.1397,0 -0.254,-0.1143 -0.254,-0.254 z m -23.876,-0.254 c 0,-0.1397 0.12105,-0.254 0.26898,-0.254 0.14796,0 0.19835,0.1143 0.11202,0.254 -0.0863,0.1397 -0.20739,0.254 -0.26899,0.254 -0.0616,0 -0.11201,-0.1143 -0.11201,-0.254 z m 23.114,-0.254 c 0,-0.1397 0.1143,-0.254 0.254,-0.254 0.1397,0 0.254,0.1143 0.254,0.254 0,0.1397 -0.1143,0.254 -0.254,0.254 -0.1397,0 -0.254,-0.1143 -0.254,-0.254 z m 3.81,0 c 0,-0.1397 0.1143,-0.254 0.254,-0.254 0.1397,0 0.254,0.1143 0.254,0.254 0,0.1397 -0.1143,0.254 -0.254,0.254 -0.1397,0 -0.254,-0.1143 -0.254,-0.254 z m -29.464,-1.778 c -0.30653,-0.19809 -0.26635,-0.24698 0.20548,-0.25011 0.32705,-0.002 0.51705,0.10847 0.42952,0.25011 -0.18877,0.30544 -0.16238,0.30544 -0.635,0 z m 24.384,0 c 0,-0.1397 0.2286,-0.254 0.508,-0.254 0.2794,0 0.508,0.1143 0.508,0.254 0,0.1397 -0.2286,0.254 -0.508,0.254 -0.2794,0 -0.508,-0.1143 -0.508,-0.254 z m -20.32,-0.254 c 0,-0.1397 0.1143,-0.254 0.254,-0.254 0.1397,0 0.254,0.1143 0.254,0.254 0,0.1397 -0.1143,0.254 -0.254,0.254 -0.1397,0 -0.254,-0.1143 -0.254,-0.254 z m 2.667,0 c -0.0863,-0.1397 0.028,-0.254 0.254,-0.254 0.22603,0 0.34033,0.1143 0.254,0.254 -0.0863,0.1397 -0.20064,0.254 -0.254,0.254 -0.0534,0 -0.16767,-0.1143 -0.254,-0.254 z m 11.303,0 c 0,-0.1397 0.12105,-0.254 0.26898,-0.254 0.14796,0 0.19835,0.1143 0.11202,0.254 -0.0863,0.1397 -0.20739,0.254 -0.26899,0.254 -0.0616,0 -0.11201,-0.1143 -0.11201,-0.254 z m 2.667,0 c 0.0863,-0.1397 0.20739,-0.254 0.26898,-0.254 0.0616,0 0.11202,0.1143 0.11202,0.254 0,0.1397 -0.12106,0.254 -0.26899,0.254 -0.14795,0 -0.19835,-0.1143 -0.11201,-0.254 z m -15.621,-1.778 c 0,-0.1397 0.1143,-0.254 0.254,-0.254 0.1397,0 0.254,0.1143 0.254,0.254 0,0.1397 -0.1143,0.254 -0.254,0.254 -0.1397,0 -0.254,-0.1143 -0.254,-0.254 z m 14.478,0 c 0,-0.1397 0.1143,-0.254 0.254,-0.254 0.1397,0 0.254,0.1143 0.254,0.254 0,0.1397 -0.1143,0.254 -0.254,0.254 -0.1397,0 -0.254,-0.1143 -0.254,-0.254 z m -38.54054,38.03524 0.70249,-0.57024 -0.38499,-1.99084 c -0.23233,-1.20153 -0.38496,-3.41979 -0.38496,-5.59498 0,-2.85094 -0.0826,-3.72212 -0.3954,-4.16866 -0.48738,-0.69581 -0.73325,-0.70586 -1.3826,-0.0565 -0.44526,0.44526 -0.51024,0.86095 -0.52606,3.3655 -0.01,1.57163 -0.10335,3.7719 -0.2076,4.8895 -0.16007,1.71638 -0.11341,2.21736 0.30049,3.22535 0.42125,1.02601 0.66512,1.26881 1.44917,1.44293 0.0699,0.0155 0.4431,-0.22841 0.82946,-0.54204 z m 65.88184,0.23462 c 0.0206,-0.0236 0.21882,-0.48074 0.44063,-1.01594 0.33894,-0.81768 0.38045,-1.73035 0.25995,-5.715 -0.15095,-4.99141 -0.33856,-6.00872 -1.14699,-6.22012 -0.94577,-0.24733 -1.18125,0.67837 -1.31298,5.1612 -0.0677,2.30505 -0.26207,4.80013 -0.4319,5.54463 -0.29248,1.28231 -0.27765,1.38673 0.28138,1.98179 0.44585,0.47457 0.74692,0.58881 1.23134,0.46723 0.35268,-0.0885 0.65802,-0.18022 0.67857,-0.20379 z m -35.4693,-40.44042 c 1.04775,-0.0882 3.03611,-0.0336 4.41858,0.12135 1.38247,0.15494 2.55951,0.2358 2.61562,0.17968 0.20119,-0.20119 -5.28417,-4.52391 -5.58437,-4.40077 -0.16876,0.0692 -1.50698,1.12322 -2.97383,2.34221 l -2.667,2.21634 1.143,-0.14922 c 0.62865,-0.0821 2.00025,-0.22139 3.048,-0.30959 z m -292.608008,3.94856 c 0,-0.1397 0.178196,-0.254 0.395991,-0.254 0.217795,0 0.325348,0.1143 0.239009,0.254 -0.08634,0.1397 -0.264536,0.254 -0.395991,0.254 -0.131456,0 -0.239009,-0.1143 -0.239009,-0.254 z m 92.456002,0 c 0,-0.1397 0.1143,-0.254 0.254,-0.254 0.1397,0 0.254,0.1143 0.254,0.254 0,0.1397 -0.1143,0.254 -0.254,0.254 -0.1397,0 -0.254,-0.1143 -0.254,-0.254 z m 92.456006,0 c 0,-0.1397 0.1143,-0.254 0.254,-0.254 0.1397,0 0.254,0.1143 0.254,0.254 0,0.1397 -0.1143,0.254 -0.254,0.254 -0.1397,0 -0.254,-0.1143 -0.254,-0.254 z m 92.456,0 c 0,-0.1397 0.1143,-0.254 0.254,-0.254 0.1397,0 0.254,0.1143 0.254,0.254 0,0.1397 -0.1143,0.254 -0.254,0.254 -0.1397,0 -0.254,-0.1143 -0.254,-0.254 z m -275.844008,-2.04699 c 0,-0.14794 0.1143,-0.19835 0.254,-0.11201 0.1397,0.0863 0.254,0.20739 0.254,0.26899 0,0.0616 -0.1143,0.11201 -0.254,0.11201 -0.1397,0 -0.254,-0.12104 -0.254,-0.26899 z m 92.456002,0 c 0,-0.14794 0.1143,-0.19835 0.254,-0.11201 0.1397,0.0863 0.254,0.20739 0.254,0.26899 0,0.0616 -0.1143,0.11201 -0.254,0.11201 -0.1397,0 -0.254,-0.12104 -0.254,-0.26899 z m 184.785006,0.015 c 0.0863,-0.1397 0.20739,-0.254 0.26898,-0.254 0.0616,0 0.11202,0.1143 0.11202,0.254 0,0.1397 -0.12106,0.254 -0.26899,0.254 -0.14795,0 -0.19835,-0.1143 -0.11201,-0.254 z"
       id="path11162"
       clip-path="url(#clipPath11218)"
       transform="matrix(1.6455026,0,0,1.6455026,3.6867824,-91.047716)" /></g></svg>
