<?xml version="1.0" encoding="UTF-8" standalone="no"?>
<!-- Created with Inkscape (http://www.inkscape.org/) -->

<svg
   width="148.42915mm"
   height="104.10802mm"
   viewBox="0 0 148.42915 104.10802"
   version="1.1"
   id="svg5486"
   inkscape:version="1.2.1 (9c6d41e410, 2022-07-14)"
   sodipodi:docname="frontocentral_erps_smallitd_bashlead.svg"
   xmlns:inkscape="http://www.inkscape.org/namespaces/inkscape"
   xmlns:sodipodi="http://sodipodi.sourceforge.net/DTD/sodipodi-0.dtd"
   xmlns="http://www.w3.org/2000/svg"
   xmlns:svg="http://www.w3.org/2000/svg">
  <sodipodi:namedview
     id="namedview5488"
     pagecolor="#ffffff"
     bordercolor="#000000"
     borderopacity="0.25"
     inkscape:showpageshadow="2"
     inkscape:pageopacity="0.0"
     inkscape:pagecheckerboard="0"
     inkscape:deskcolor="#d1d1d1"
     inkscape:document-units="mm"
     showgrid="false"
     inkscape:zoom="1.0129245"
     inkscape:cx="403.78132"
     inkscape:cy="205.83962"
     inkscape:window-width="1920"
     inkscape:window-height="991"
     inkscape:window-x="-9"
     inkscape:window-y="-9"
     inkscape:window-maximized="1"
     inkscape:current-layer="layer1" />
  <defs
     id="defs5483" />
  <g
     inkscape:label="Layer 1"
     inkscape:groupmode="layer"
     id="layer1"
     transform="translate(-34.522132,-78.233965)">
    <g
       style="font-style:normal;font-weight:normal;font-size:12px;font-family:Dialog;color-interpolation:sRGB;fill:#ffffff;fill-opacity:1;stroke:#ffffff;stroke-width:1;stroke-linecap:square;stroke-linejoin:miter;stroke-miterlimit:10;stroke-dasharray:none;stroke-dashoffset:0;stroke-opacity:1;color-rendering:optimizeSpeed;image-rendering:optimizeSpeed;shape-rendering:crispEdges;text-rendering:optimizeSpeed"
       id="g609"
       transform="matrix(0.26458333,0,0,0.26458333,4.4117601,56.615647)">
      <path
         style="stroke:none"
         d="M 250,413 H 446 V 116 H 250 Z"
         id="path607" />
    </g>
    <g
       style="font-style:normal;font-weight:normal;font-size:12px;font-family:Dialog;color-interpolation:linearRGB;fill:#262626;fill-opacity:1;stroke:#262626;stroke-width:0.8333;stroke-linecap:square;stroke-linejoin:round;stroke-miterlimit:10;stroke-dasharray:none;stroke-dashoffset:0;stroke-opacity:1;color-rendering:optimizeQuality;image-rendering:optimizeQuality;shape-rendering:auto;text-rendering:geometricPrecision"
       id="g623"
       transform="matrix(0.26458333,0,0,0.26458333,4.4117601,56.615647)">
      <line
         y2="413"
         style="fill:none"
         x1="250"
         x2="446"
         y1="413"
         id="line611" />
      <line
         y2="410.03"
         style="fill:none"
         x1="260.3158"
         x2="260.3158"
         y1="413"
         id="line613" />
      <line
         y2="410.03"
         style="fill:none"
         x1="301.57889"
         x2="301.57889"
         y1="413"
         id="line615" />
      <line
         y2="410.03"
         style="fill:none"
         x1="342.8421"
         x2="342.8421"
         y1="413"
         id="line617" />
      <line
         y2="410.03"
         style="fill:none"
         x1="384.10529"
         x2="384.10529"
         y1="413"
         id="line619" />
      <line
         y2="410.03"
         style="fill:none"
         x1="425.36841"
         x2="425.36841"
         y1="413"
         id="line621" />
    </g>
    <g
       transform="matrix(0.26458333,0,0,0.26458333,73.286983,166.98608)"
       style="font-style:normal;font-weight:normal;font-size:13.3333px;font-family:SansSerif;color-interpolation:linearRGB;fill:#262626;fill-opacity:1;stroke:#262626;stroke-width:1;stroke-linecap:square;stroke-linejoin:miter;stroke-miterlimit:10;stroke-dasharray:none;stroke-dashoffset:0;stroke-opacity:1;color-rendering:optimizeQuality;image-rendering:optimizeQuality;shape-rendering:auto;text-rendering:geometricPrecision"
       id="g627">
      <text
         x="-4"
         xml:space="preserve"
         y="14"
         style="stroke:none"
         id="text625">0</text>
    </g>
    <g
       transform="matrix(0.26458333,0,0,0.26458333,84.204513,166.98608)"
       style="font-style:normal;font-weight:normal;font-size:13.3333px;font-family:SansSerif;color-interpolation:linearRGB;fill:#262626;fill-opacity:1;stroke:#262626;stroke-width:1;stroke-linecap:square;stroke-linejoin:miter;stroke-miterlimit:10;stroke-dasharray:none;stroke-dashoffset:0;stroke-opacity:1;color-rendering:optimizeQuality;image-rendering:optimizeQuality;shape-rendering:auto;text-rendering:geometricPrecision"
       id="g631">
      <text
         x="-11.5"
         xml:space="preserve"
         y="14"
         style="stroke:none"
         id="text629">100</text>
    </g>
    <g
       transform="matrix(0.26458333,0,0,0.26458333,95.122063,166.98608)"
       style="font-style:normal;font-weight:normal;font-size:13.3333px;font-family:SansSerif;color-interpolation:linearRGB;fill:#262626;fill-opacity:1;stroke:#262626;stroke-width:1;stroke-linecap:square;stroke-linejoin:miter;stroke-miterlimit:10;stroke-dasharray:none;stroke-dashoffset:0;stroke-opacity:1;color-rendering:optimizeQuality;image-rendering:optimizeQuality;shape-rendering:auto;text-rendering:geometricPrecision"
       id="g635">
      <text
         x="-11.5"
         xml:space="preserve"
         y="14"
         style="stroke:none"
         id="text633">200</text>
    </g>
    <g
       transform="matrix(0.26458333,0,0,0.26458333,106.03962,166.98608)"
       style="font-style:normal;font-weight:normal;font-size:13.3333px;font-family:SansSerif;color-interpolation:linearRGB;fill:#262626;fill-opacity:1;stroke:#262626;stroke-width:1;stroke-linecap:square;stroke-linejoin:miter;stroke-miterlimit:10;stroke-dasharray:none;stroke-dashoffset:0;stroke-opacity:1;color-rendering:optimizeQuality;image-rendering:optimizeQuality;shape-rendering:auto;text-rendering:geometricPrecision"
       id="g639">
      <text
         x="-11.5"
         xml:space="preserve"
         y="14"
         style="stroke:none"
         id="text637">300</text>
    </g>
    <g
       transform="matrix(0.26458333,0,0,0.26458333,116.95714,166.98608)"
       style="font-style:normal;font-weight:normal;font-size:13.3333px;font-family:SansSerif;color-interpolation:linearRGB;fill:#262626;fill-opacity:1;stroke:#262626;stroke-width:1;stroke-linecap:square;stroke-linejoin:miter;stroke-miterlimit:10;stroke-dasharray:none;stroke-dashoffset:0;stroke-opacity:1;color-rendering:optimizeQuality;image-rendering:optimizeQuality;shape-rendering:auto;text-rendering:geometricPrecision"
       id="g643">
      <text
         x="-11.5"
         xml:space="preserve"
         y="14"
         style="stroke:none"
         id="text641">400</text>
    </g>
    <g
       style="font-style:normal;font-weight:normal;font-size:12px;font-family:Dialog;color-interpolation:linearRGB;fill:#262626;fill-opacity:1;stroke:#262626;stroke-width:0.8333;stroke-linecap:square;stroke-linejoin:round;stroke-miterlimit:10;stroke-dasharray:none;stroke-dashoffset:0;stroke-opacity:1;color-rendering:optimizeQuality;image-rendering:optimizeQuality;shape-rendering:auto;text-rendering:geometricPrecision"
       id="g663"
       transform="matrix(0.26458333,0,0,0.26458333,4.4117601,56.615647)">
      <line
         y2="116"
         style="fill:none"
         x1="250"
         x2="250"
         y1="413"
         id="line645" />
      <line
         y2="413"
         style="fill:none"
         x1="250"
         x2="252.97"
         y1="413"
         id="line647" />
      <line
         y2="373.39999"
         style="fill:none"
         x1="250"
         x2="252.97"
         y1="373.39999"
         id="line649" />
      <line
         y2="333.79999"
         style="fill:none"
         x1="250"
         x2="252.97"
         y1="333.79999"
         id="line651" />
      <line
         y2="294.20001"
         style="fill:none"
         x1="250"
         x2="252.97"
         y1="294.20001"
         id="line653" />
      <line
         y2="254.60001"
         style="fill:none"
         x1="250"
         x2="252.97"
         y1="254.60001"
         id="line655" />
      <line
         y2="215"
         style="fill:none"
         x1="250"
         x2="252.97"
         y1="215"
         id="line657" />
      <line
         y2="175.39999"
         style="fill:none"
         x1="250"
         x2="252.97"
         y1="175.39999"
         id="line659" />
      <line
         y2="135.8"
         style="fill:none"
         x1="250"
         x2="252.97"
         y1="135.8"
         id="line661" />
    </g>
    <g
       transform="matrix(0.26458333,0,0,0.26458333,69.460074,165.88856)"
       style="font-style:normal;font-weight:normal;font-size:13.3333px;font-family:SansSerif;color-interpolation:linearRGB;fill:#262626;fill-opacity:1;stroke:#262626;stroke-width:1;stroke-linecap:square;stroke-linejoin:miter;stroke-miterlimit:10;stroke-dasharray:none;stroke-dashoffset:0;stroke-opacity:1;color-rendering:optimizeQuality;image-rendering:optimizeQuality;shape-rendering:auto;text-rendering:geometricPrecision"
       id="g667">
      <text
         x="-12"
         xml:space="preserve"
         y="5.5"
         style="stroke:none"
         id="text665">-3</text>
    </g>
    <g
       transform="matrix(0.26458333,0,0,0.26458333,69.460074,155.41106)"
       style="font-style:normal;font-weight:normal;font-size:13.3333px;font-family:SansSerif;color-interpolation:linearRGB;fill:#262626;fill-opacity:1;stroke:#262626;stroke-width:1;stroke-linecap:square;stroke-linejoin:miter;stroke-miterlimit:10;stroke-dasharray:none;stroke-dashoffset:0;stroke-opacity:1;color-rendering:optimizeQuality;image-rendering:optimizeQuality;shape-rendering:auto;text-rendering:geometricPrecision"
       id="g671">
      <text
         x="-12"
         xml:space="preserve"
         y="5.5"
         style="stroke:none"
         id="text669">-2</text>
    </g>
    <g
       transform="matrix(0.26458333,0,0,0.26458333,69.460074,144.93356)"
       style="font-style:normal;font-weight:normal;font-size:13.3333px;font-family:SansSerif;color-interpolation:linearRGB;fill:#262626;fill-opacity:1;stroke:#262626;stroke-width:1;stroke-linecap:square;stroke-linejoin:miter;stroke-miterlimit:10;stroke-dasharray:none;stroke-dashoffset:0;stroke-opacity:1;color-rendering:optimizeQuality;image-rendering:optimizeQuality;shape-rendering:auto;text-rendering:geometricPrecision"
       id="g675">
      <text
         x="-12"
         xml:space="preserve"
         y="5.5"
         style="stroke:none"
         id="text673">-1</text>
    </g>
    <g
       transform="matrix(0.26458333,0,0,0.26458333,69.460074,134.45606)"
       style="font-style:normal;font-weight:normal;font-size:13.3333px;font-family:SansSerif;color-interpolation:linearRGB;fill:#262626;fill-opacity:1;stroke:#262626;stroke-width:1;stroke-linecap:square;stroke-linejoin:miter;stroke-miterlimit:10;stroke-dasharray:none;stroke-dashoffset:0;stroke-opacity:1;color-rendering:optimizeQuality;image-rendering:optimizeQuality;shape-rendering:auto;text-rendering:geometricPrecision"
       id="g679">
      <text
         x="-8"
         xml:space="preserve"
         y="5.5"
         style="stroke:none"
         id="text677">0</text>
    </g>
    <g
       transform="matrix(0.26458333,0,0,0.26458333,69.460074,123.97856)"
       style="font-style:normal;font-weight:normal;font-size:13.3333px;font-family:SansSerif;color-interpolation:linearRGB;fill:#262626;fill-opacity:1;stroke:#262626;stroke-width:1;stroke-linecap:square;stroke-linejoin:miter;stroke-miterlimit:10;stroke-dasharray:none;stroke-dashoffset:0;stroke-opacity:1;color-rendering:optimizeQuality;image-rendering:optimizeQuality;shape-rendering:auto;text-rendering:geometricPrecision"
       id="g683">
      <text
         x="-8"
         xml:space="preserve"
         y="5.5"
         style="stroke:none"
         id="text681">1</text>
    </g>
    <g
       transform="matrix(0.26458333,0,0,0.26458333,69.460074,113.50106)"
       style="font-style:normal;font-weight:normal;font-size:13.3333px;font-family:SansSerif;color-interpolation:linearRGB;fill:#262626;fill-opacity:1;stroke:#262626;stroke-width:1;stroke-linecap:square;stroke-linejoin:miter;stroke-miterlimit:10;stroke-dasharray:none;stroke-dashoffset:0;stroke-opacity:1;color-rendering:optimizeQuality;image-rendering:optimizeQuality;shape-rendering:auto;text-rendering:geometricPrecision"
       id="g687">
      <text
         x="-8"
         xml:space="preserve"
         y="5.5"
         style="stroke:none"
         id="text685">2</text>
    </g>
    <g
       transform="matrix(0.26458333,0,0,0.26458333,69.460074,103.02357)"
       style="font-style:normal;font-weight:normal;font-size:13.3333px;font-family:SansSerif;color-interpolation:linearRGB;fill:#262626;fill-opacity:1;stroke:#262626;stroke-width:1;stroke-linecap:square;stroke-linejoin:miter;stroke-miterlimit:10;stroke-dasharray:none;stroke-dashoffset:0;stroke-opacity:1;color-rendering:optimizeQuality;image-rendering:optimizeQuality;shape-rendering:auto;text-rendering:geometricPrecision"
       id="g691">
      <text
         x="-8"
         xml:space="preserve"
         y="5.5"
         style="stroke:none"
         id="text689">3</text>
    </g>
    <g
       transform="matrix(0.26458333,0,0,0.26458333,69.460074,92.546068)"
       style="font-style:normal;font-weight:normal;font-size:13.3333px;font-family:SansSerif;color-interpolation:linearRGB;fill:#262626;fill-opacity:1;stroke:#262626;stroke-width:1;stroke-linecap:square;stroke-linejoin:miter;stroke-miterlimit:10;stroke-dasharray:none;stroke-dashoffset:0;stroke-opacity:1;color-rendering:optimizeQuality;image-rendering:optimizeQuality;shape-rendering:auto;text-rendering:geometricPrecision"
       id="g695">
      <text
         x="-8"
         xml:space="preserve"
         y="5.5"
         style="stroke:none"
         id="text693">4</text>
    </g>
    <g
       transform="matrix(0,-0.26458333,0.26458333,0,65.452113,126.59789)"
       style="font-style:normal;font-weight:normal;font-size:30px;font-family:SansSerif;color-interpolation:linearRGB;fill:#262626;fill-opacity:1;stroke:#262626;stroke-width:1;stroke-linecap:square;stroke-linejoin:miter;stroke-miterlimit:10;stroke-dasharray:none;stroke-dashoffset:0;stroke-opacity:1;color-rendering:optimizeQuality;image-rendering:optimizeQuality;shape-rendering:auto;text-rendering:geometricPrecision"
       id="g699">
      <text
         x="-83.5"
         xml:space="preserve"
         y="-7"
         style="stroke:none"
         id="text697">Voltage (uV)</text>
    </g>
    <g
       transform="matrix(0.26458333,0,0,0.26458333,96.486843,86.116688)"
       style="font-style:normal;font-weight:bold;font-size:30px;font-family:SansSerif;color-interpolation:linearRGB;fill:#000000;fill-opacity:1;stroke:#000000;stroke-width:1;stroke-linecap:square;stroke-linejoin:miter;stroke-miterlimit:10;stroke-dasharray:none;stroke-dashoffset:0;stroke-opacity:1;color-rendering:optimizeQuality;image-rendering:optimizeQuality;shape-rendering:auto;text-rendering:geometricPrecision"
       id="g703">
      <text
         x="-84.5"
         xml:space="preserve"
         y="-7"
         style="stroke:none"
         id="text701">Bash Leads</text>
    </g>
    <g
       style="font-style:normal;font-weight:normal;font-size:12px;font-family:Dialog;color-interpolation:sRGB;fill:#0000ff;fill-opacity:0.2;stroke:#0000ff;stroke-width:1;stroke-linecap:square;stroke-linejoin:miter;stroke-miterlimit:10;stroke-dasharray:none;stroke-dashoffset:0;stroke-opacity:0.2;color-rendering:optimizeSpeed;image-rendering:optimizeSpeed;shape-rendering:crispEdges;text-rendering:optimizeSpeed"
       id="g707"
       transform="matrix(0.26458333,0,0,0.26458333,4.4117601,56.615647)">
      <path
         style="stroke:none"
         d="m 259.6587,319.7547 1.6098,0.5075 1.6098,-6.6122 1.6098,-6.4132 1.6098,-3.7218 1.6098,-1.9693 1.6098,2.2381 1.6097,3.2268 1.6098,-2.3906 1.6098,-0.2432 1.6098,3.9684 1.6098,-1.9442 1.6098,-8.3287 1.6098,-7.4725 1.6098,-7.0322 1.6098,-8.0681 1.6097,-2.8769 1.6098,0.4285 1.6098,1.3335 1.6098,-1.2984 1.6098,-6.6581 1.6098,-7.6039 1.6098,-7.8765 1.6098,-7.9807 1.6098,-10.0393 1.6097,-6.6819 1.6098,-4.3118 1.6098,-4.4 1.6098,3.3676 1.6098,3.9283 1.6098,6.2579 1.6098,9.1932 1.6098,9.2047 1.6098,7.0402 1.6097,5.6392 1.6098,8.3878 1.6098,6.0681 1.6098,4.5761 1.6098,4.4999 1.6098,0.0533 1.6098,0.7826 1.6098,2.9437 1.6098,2.7611 1.6097,-1.2705 1.6098,-9.8695 1.6098,-8.7162 1.6098,-5.0588 1.6098,-7.5645 1.6098,-3.3818 1.6098,-2.5179 1.6098,-4.1423 1.6098,4.4962 1.6097,6.5526 1.6098,5.3854 1.6098,3.0382 1.6098,-0.2759 1.6098,1.2359 1.6098,-0.5594 1.6098,6.5288 1.6098,8.4259 1.6098,6.4835 1.6097,8.0568 1.6098,5.5112 1.6098,7.6495 1.6098,7.2585 1.6098,5.6745 1.6098,6.8929 1.6098,5.9571 1.6098,1.6191 1.6098,1.6561 1.6098,3.4432 1.6097,1.6605 1.6098,-1.2429 1.6098,-8.0738 1.6098,-6.8273 1.6098,-4.4474 1.6098,-6.9115 1.6098,-0.1588 1.6098,-3.8395 1.6098,-6.271 1.6097,-2.746 1.6098,-5.8003 1.6098,0.5113 1.6098,1.0787 1.6098,-1.4754 1.6098,-4.0285 1.6098,-7.7475 1.6098,-7.2397 1.6098,-9.1952 1.6097,-7.8078 1.6098,-6.718 1.6098,-6.7867 1.6098,-4.4943 1.6098,2.4259 1.6098,3.1868 1.6098,3.0535 1.6098,6.3457 1.6098,2.2579 1.6097,1.7317 1.6098,2.4728 1.6098,0.601 1.6098,2.9816 1.6098,6.9367 1.6098,4.5896 1.6098,0.8481 1.6098,-2.3918 1.6098,-6.7812 1.6097,-3.7652 1.6098,-4.4246 1.6098,-8.5382 1.6098,-7.7816 1.6098,-5.5176 1.6098,-4.735 1.6098,-7.4179 1.6098,-8.5999 1.6098,-8.7492 1.2388,-4.5672 v -6.0163 -20.1646 l -1.2388,4.6349 -1.6098,8.537 -1.6098,8.9733 -1.6098,7.5771 -1.6098,4.4229 -1.6098,4.8355 -1.6098,8.3819 -1.6098,8.6436 -1.6098,4.1876 -1.6097,3.8798 -1.6098,5.9725 -1.6098,3.3201 -1.6098,0.5095 -1.6098,-3.162 -1.6098,-6.9515 -1.6098,-3.1108 -1.6098,0.3184 -1.6098,-2.4514 -1.6097,-0.6489 -1.6098,-1.9888 -1.6098,-5.7711 -1.6098,-1.5364 -1.6098,-2.5161 -1.6098,-2.736 -1.6098,3.2769 -1.6098,5.2785 -1.6098,6.3948 -1.6097,7.9232 -1.6098,9.825 -1.6098,7.0053 -1.6098,7.1049 -1.6098,5.4168 -1.6098,2.046 -1.6098,0.5566 -1.6098,-0.0414 -1.6098,4.7744 -1.6097,-0.7652 -1.6098,7.008 -1.6098,8.0811 -1.6098,0.003 -1.6098,6.7674 -1.6098,4.646 -1.6098,7.0719 -1.6098,7.2283 -1.6098,-0.3888 -1.6097,-2.144 -1.6098,-2.1376 -1.6098,-1.3503 -1.6098,-2.6008 -1.6098,-5.924 -1.6098,-7.259 -1.6098,-6.8603 -1.6098,-7.188 -1.6098,-6.9102 -1.6098,-5.6534 -1.6097,-8.6635 -1.6098,-7.1352 -1.6098,-8.5734 -1.6098,-6.9774 -1.6098,-1.0472 -1.6098,-2.2869 -1.6098,-0.2418 -1.6098,-3.1505 -1.6098,-4.8188 -1.6097,-4.2599 -1.6098,-3.423 -1.6098,3.8932 -1.6098,3.3791 -1.6098,2.6902 -1.6098,7.5934 -1.6098,6.9429 -1.6098,8.8616 -1.6098,8.9435 -1.6097,1.2707 -1.6098,-3.2295 -1.6098,-4.0089 -1.6098,-0.513 -1.6098,0.2829 -1.6098,-5.203 -1.6098,-4.7624 -1.6098,-5.7053 -1.6098,-9.1394 -1.6097,-6.4377 -1.6098,-7.6 -1.6098,-9.9429 -1.6098,-9.2265 -1.6098,-6.0497 -1.6098,-3.764 -1.6098,-2.0196 -1.6098,5.4016 -1.6098,5.0804 -1.6097,7.4943 -1.6098,10.134 -1.6098,7.9955 -1.6098,9.3911 -1.6098,7.4323 -1.6098,5.2049 -1.6098,3.3829 -1.6098,-0.035 -1.6098,-1.2676 -1.6097,-1.2619 -1.6098,6.9953 -1.6098,11.7937 -1.6098,9.3678 -1.6098,7.9778 -1.6098,0.9617 -1.6098,-3.9804 -1.6098,0.2593 -1.6098,1.7829 -1.6097,-3.1397 -1.6098,-0.8645 -1.6098,2.921 -1.6098,4.7584 -1.6098,6.5969 -1.6098,5.9826 -1.6098,-0.3238 -1.6097,-4.6158 -1.6099,-0.4187 -1.6097,0.7068 -1.6098,-0.132 -1.6098,-0.2094 L 250,296.7134 v 19.2257 l 1.6098,1.5329 1.6098,0.3519 1.6098,0.3535 1.6097,-2.3127 1.6099,-0.9533 z"
         id="path705" />
    </g>
    <g
       style="font-style:normal;font-weight:normal;font-size:12px;font-family:Dialog;color-interpolation:linearRGB;fill:#8c8cff;fill-opacity:1;stroke:#8c8cff;stroke-width:0.8333;stroke-linecap:butt;stroke-linejoin:round;stroke-miterlimit:10;stroke-dasharray:none;stroke-dashoffset:0;stroke-opacity:1;color-rendering:optimizeQuality;image-rendering:optimizeQuality;shape-rendering:auto;text-rendering:geometricPrecision"
       id="g715"
       transform="matrix(0.26458333,0,0,0.26458333,4.4117601,56.615647)">
      <path
         d="m 250,315.9391 1.6098,1.5329 1.6098,0.3519 1.6098,0.3535 1.6097,-2.3127 1.6099,-0.9533 1.6097,4.8433 1.6098,0.5075 1.6098,-6.6122 1.6098,-6.4132 1.6098,-3.7218 1.6098,-1.9693 1.6098,2.2381 1.6097,3.2268 1.6098,-2.3906 1.6098,-0.2432 1.6098,3.9684 1.6098,-1.9442 1.6098,-8.3287 1.6098,-7.4725 1.6098,-7.0322 1.6098,-8.0681 1.6097,-2.8769 1.6098,0.4285 1.6098,1.3335 1.6098,-1.2984 1.6098,-6.6581 1.6098,-7.6039 1.6098,-7.8765 1.6098,-7.9807 1.6098,-10.0393 1.6097,-6.6819 1.6098,-4.3118 1.6098,-4.4 1.6098,3.3676 1.6098,3.9283 1.6098,6.2579 1.6098,9.1932 1.6098,9.2047 1.6098,7.0402 1.6097,5.6392 1.6098,8.3878 1.6098,6.0681 1.6098,4.5761 1.6098,4.4999 1.6098,0.0533 1.6098,0.7826 1.6098,2.9437 1.6098,2.7611 1.6097,-1.2705 1.6098,-9.8695 1.6098,-8.7162 1.6098,-5.0588 1.6098,-7.5645 1.6098,-3.3818 1.6098,-2.5179 1.6098,-4.1423 1.6098,4.4962 1.6097,6.5526 1.6098,5.3854 1.6098,3.0382 1.6098,-0.2759 1.6098,1.2359 1.6098,-0.5594 1.6098,6.5288 1.6098,8.4259 1.6098,6.4835 1.6097,8.0568 1.6098,5.5112 1.6098,7.6495 1.6098,7.2585 1.6098,5.6745 1.6098,6.8929 1.6098,5.9571 1.6098,1.6191 1.6098,1.6561 1.6098,3.4432 1.6097,1.6605 1.6098,-1.2429 1.6098,-8.0738 1.6098,-6.8273 1.6098,-4.4474 1.6098,-6.9115 1.6098,-0.1588 1.6098,-3.8395 1.6098,-6.271 1.6097,-2.746 1.6098,-5.8003 1.6098,0.5113 1.6098,1.0787 1.6098,-1.4754 1.6098,-4.0285 1.6098,-7.7475 1.6098,-7.2397 1.6098,-9.1952 1.6097,-7.8078 1.6098,-6.718 1.6098,-6.7867 1.6098,-4.4943 1.6098,2.4259 1.6098,3.1868 1.6098,3.0535 1.6098,6.3457 1.6098,2.2579 1.6097,1.7317 1.6098,2.4728 1.6098,0.601 1.6098,2.9816 1.6098,6.9367 1.6098,4.5896 1.6098,0.8481 1.6098,-2.3918 1.6098,-6.7812 1.6097,-3.7652 1.6098,-4.4246 1.6098,-8.5382 1.6098,-7.7816 1.6098,-5.5176 1.6098,-4.735 1.6098,-7.4179 1.6098,-8.5999 1.6098,-8.7492 1.2388,-4.5672"
         style="fill:none;fill-rule:evenodd"
         id="path709" />
      <path
         d="m 250,296.7134 1.6098,3.0099 1.6098,0.2094 1.6098,0.132 1.6097,-0.7068 1.6099,0.4187 1.6097,4.6158 1.6098,0.3238 1.6098,-5.9826 1.6098,-6.5969 1.6098,-4.7584 1.6098,-2.921 1.6098,0.8645 1.6097,3.1397 1.6098,-1.7829 1.6098,-0.2593 1.6098,3.9804 1.6098,-0.9617 1.6098,-7.9778 1.6098,-9.3678 1.6098,-11.7937 1.6098,-6.9953 1.6097,1.2619 1.6098,1.2676 1.6098,0.035 1.6098,-3.3829 1.6098,-5.2049 1.6098,-7.4323 1.6098,-9.3911 1.6098,-7.9955 1.6098,-10.134 1.6097,-7.4943 1.6098,-5.0804 1.6098,-5.4016 1.6098,2.0196 1.6098,3.764 1.6098,6.0497 1.6098,9.2265 1.6098,9.9429 1.6098,7.6 1.6097,6.4377 1.6098,9.1394 1.6098,5.7053 1.6098,4.7624 1.6098,5.203 1.6098,-0.2829 1.6098,0.513 1.6098,4.0089 1.6098,3.2295 1.6097,-1.2707 1.6098,-8.9435 1.6098,-8.8616 1.6098,-6.9429 1.6098,-7.5934 1.6098,-2.6902 1.6098,-3.3791 1.6098,-3.8932 1.6098,3.423 1.6097,4.2599 1.6098,4.8188 1.6098,3.1505 1.6098,0.2418 1.6098,2.2869 1.6098,1.0472 1.6098,6.9774 1.6098,8.5734 1.6098,7.1352 1.6097,8.6635 1.6098,5.6534 1.6098,6.9102 1.6098,7.188 1.6098,6.8603 1.6098,7.259 1.6098,5.924 1.6098,2.6008 1.6098,1.3503 1.6098,2.1376 1.6097,2.144 1.6098,0.3888 1.6098,-7.2283 1.6098,-7.0719 1.6098,-4.646 1.6098,-6.7674 1.6098,-0.003 1.6098,-8.0811 1.6098,-7.008 1.6097,0.7652 1.6098,-4.7744 1.6098,0.0414 1.6098,-0.5566 1.6098,-2.046 1.6098,-5.4168 1.6098,-7.1049 1.6098,-7.0053 1.6098,-9.825 1.6097,-7.9232 1.6098,-6.3948 1.6098,-5.2785 1.6098,-3.2769 1.6098,2.736 1.6098,2.5161 1.6098,1.5364 1.6098,5.7711 1.6098,1.9888 1.6097,0.6489 1.6098,2.4514 1.6098,-0.3184 1.6098,3.1108 1.6098,6.9515 1.6098,3.162 1.6098,-0.5095 1.6098,-3.3201 1.6098,-5.9725 1.6097,-3.8798 1.6098,-4.1876 1.6098,-8.6436 1.6098,-8.3819 1.6098,-4.8355 1.6098,-4.4229 1.6098,-7.5771 1.6098,-8.9733 1.6098,-8.537 1.2388,-4.6349"
         style="fill:none;fill-rule:evenodd"
         id="path711" />
      <path
         d="m 250,306.3263 1.6098,2.2713 1.6098,0.2807 1.6098,0.2427 1.6097,-1.5097 1.6099,-0.2673 1.6097,4.7295 1.6098,0.4157 1.6098,-6.2974 1.6098,-6.505 1.6098,-4.2402 1.6098,-2.4451 1.6098,1.5513 1.6097,3.1833 1.6098,-2.0868 1.6098,-0.2513 1.6098,3.9745 1.6098,-1.453 1.6098,-8.1533 1.6098,-8.4201 1.6098,-9.413 1.6098,-7.5316 1.6097,-0.8076 1.6098,0.8481 1.6098,0.6843 1.6098,-2.3407 1.6098,-5.9315 1.6098,-7.518 1.6098,-8.6339 1.6098,-7.9881 1.6098,-10.0866 1.6097,-7.0881 1.6098,-4.6962 1.6098,-4.9007 1.6098,2.6936 1.6098,3.8461 1.6098,6.1538 1.6098,9.2099 1.6098,9.5737 1.6098,7.3202 1.6097,6.0384 1.6098,8.7636 1.6098,5.8867 1.6098,4.6692 1.6098,4.8515 1.6098,-0.1148 1.6098,0.6478 1.6098,3.4763 1.6098,2.9953 1.6097,-1.2706 1.6098,-9.4065 1.6098,-8.7889 1.6098,-6.0009 1.6098,-7.5789 1.6098,-3.036 1.6098,-2.9485 1.6098,-4.0178 1.6098,3.9597 1.6097,5.4062 1.6098,5.1021 1.6098,3.0943 1.6098,-0.017 1.6098,1.7614 1.6098,0.2439 1.6098,6.7531 1.6098,8.4996 1.6098,6.8094 1.6097,8.3601 1.6098,5.5823 1.6098,7.2799 1.6098,7.2232 1.6098,6.2675 1.6098,7.0759 1.6098,5.9406 1.6098,2.1099 1.6098,1.5032 1.6098,2.7904 1.6097,1.9022 1.6098,-0.427 1.6098,-7.651 1.6098,-6.9497 1.6098,-4.5466 1.6098,-6.8395 1.6098,-0.0811 1.6098,-5.9604 1.6098,-6.6394 1.6097,-0.9905 1.6098,-5.2873 1.6098,0.2763 1.6098,0.261 1.6098,-1.7606 1.6098,-4.7227 1.6098,-7.4261 1.6098,-7.1226 1.6098,-9.51 1.6097,-7.8655 1.6098,-6.5565 1.6098,-6.0325 1.6098,-3.8856 1.6098,2.5809 1.6098,2.8514 1.6098,2.295 1.6098,6.0584 1.6098,2.1233 1.6097,1.1904 1.6098,2.4621 1.6098,0.1412 1.6098,3.0462 1.6098,6.9442 1.6098,3.8757 1.6098,0.1693 1.6098,-2.8559 1.6098,-6.3769 1.6097,-3.8224 1.6098,-4.3062 1.6098,-8.5908 1.6098,-8.0818 1.6098,-5.1765 1.6098,-4.579 1.6098,-7.4975 1.6098,-8.7866 1.6098,-8.6431 1.2388,-4.6011"
         style="fill:none;fill-rule:evenodd;stroke:#0000ff"
         id="path713" />
    </g>
    <g
       style="font-style:normal;font-weight:normal;font-size:12px;font-family:Dialog;color-interpolation:sRGB;fill:#00ff00;fill-opacity:0.2;stroke:#00ff00;stroke-width:1;stroke-linecap:square;stroke-linejoin:miter;stroke-miterlimit:10;stroke-dasharray:none;stroke-dashoffset:0;stroke-opacity:0.2;color-rendering:optimizeSpeed;image-rendering:optimizeSpeed;shape-rendering:crispEdges;text-rendering:optimizeSpeed"
       id="g719"
       transform="matrix(0.26458333,0,0,0.26458333,4.4117601,56.615647)">
      <path
         style="stroke:none"
         d="m 388.4418,281.5427 -1.6097,2.1662 -1.6098,8.3561 -1.6098,5.8572 -1.6098,-0.0174 -1.6098,0.091 -1.6098,2.4463 -1.6098,3.1765 -1.6098,1.1586 -1.6098,1.5658 -1.6097,1.9978 -1.6098,0.2258 -1.6098,2.4684 -1.6098,1.9706 -1.6098,-1.6537 -1.6098,-4.7 -1.6098,-8.4618 -1.6098,-8.2679 -1.6098,-8.4059 -1.6098,-8.3647 -1.6097,-7.6504 -1.6098,-10.7602 -1.6098,-7.5179 -1.6098,-4.7175 -1.6098,-5.3579 -1.6098,-1.3753 -1.6098,1.7023 -1.6098,-2.5333 -1.6098,-4.4575 -1.6097,-6.0051 -1.6098,-6.0539 -1.6098,0.8885 -1.6098,3.0476 -1.6098,6.2914 -1.6098,8.0026 -1.6098,6.6544 -1.6098,8.6218 -1.6098,3.9422 -1.6097,1.4522 -1.6098,1.4778 -1.6098,-0.3787 -1.6098,2.4926 -1.6098,1.7147 -1.6098,-5.3642 -1.6098,-5.0241 -1.6098,-6.7583 -1.6098,-5.939 -1.6097,-5.8873 -1.6098,-10.2533 -1.6098,-7.4758 -1.6098,-10.5503 -1.6098,-5.3387 -1.6098,0.5192 -1.6098,-2.4547 -1.6098,1.0211 -1.6098,3.6017 -1.6097,8.8678 -1.6098,12.6449 -1.6098,12.862 -1.6098,9.5814 -1.6098,6.1113 -1.6098,4.655 -1.6098,-1.9039 -1.6098,0.1843 -1.6098,-1.7031 -1.6097,-2.5297 -1.6098,9.6308 -1.6098,9.0136 -1.6098,7.7469 -1.6098,6.0672 -1.6098,1.6084 -1.6098,3.4818 -1.6098,0.8174 -1.6098,2.395 -1.6097,-1.5372 -1.6098,-0.158 -1.6098,3.033 -1.6098,-0.4721 -1.6098,-0.1694 -1.6098,-5.798 -1.6098,-6.2812 -1.6097,-0.4004 -1.6099,-0.8914 -1.6097,-2.0717 -1.6098,-5.3679 -1.6098,-3.8249 L 250,267.5179 v 14.3484 l 1.6098,0.6703 1.6098,2.6822 1.6098,3.7254 1.6097,1.7081 1.6099,1.7116 1.6097,1.6925 1.6098,8.0515 1.6098,7.057 1.6098,0.1111 1.6098,0.708 1.6098,-2.8681 1.6098,0.0376 1.6097,0.6789 1.6098,-2.4229 1.6098,-0.9239 1.6098,-2.7449 1.6098,-1.0211 1.6098,-4.1945 1.6098,-6.1594 1.6098,-6.2448 1.6098,-9.8775 1.6097,-1.0883 1.6098,0.2191 1.6098,-1.5002 1.6098,3.0572 1.6098,-3.4788 1.6098,-7.019 1.6098,-10.5936 1.6098,-13.1084 1.6098,-13.6107 1.6097,-8.6305 1.6098,-3.5168 1.6098,-0.2722 1.6098,3.3334 1.6098,-0.4391 1.6098,6.5718 1.6098,12.2766 1.6098,8.139 1.6098,11.1995 1.6097,5.7078 1.6098,5.15 1.6098,6.4458 1.6098,5.6662 1.6098,5.0442 1.6098,-2.3818 1.6098,-2.0259 1.6098,1.1518 1.6098,-3.4703 1.6097,-1.4168 1.6098,-3.4432 1.6098,-8.9186 1.6098,-7.151 1.6098,-8.3124 1.6098,-7.9434 1.6098,-3.5741 1.6098,-0.6393 1.6098,5.9751 1.6097,4.9154 1.6098,3.9938 1.6098,2.8253 1.6098,0.2879 1.6098,2.7352 1.6098,5.9851 1.6098,6.2676 1.6098,8.4175 1.6098,10.9262 1.6097,8.6696 1.6098,8.2952 1.6098,8.3696 1.6098,8.729 1.6098,8.0314 1.6098,4.6 1.6098,0.8433 1.6098,-3.559 1.6098,-3.3217 1.6098,-0.0431 1.6097,-1.8818 1.6098,-2.3088 1.6098,-0.1626 1.6098,-4.0988 1.6098,-3.9056 1.6098,-1.4281 1.6098,-0.0233 1.6098,-6.6228 1.6098,-9.0156 1.6097,-1.6607 1.6098,-0.0579 1.6098,-0.4952 1.6098,-0.6197 1.6098,0.6545 1.6098,-2.2772 1.6098,-6.5772 1.6098,-5.6466 1.6098,-2.2524 1.6097,-8.6595 1.6098,-8.8107 1.6098,-5.1047 1.6098,-7.9717 1.6098,-7.641 1.6098,-4.8309 1.6098,-3.5236 1.6098,2.7725 1.6098,6.0023 1.6097,2.5045 1.6098,3.8362 1.6098,3.5471 1.6098,4.9166 1.6098,5.8761 1.6098,1.1173 1.6098,2.3195 1.6098,-1.3597 1.6098,-2.4837 1.6097,0.1146 1.6098,-2.0309 1.6098,-2.2166 1.6098,-6.1618 1.6098,-5.5899 1.6098,-8.113 1.6098,-11.4895 1.6098,-6.441 1.6098,-2.4572 1.2388,-1.7495 v -4.7592 -15.8054 l -1.2388,1.6574 -1.6098,1.1389 -1.6098,5.4751 -1.6098,11.2013 -1.6098,9.07 -1.6098,6.2626 -1.6098,6.7169 -1.6098,1.8607 -1.6098,1.2736 -1.6097,-0.1973 -1.6098,1.3435 -1.6098,1.1639 -1.6098,-2.4765 -1.6098,-1.5742 -1.6098,-4.6518 -1.6098,-4.2248 -1.6098,-4.7089 -1.6098,-3.0481 -1.6097,-0.4753 -1.6098,-3.9247 -1.6098,-1.4723 -1.6098,3.2377 -1.6098,4.0811 -1.6098,7.7501 -1.6098,7.8684 -1.6098,5.1875 -1.6098,8.7976 -1.6097,8.0949 -1.6098,1.536 -1.6098,5.3287 -1.6098,6.4436 -1.6098,2.3395 -1.6098,0.8628 -1.6098,1.609 -1.6098,2.0507 z"
         id="path717" />
    </g>
    <g
       style="font-style:normal;font-weight:normal;font-size:12px;font-family:Dialog;color-interpolation:linearRGB;fill:#8cff8c;fill-opacity:1;stroke:#8cff8c;stroke-width:0.8333;stroke-linecap:butt;stroke-linejoin:round;stroke-miterlimit:10;stroke-dasharray:none;stroke-dashoffset:0;stroke-opacity:1;color-rendering:optimizeQuality;image-rendering:optimizeQuality;shape-rendering:auto;text-rendering:geometricPrecision"
       id="g727"
       transform="matrix(0.26458333,0,0,0.26458333,4.4117601,56.615647)">
      <path
         d="m 250,281.8663 1.6098,0.6703 1.6098,2.6822 1.6098,3.7254 1.6097,1.7081 1.6099,1.7116 1.6097,1.6925 1.6098,8.0515 1.6098,7.057 1.6098,0.1111 1.6098,0.708 1.6098,-2.8681 1.6098,0.0376 1.6097,0.6789 1.6098,-2.4229 1.6098,-0.9239 1.6098,-2.7449 1.6098,-1.0211 1.6098,-4.1945 1.6098,-6.1594 1.6098,-6.2448 1.6098,-9.8775 1.6097,-1.0883 1.6098,0.2191 1.6098,-1.5002 1.6098,3.0572 1.6098,-3.4788 1.6098,-7.019 1.6098,-10.5936 1.6098,-13.1084 1.6098,-13.6107 1.6097,-8.6305 1.6098,-3.5168 1.6098,-0.2722 1.6098,3.3334 1.6098,-0.4391 1.6098,6.5718 1.6098,12.2766 1.6098,8.139 1.6098,11.1995 1.6097,5.7078 1.6098,5.15 1.6098,6.4458 1.6098,5.6662 1.6098,5.0442 1.6098,-2.3818 1.6098,-2.0259 1.6098,1.1518 1.6098,-3.4703 1.6097,-1.4168 1.6098,-3.4432 1.6098,-8.9186 1.6098,-7.151 1.6098,-8.3124 1.6098,-7.9434 1.6098,-3.5741 1.6098,-0.6393 1.6098,5.9751 1.6097,4.9154 1.6098,3.9938 1.6098,2.8253 1.6098,0.2879 1.6098,2.7352 1.6098,5.9851 1.6098,6.2676 1.6098,8.4175 1.6098,10.9262 1.6097,8.6696 1.6098,8.2952 1.6098,8.3696 1.6098,8.729 1.6098,8.0314 1.6098,4.6 1.6098,0.8433 1.6098,-3.559 1.6098,-3.3217 1.6098,-0.0431 1.6097,-1.8818 1.6098,-2.3088 1.6098,-0.1626 1.6098,-4.0988 1.6098,-3.9056 1.6098,-1.4281 1.6098,-0.0233 1.6098,-6.6228 1.6098,-9.0156 1.6097,-1.6607 1.6098,-0.0579 1.6098,-0.4952 1.6098,-0.6197 1.6098,0.6545 1.6098,-2.2772 1.6098,-6.5772 1.6098,-5.6466 1.6098,-2.2524 1.6097,-8.6595 1.6098,-8.8107 1.6098,-5.1047 1.6098,-7.9717 1.6098,-7.641 1.6098,-4.8309 1.6098,-3.5236 1.6098,2.7725 1.6098,6.0023 1.6097,2.5045 1.6098,3.8362 1.6098,3.5471 1.6098,4.9166 1.6098,5.8761 1.6098,1.1173 1.6098,2.3195 1.6098,-1.3597 1.6098,-2.4837 1.6097,0.1146 1.6098,-2.0309 1.6098,-2.2166 1.6098,-6.1618 1.6098,-5.5899 1.6098,-8.113 1.6098,-11.4895 1.6098,-6.441 1.6098,-2.4572 1.2388,-1.7495"
         style="fill:none;fill-rule:evenodd"
         id="path721" />
      <path
         d="m 250,267.5179 1.6098,0.8023 1.6098,3.8249 1.6098,5.3679 1.6097,2.0717 1.6099,0.8914 1.6097,0.4004 1.6098,6.2812 1.6098,5.798 1.6098,0.1694 1.6098,0.4721 1.6098,-3.033 1.6098,0.158 1.6097,1.5372 1.6098,-2.395 1.6098,-0.8174 1.6098,-3.4818 1.6098,-1.6084 1.6098,-6.0672 1.6098,-7.7469 1.6098,-9.0136 1.6098,-9.6308 1.6097,2.5297 1.6098,1.7031 1.6098,-0.1843 1.6098,1.9039 1.6098,-4.655 1.6098,-6.1113 1.6098,-9.5814 1.6098,-12.862 1.6098,-12.6449 1.6097,-8.8678 1.6098,-3.6017 1.6098,-1.0211 1.6098,2.4547 1.6098,-0.5192 1.6098,5.3387 1.6098,10.5503 1.6098,7.4758 1.6098,10.2533 1.6097,5.8873 1.6098,5.939 1.6098,6.7583 1.6098,5.0241 1.6098,5.3642 1.6098,-1.7147 1.6098,-2.4926 1.6098,0.3787 1.6098,-1.4778 1.6097,-1.4522 1.6098,-3.9422 1.6098,-8.6218 1.6098,-6.6544 1.6098,-8.0026 1.6098,-6.2914 1.6098,-3.0476 1.6098,-0.8885 1.6098,6.0539 1.6097,6.0051 1.6098,4.4575 1.6098,2.5333 1.6098,-1.7023 1.6098,1.3753 1.6098,5.3579 1.6098,4.7175 1.6098,7.5179 1.6098,10.7602 1.6097,7.6504 1.6098,8.3647 1.6098,8.4059 1.6098,8.2679 1.6098,8.4618 1.6098,4.7 1.6098,1.6537 1.6098,-1.9706 1.6098,-2.4684 1.6098,-0.2258 1.6097,-1.9978 1.6098,-1.5658 1.6098,-1.1586 1.6098,-3.1765 1.6098,-2.4463 1.6098,-0.091 1.6098,0.0174 1.6098,-5.8572 1.6098,-8.3561 1.6097,-2.1662 1.6098,0.0971 1.6098,-2.0507 1.6098,-1.609 1.6098,-0.8628 1.6098,-2.3395 1.6098,-6.4436 1.6098,-5.3287 1.6098,-1.536 1.6097,-8.0949 1.6098,-8.7976 1.6098,-5.1875 1.6098,-7.8684 1.6098,-7.7501 1.6098,-4.0811 1.6098,-3.2377 1.6098,1.4723 1.6098,3.9247 1.6097,0.4753 1.6098,3.0481 1.6098,4.7089 1.6098,4.2248 1.6098,4.6518 1.6098,1.5742 1.6098,2.4765 1.6098,-1.1639 1.6098,-1.3435 1.6097,0.1973 1.6098,-1.2736 1.6098,-1.8607 1.6098,-6.7169 1.6098,-6.2626 1.6098,-9.07 1.6098,-11.2013 1.6098,-5.4751 1.6098,-1.1389 1.2388,-1.6574"
         style="fill:none;fill-rule:evenodd"
         id="path723" />
      <path
         d="m 250,274.6921 1.6098,0.7363 1.6098,3.2536 1.6098,4.5466 1.6097,1.89 1.6099,1.3014 1.6097,1.0464 1.6098,7.1664 1.6098,6.4275 1.6098,0.1402 1.6098,0.5901 1.6098,-2.9506 1.6098,0.0979 1.6097,1.108 1.6098,-2.4089 1.6098,-0.8707 1.6098,-3.1134 1.6098,-1.3147 1.6098,-5.1309 1.6098,-6.9531 1.6098,-7.6292 1.6098,-9.7541 1.6097,0.7207 1.6098,0.9611 1.6098,-0.8423 1.6098,2.4805 1.6098,-4.0669 1.6098,-6.5651 1.6098,-10.0875 1.6098,-12.9852 1.6098,-13.1278 1.6097,-8.7492 1.6098,-3.5592 1.6098,-0.6466 1.6098,2.894 1.6098,-0.4791 1.6098,5.9552 1.6098,11.4135 1.6098,7.8074 1.6098,10.7264 1.6097,5.7975 1.6098,5.5445 1.6098,6.6021 1.6098,5.3451 1.6098,5.2042 1.6098,-2.0482 1.6098,-2.2593 1.6098,0.7653 1.6098,-2.4741 1.6097,-1.4345 1.6098,-3.6927 1.6098,-8.7702 1.6098,-6.9027 1.6098,-8.1575 1.6098,-7.1174 1.6098,-3.3108 1.6098,-0.764 1.6098,6.0146 1.6097,5.4602 1.6098,4.2257 1.6098,2.6793 1.6098,-0.7072 1.6098,2.0552 1.6098,5.6715 1.6098,5.4925 1.6098,7.9677 1.6098,10.8433 1.6097,8.1599 1.6098,8.33 1.6098,8.3877 1.6098,8.4985 1.6098,8.2466 1.6098,4.65 1.6098,1.2485 1.6098,-2.7648 1.6098,-2.8951 1.6098,-0.1344 1.6097,-1.9398 1.6098,-1.9373 1.6098,-0.6606 1.6098,-3.6377 1.6098,-3.1759 1.6098,-0.7596 1.6098,-0.003 1.6098,-6.24 1.6098,-8.6858 1.6097,-1.9135 1.6098,0.0196 1.6098,-1.2729 1.6098,-1.1144 1.6098,-0.1041 1.6098,-2.3084 1.6098,-6.5104 1.6098,-5.4877 1.6098,-1.8941 1.6097,-8.3773 1.6098,-8.8041 1.6098,-5.1461 1.6098,-7.9201 1.6098,-7.6955 1.6098,-4.456 1.6098,-3.3806 1.6098,2.1223 1.6098,4.9636 1.6097,1.4898 1.6098,3.4422 1.6098,4.128 1.6098,4.5707 1.6098,5.264 1.6098,1.3457 1.6098,2.398 1.6098,-1.2618 1.6098,-1.9136 1.6097,0.156 1.6098,-1.6523 1.6098,-2.0386 1.6098,-6.4394 1.6098,-5.9263 1.6098,-8.5915 1.6098,-11.3453 1.6098,-5.9581 1.6098,-1.798 1.2388,-1.7035"
         style="fill:none;fill-rule:evenodd;stroke:#00ff00"
         id="path725" />
    </g>
    <g
       style="font-style:normal;font-weight:normal;font-size:12px;font-family:Dialog;color-interpolation:linearRGB;fill:#000000;fill-opacity:0.702;stroke:#000000;stroke-width:3.3333;stroke-linecap:butt;stroke-linejoin:bevel;stroke-miterlimit:1;stroke-dasharray:12, 12;stroke-dashoffset:0;stroke-opacity:0.702;color-rendering:optimizeQuality;image-rendering:optimizeQuality;shape-rendering:auto;text-rendering:geometricPrecision"
       id="g733"
       transform="matrix(0.26458333,0,0,0.26458333,4.4117601,56.615647)">
      <line
         y2="116"
         style="fill:none"
         x1="260.3158"
         x2="260.3158"
         y1="413"
         id="line729" />
      <line
         y2="116"
         style="fill:none"
         x1="363.47369"
         x2="363.47369"
         y1="413"
         id="line731" />
    </g>
    <g
       transform="matrix(0.26458333,0,0,0.26458333,135.00764,172.19194)"
       style="font-style:normal;font-weight:normal;font-size:40px;font-family:SansSerif;color-interpolation:linearRGB;fill:#262626;fill-opacity:1;stroke:#262626;stroke-width:1;stroke-linecap:square;stroke-linejoin:miter;stroke-miterlimit:10;stroke-dasharray:none;stroke-dashoffset:0;stroke-opacity:1;color-rendering:optimizeQuality;image-rendering:optimizeQuality;shape-rendering:auto;text-rendering:geometricPrecision"
       id="g1669">
      <text
         x="-379.78775"
         xml:space="preserve"
         y="31.924904"
         style="font-style:normal;font-variant:normal;font-weight:normal;font-stretch:normal;font-size:32px;font-family:sans-serif;-inkscape-font-specification:'sans-serif, Normal';font-variant-ligatures:normal;font-variant-caps:normal;font-variant-numeric:normal;font-variant-east-asian:normal;stroke:none"
         id="text1667">Time re: lead word onset (ms)</text>
    </g>
    <g
       id="g6085"
       transform="translate(16.623134,-38.048507)">
      <g
         id="g4659"
         transform="matrix(0.26458333,0,0,0.26458333,-208.741,148.14199)"
         style="font-style:normal;font-weight:normal;font-size:12px;font-family:Dialog;color-interpolation:auto;fill:#000000;fill-opacity:1;stroke:#000000;stroke-width:1;stroke-linecap:square;stroke-linejoin:miter;stroke-miterlimit:10;stroke-dasharray:none;stroke-dashoffset:0;stroke-opacity:1;color-rendering:auto;image-rendering:auto;shape-rendering:auto;text-rendering:auto">
        <g
           transform="translate(1293.5653,34.65378)"
           style="font-size:13.3333px;font-family:SansSerif;color-interpolation:linearRGB;color-rendering:optimizeQuality;image-rendering:optimizeQuality;text-rendering:geometricPrecision"
           id="g1361">
          <text
             x="0"
             xml:space="preserve"
             y="5.5"
             style="font-style:normal;font-variant:normal;font-weight:normal;font-stretch:normal;font-size:32px;font-family:SansSerif;-inkscape-font-specification:'SansSerif, Normal';font-variant-ligatures:normal;font-variant-caps:normal;font-variant-numeric:normal;font-variant-east-asian:normal;stroke:none"
             id="text1359">Target</text>
        </g>
        <g
           style="color-interpolation:linearRGB;fill:#0000ff;stroke:#0000ff;stroke-width:5;stroke-linecap:butt;stroke-linejoin:round;stroke-dasharray:none;color-rendering:optimizeQuality;image-rendering:optimizeQuality;text-rendering:geometricPrecision"
           id="g1365"
           transform="translate(-387.82421,-108.27844)">
          <line
             y2="140.1041"
             style="fill:none;stroke-width:5;stroke-dasharray:none"
             x1="1625.0116"
             x2="1675.1276"
             y1="140.1041"
             id="line1363" />
        </g>
      </g>
      <g
         id="g4664"
         transform="matrix(0.26458333,0,0,0.26458333,-267.2119,159.96289)"
         style="font-style:normal;font-weight:normal;font-size:12px;font-family:Dialog;color-interpolation:auto;fill:#000000;fill-opacity:1;stroke:#000000;stroke-width:1;stroke-linecap:square;stroke-linejoin:miter;stroke-miterlimit:10;stroke-dasharray:none;stroke-dashoffset:0;stroke-opacity:1;color-rendering:auto;image-rendering:auto;shape-rendering:auto;text-rendering:auto">
        <g
           transform="translate(1593.9072,134.54506)"
           style="font-size:13.3333px;font-family:SansSerif;color-interpolation:linearRGB;color-rendering:optimizeQuality;image-rendering:optimizeQuality;text-rendering:geometricPrecision"
           id="g1369">
          <text
             x="-77.044273"
             xml:space="preserve"
             y="-90.805344"
             style="font-style:normal;font-variant:normal;font-weight:normal;font-stretch:normal;font-size:32px;font-family:SansSerif;-inkscape-font-specification:'SansSerif, Normal';font-variant-ligatures:normal;font-variant-caps:normal;font-variant-numeric:normal;font-variant-east-asian:normal;stroke:none"
             id="text1367">Masker</text>
        </g>
        <line
           y2="31.825655"
           style="color-interpolation:linearRGB;fill:none;stroke:#00ff00;stroke-width:5;stroke-linecap:butt;stroke-linejoin:round;stroke-dasharray:none;color-rendering:optimizeQuality;image-rendering:optimizeQuality;text-rendering:geometricPrecision"
           x1="1455.9592"
           x2="1506.0752"
           y1="31.825655"
           id="line1371" />
      </g>
      <path
         d="m 115.19712,175.08565 v -24.72727 h 50.90613 v 24.72727 z"
         style="font-style:normal;font-weight:normal;font-size:12px;font-family:Dialog;color-interpolation:linearRGB;fill:none;fill-opacity:1;fill-rule:evenodd;stroke:#262626;stroke-width:0.449814;stroke-linecap:butt;stroke-linejoin:miter;stroke-miterlimit:10;stroke-dasharray:none;stroke-dashoffset:0;stroke-opacity:1;color-rendering:optimizeQuality;image-rendering:optimizeQuality;shape-rendering:auto;text-rendering:geometricPrecision"
         id="path1373" />
    </g>
  </g>
</svg>
