<?xml version="1.0" encoding="UTF-8" standalone="no"?>
<!-- Created with Inkscape (http://www.inkscape.org/) -->

<svg
   width="232.336mm"
   height="97.771004mm"
   viewBox="0 0 232.336 97.771003"
   version="1.1"
   id="svg24255"
   sodipodi:docname="parietooccipital_erps_smallitd.svg"
   inkscape:version="1.2.1 (9c6d41e410, 2022-07-14)"
   xmlns:inkscape="http://www.inkscape.org/namespaces/inkscape"
   xmlns:sodipodi="http://sodipodi.sourceforge.net/DTD/sodipodi-0.dtd"
   xmlns="http://www.w3.org/2000/svg"
   xmlns:svg="http://www.w3.org/2000/svg">
  <sodipodi:namedview
     id="namedview24257"
     pagecolor="#ffffff"
     bordercolor="#000000"
     borderopacity="0.25"
     inkscape:showpageshadow="2"
     inkscape:pageopacity="0.0"
     inkscape:pagecheckerboard="0"
     inkscape:deskcolor="#d1d1d1"
     inkscape:document-units="mm"
     showgrid="false"
     inkscape:zoom="1.4324916"
     inkscape:cx="444.3307"
     inkscape:cy="201.39734"
     inkscape:window-width="1920"
     inkscape:window-height="991"
     inkscape:window-x="-9"
     inkscape:window-y="-9"
     inkscape:window-maximized="1"
     inkscape:current-layer="layer1" />
  <defs
     id="defs24252" />
  <g
     inkscape:label="Layer 1"
     inkscape:groupmode="layer"
     id="layer1"
     transform="translate(24.974464,-87.883124)">
    <g
       id="g28207"
       transform="translate(-46.86718,-15.567765)">
      <g
         transform="matrix(0.32617752,0,0,0.32617752,45.860417,147.1288)"
         style="font-style:normal;font-weight:normal;font-size:13.3333px;font-family:SansSerif;color-interpolation:linearRGB;fill:#000000;fill-opacity:1;stroke:#000000;stroke-width:1;stroke-linecap:square;stroke-linejoin:miter;stroke-miterlimit:10;stroke-dasharray:none;stroke-dashoffset:0;stroke-opacity:1;color-rendering:optimizeQuality;image-rendering:optimizeQuality;shape-rendering:auto;text-rendering:geometricPrecision"
         id="g9195">
        <text
           x="0"
           xml:space="preserve"
           y="5.5"
           style="stroke:none"
           id="text9193">Target</text>
      </g>
      <g
         style="font-style:normal;font-weight:normal;font-size:12px;font-family:Dialog;color-interpolation:linearRGB;fill:#000000;fill-opacity:1;stroke:#000000;stroke-width:3.06582;stroke-linecap:butt;stroke-linejoin:round;stroke-miterlimit:10;stroke-dasharray:none;stroke-dashoffset:0;stroke-opacity:1;color-rendering:optimizeQuality;image-rendering:optimizeQuality;shape-rendering:auto;text-rendering:geometricPrecision"
         id="g9199"
         transform="matrix(0.32617752,0,0,0.32617752,-410.24702,117.08652)">
        <line
           y2="92.104103"
           style="fill:#000000;fill-opacity:1;stroke:#000000;stroke-width:3.06582;stroke-dasharray:none;stroke-opacity:1"
           x1="1344.9652"
           x2="1394.6172"
           y1="92.104103"
           id="line9197" />
      </g>
      <g
         transform="matrix(0.32617752,0,0,0.32617752,45.860417,152.93208)"
         style="font-style:normal;font-weight:normal;font-size:13.3333px;font-family:SansSerif;color-interpolation:linearRGB;fill:#000000;fill-opacity:1;stroke:#000000;stroke-width:1;stroke-linecap:square;stroke-linejoin:miter;stroke-miterlimit:10;stroke-dasharray:none;stroke-dashoffset:0;stroke-opacity:1;color-rendering:optimizeQuality;image-rendering:optimizeQuality;shape-rendering:auto;text-rendering:geometricPrecision"
         id="g9203">
        <text
           x="0"
           xml:space="preserve"
           y="5.5"
           style="stroke:none"
           id="text9201">Masker</text>
      </g>
      <g
         style="font-style:normal;font-weight:normal;font-size:12px;font-family:Dialog;color-interpolation:linearRGB;fill:#77ac30;fill-opacity:1;stroke:#000000;stroke-width:3.06582;stroke-linecap:butt;stroke-linejoin:bevel;stroke-miterlimit:1;stroke-dasharray:9.19745, 9.19745;stroke-dashoffset:15.3291;stroke-opacity:1;color-rendering:optimizeQuality;image-rendering:optimizeQuality;shape-rendering:auto;text-rendering:geometricPrecision"
         id="g9207"
         transform="matrix(0.32617752,0,0,0.32617752,-410.24702,117.08652)">
        <line
           y2="109.8959"
           style="fill:none;stroke:#000000;stroke-width:3.06582;stroke-dasharray:9.19745, 9.19745;stroke-dashoffset:15.3291;stroke-opacity:1"
           x1="1344.9652"
           x2="1394.6172"
           y1="109.8959"
           id="line9205" />
      </g>
      <g
         style="font-style:normal;font-weight:normal;font-size:12px;font-family:Dialog;color-interpolation:linearRGB;fill:#262626;fill-opacity:1;stroke:#262626;stroke-width:0.8333;stroke-linecap:butt;stroke-linejoin:miter;stroke-miterlimit:10;stroke-dasharray:none;stroke-dashoffset:0;stroke-opacity:1;color-rendering:optimizeQuality;image-rendering:optimizeQuality;shape-rendering:auto;text-rendering:geometricPrecision"
         id="g9211"
         transform="matrix(0.32617752,0,0,0.32617752,-410.24702,117.08652)">
        <path
           d="M 1340,121 V 81 h 107 v 40 z"
           style="fill:none;fill-rule:evenodd"
           id="path9209" />
      </g>
    </g>
    <g
       style="font-style:normal;font-weight:normal;font-size:12px;font-family:Dialog;color-interpolation:linearRGB;fill:#262626;fill-opacity:1;stroke:#262626;stroke-width:0.8333;stroke-linecap:square;stroke-linejoin:round;stroke-miterlimit:10;stroke-dasharray:none;stroke-dashoffset:0;stroke-opacity:1;color-rendering:optimizeQuality;image-rendering:optimizeQuality;shape-rendering:auto;text-rendering:geometricPrecision"
       id="g6125"
       transform="matrix(0.23526449,0,0,0.23526449,-26.83863,84.303139)">
      <line
         y2="385"
         style="fill:none"
         x1="250"
         x2="439"
         y1="385"
         id="line6117" />
      <line
         y2="381.85999"
         style="fill:none"
         x1="254.6098"
         x2="254.6098"
         y1="385"
         id="line6119" />
      <line
         y2="381.85999"
         style="fill:none"
         x1="346.8049"
         x2="346.8049"
         y1="385"
         id="line6121" />
      <line
         y2="381.85999"
         style="fill:none"
         x1="439"
         x2="439"
         y1="385"
         id="line6123" />
    </g>
    <g
       transform="matrix(0.23526449,0,0,0.23526449,33.062017,175.97788)"
       style="font-style:normal;font-weight:normal;font-size:15px;font-family:SansSerif;color-interpolation:linearRGB;fill:#262626;fill-opacity:1;stroke:#262626;stroke-width:1;stroke-linecap:square;stroke-linejoin:miter;stroke-miterlimit:10;stroke-dasharray:none;stroke-dashoffset:0;stroke-opacity:1;color-rendering:optimizeQuality;image-rendering:optimizeQuality;shape-rendering:auto;text-rendering:geometricPrecision"
       id="g6129">
      <text
         x="-4.5"
         xml:space="preserve"
         y="16"
         style="stroke:none"
         id="text6127">0</text>
    </g>
    <g
       transform="matrix(0.23526449,0,0,0.23526449,54.752251,175.97788)"
       style="font-style:normal;font-weight:normal;font-size:15px;font-family:SansSerif;color-interpolation:linearRGB;fill:#262626;fill-opacity:1;stroke:#262626;stroke-width:1;stroke-linecap:square;stroke-linejoin:miter;stroke-miterlimit:10;stroke-dasharray:none;stroke-dashoffset:0;stroke-opacity:1;color-rendering:optimizeQuality;image-rendering:optimizeQuality;shape-rendering:auto;text-rendering:geometricPrecision"
       id="g6133">
      <text
         x="-13"
         xml:space="preserve"
         y="16"
         style="stroke:none"
         id="text6131">500</text>
    </g>
    <g
       transform="matrix(0.23526449,0,0,0.23526449,76.442485,175.97788)"
       style="font-style:normal;font-weight:normal;font-size:15px;font-family:SansSerif;color-interpolation:linearRGB;fill:#262626;fill-opacity:1;stroke:#262626;stroke-width:1;stroke-linecap:square;stroke-linejoin:miter;stroke-miterlimit:10;stroke-dasharray:none;stroke-dashoffset:0;stroke-opacity:1;color-rendering:optimizeQuality;image-rendering:optimizeQuality;shape-rendering:auto;text-rendering:geometricPrecision"
       id="g6137">
      <text
         x="-17"
         xml:space="preserve"
         y="16"
         style="stroke:none"
         id="text6135">1000</text>
    </g>
    <g
       style="font-style:normal;font-weight:normal;font-size:12px;font-family:Dialog;color-interpolation:linearRGB;fill:#262626;fill-opacity:1;stroke:#262626;stroke-width:0.8333;stroke-linecap:square;stroke-linejoin:round;stroke-miterlimit:10;stroke-dasharray:none;stroke-dashoffset:0;stroke-opacity:1;color-rendering:optimizeQuality;image-rendering:optimizeQuality;shape-rendering:auto;text-rendering:geometricPrecision"
       id="g6157"
       transform="matrix(0.23526449,0,0,0.23526449,-26.83863,84.303139)">
      <line
         y2="71"
         style="fill:none"
         x1="250"
         x2="250"
         y1="385"
         id="line6139" />
      <line
         y2="385"
         style="fill:none"
         x1="250"
         x2="253.14"
         y1="385"
         id="line6141" />
      <line
         y2="343.1333"
         style="fill:none"
         x1="250"
         x2="253.14"
         y1="343.1333"
         id="line6143" />
      <line
         y2="301.26669"
         style="fill:none"
         x1="250"
         x2="253.14"
         y1="301.26669"
         id="line6145" />
      <line
         y2="259.39999"
         style="fill:none"
         x1="250"
         x2="253.14"
         y1="259.39999"
         id="line6147" />
      <line
         y2="217.53329"
         style="fill:none"
         x1="250"
         x2="253.14"
         y1="217.53329"
         id="line6149" />
      <line
         y2="175.6667"
         style="fill:none"
         x1="250"
         x2="253.14"
         y1="175.6667"
         id="line6151" />
      <line
         y2="133.8"
         style="fill:none"
         x1="250"
         x2="253.14"
         y1="133.8"
         id="line6153" />
      <line
         y2="91.933296"
         style="fill:none"
         x1="250"
         x2="253.14"
         y1="91.933296"
         id="line6155" />
    </g>
    <g
       transform="matrix(0.23526449,0,0,0.23526449,30.879584,174.87998)"
       style="font-style:normal;font-weight:normal;font-size:15px;font-family:SansSerif;color-interpolation:linearRGB;fill:#262626;fill-opacity:1;stroke:#262626;stroke-width:1;stroke-linecap:square;stroke-linejoin:miter;stroke-miterlimit:10;stroke-dasharray:none;stroke-dashoffset:0;stroke-opacity:1;color-rendering:optimizeQuality;image-rendering:optimizeQuality;shape-rendering:auto;text-rendering:geometricPrecision"
       id="g6161">
      <text
         x="-14"
         xml:space="preserve"
         y="6"
         style="stroke:none"
         id="text6159">-3</text>
    </g>
    <g
       transform="matrix(0.23526449,0,0,0.23526449,30.879584,165.03022)"
       style="font-style:normal;font-weight:normal;font-size:15px;font-family:SansSerif;color-interpolation:linearRGB;fill:#262626;fill-opacity:1;stroke:#262626;stroke-width:1;stroke-linecap:square;stroke-linejoin:miter;stroke-miterlimit:10;stroke-dasharray:none;stroke-dashoffset:0;stroke-opacity:1;color-rendering:optimizeQuality;image-rendering:optimizeQuality;shape-rendering:auto;text-rendering:geometricPrecision"
       id="g6165">
      <text
         x="-14"
         xml:space="preserve"
         y="6"
         style="stroke:none"
         id="text6163">-2</text>
    </g>
    <g
       transform="matrix(0.23526449,0,0,0.23526449,30.879584,155.1805)"
       style="font-style:normal;font-weight:normal;font-size:15px;font-family:SansSerif;color-interpolation:linearRGB;fill:#262626;fill-opacity:1;stroke:#262626;stroke-width:1;stroke-linecap:square;stroke-linejoin:miter;stroke-miterlimit:10;stroke-dasharray:none;stroke-dashoffset:0;stroke-opacity:1;color-rendering:optimizeQuality;image-rendering:optimizeQuality;shape-rendering:auto;text-rendering:geometricPrecision"
       id="g6169">
      <text
         x="-14"
         xml:space="preserve"
         y="6"
         style="stroke:none"
         id="text6167">-1</text>
    </g>
    <g
       transform="matrix(0.23526449,0,0,0.23526449,30.879584,145.33076)"
       style="font-style:normal;font-weight:normal;font-size:15px;font-family:SansSerif;color-interpolation:linearRGB;fill:#262626;fill-opacity:1;stroke:#262626;stroke-width:1;stroke-linecap:square;stroke-linejoin:miter;stroke-miterlimit:10;stroke-dasharray:none;stroke-dashoffset:0;stroke-opacity:1;color-rendering:optimizeQuality;image-rendering:optimizeQuality;shape-rendering:auto;text-rendering:geometricPrecision"
       id="g6173">
      <text
         x="-9"
         xml:space="preserve"
         y="6"
         style="stroke:none"
         id="text6171">0</text>
    </g>
    <g
       transform="matrix(0.23526449,0,0,0.23526449,30.879584,135.481)"
       style="font-style:normal;font-weight:normal;font-size:15px;font-family:SansSerif;color-interpolation:linearRGB;fill:#262626;fill-opacity:1;stroke:#262626;stroke-width:1;stroke-linecap:square;stroke-linejoin:miter;stroke-miterlimit:10;stroke-dasharray:none;stroke-dashoffset:0;stroke-opacity:1;color-rendering:optimizeQuality;image-rendering:optimizeQuality;shape-rendering:auto;text-rendering:geometricPrecision"
       id="g6177">
      <text
         x="-9"
         xml:space="preserve"
         y="6"
         style="stroke:none"
         id="text6175">1</text>
    </g>
    <g
       transform="matrix(0.23526449,0,0,0.23526449,30.879584,125.63128)"
       style="font-style:normal;font-weight:normal;font-size:15px;font-family:SansSerif;color-interpolation:linearRGB;fill:#262626;fill-opacity:1;stroke:#262626;stroke-width:1;stroke-linecap:square;stroke-linejoin:miter;stroke-miterlimit:10;stroke-dasharray:none;stroke-dashoffset:0;stroke-opacity:1;color-rendering:optimizeQuality;image-rendering:optimizeQuality;shape-rendering:auto;text-rendering:geometricPrecision"
       id="g6181">
      <text
         x="-9"
         xml:space="preserve"
         y="6"
         style="stroke:none"
         id="text6179">2</text>
    </g>
    <g
       transform="matrix(0.23526449,0,0,0.23526449,30.879584,115.78153)"
       style="font-style:normal;font-weight:normal;font-size:15px;font-family:SansSerif;color-interpolation:linearRGB;fill:#262626;fill-opacity:1;stroke:#262626;stroke-width:1;stroke-linecap:square;stroke-linejoin:miter;stroke-miterlimit:10;stroke-dasharray:none;stroke-dashoffset:0;stroke-opacity:1;color-rendering:optimizeQuality;image-rendering:optimizeQuality;shape-rendering:auto;text-rendering:geometricPrecision"
       id="g6185">
      <text
         x="-9"
         xml:space="preserve"
         y="6"
         style="stroke:none"
         id="text6183">3</text>
    </g>
    <g
       transform="matrix(0.23526449,0,0,0.23526449,30.879584,105.93179)"
       style="font-style:normal;font-weight:normal;font-size:15px;font-family:SansSerif;color-interpolation:linearRGB;fill:#262626;fill-opacity:1;stroke:#262626;stroke-width:1;stroke-linecap:square;stroke-linejoin:miter;stroke-miterlimit:10;stroke-dasharray:none;stroke-dashoffset:0;stroke-opacity:1;color-rendering:optimizeQuality;image-rendering:optimizeQuality;shape-rendering:auto;text-rendering:geometricPrecision"
       id="g6189">
      <text
         x="-9"
         xml:space="preserve"
         y="6"
         style="stroke:none"
         id="text6187">4</text>
    </g>
    <g
       transform="matrix(0.23526449,0,0,0.23526449,54.21006,99.948228)"
       style="font-style:normal;font-weight:bold;font-size:30px;font-family:SansSerif;color-interpolation:linearRGB;fill:#000000;fill-opacity:1;stroke:#000000;stroke-width:1;stroke-linecap:square;stroke-linejoin:miter;stroke-miterlimit:10;stroke-dasharray:none;stroke-dashoffset:0;stroke-opacity:1;color-rendering:optimizeQuality;image-rendering:optimizeQuality;shape-rendering:auto;text-rendering:geometricPrecision"
       id="g6197">
      <text
         x="-84.5"
         xml:space="preserve"
         y="-7"
         style="stroke:none"
         id="text6195">Bash Leads</text>
    </g>
    <g
       style="font-style:normal;font-weight:normal;font-size:12px;font-family:Dialog;color-interpolation:linearRGB;fill:#0072bd;fill-opacity:1;stroke:#0072bd;stroke-width:2.5;stroke-linecap:butt;stroke-linejoin:round;stroke-miterlimit:10;stroke-dasharray:none;stroke-dashoffset:0;stroke-opacity:1;color-rendering:optimizeQuality;image-rendering:optimizeQuality;shape-rendering:auto;text-rendering:geometricPrecision"
       id="g6203"
       transform="matrix(0.23526449,0,0,0.23526449,-26.83863,84.303139)">
      <path
         d="m 250,269.3729 0.7194,-1.1113 0.7193,-1.6153 0.7194,0.854 0.7193,-3.1021 0.7194,-2.5266 0.7193,6.4585 0.7194,-2.5881 0.7194,-4.8433 0.7193,-1.7393 0.7194,-3.2883 0.7193,2.3368 0.7194,3.6906 0.7194,3.8853 0.7193,-1.0385 0.7193,-2.2455 0.7194,-0.9097 0.7194,-11.0629 0.7193,-11.7707 0.7194,-8.1994 0.7193,-11.634 0.7194,-3.5427 0.7193,8.3212 0.7194,7.8653 0.7194,12.0718 0.7193,9.7713 0.7194,-0.2007 0.7193,-2.7912 0.7194,0.7417 0.7194,-1.8222 0.7193,-9.3161 0.7193,-4.8717 0.7194,-5.5714 0.7194,-0.9653 0.7193,7.6638 0.7194,2.7855 0.7194,2.5969 0.7193,6.123 0.7194,3.5594 0.7193,1.8184 0.7194,6.986 0.7193,7.5043 0.7194,1.8062 0.7193,4.649 0.7194,7.779 0.7194,1.5506 0.7193,0.8701 0.7194,4.4289 0.7193,5.7145 0.7194,-0.6584 0.7193,-8.8341 0.7194,-3.2483 0.7194,-3.547 0.7193,-9.5305 0.7194,-7.0356 0.7193,-4.1494 0.7194,-3.3482 0.7193,0.3747 0.7194,4.3983 0.7193,1.5489 0.7194,-2.0139 0.7194,3.0375 0.7193,4.5716 0.7194,1.5737 0.7193,7.3216 0.7194,5.0291 0.7193,3.2829 0.7194,5.6853 0.7194,0.1505 0.7193,2.1699 0.7194,3.9773 0.7193,3.2534 0.7194,9.4609 0.7194,6.4355 0.7193,-1.6448 0.7194,-0.1746 0.7193,0.35 0.7194,0.7579 0.7193,0.379 0.7194,-12.6895 0.7194,-12.0498 0.7193,-5.2164 0.7194,-10.0812 0.7193,-2.416 0.7194,-7.196 0.7193,-4.0341 0.7194,3.4904 0.7193,-2.694 0.7194,3.5517 0.7194,3.1583 0.7193,2.2465 0.7194,5.755 0.7193,1.8846 0.7194,-6.0197 0.7193,-6.535 0.7194,-6.4418 0.7194,-7.9831 0.7193,-3.8384 0.7194,-2.3275 0.7193,2.4758 0.7194,6.0851 0.7193,4.7345 0.7194,2.1442 0.7194,-3.545 0.7193,-2.1172 0.7194,0.5555 0.7193,-4.9327 0.7194,-4.9054 0.7194,3.1669 0.7193,4.5487 0.7193,1.446 0.7194,-1.8174 0.7194,-6.0341 0.7193,-4.2032 0.7194,-1.8363 0.7193,-3.8211 0.7194,-7.7863 0.7193,-8.2082 0.7194,-1.283 0.7194,0.9572 0.7193,-3.42 0.7194,-5.2222 0.7193,-5.0046 0.7194,-4.3406 0.7194,-3.611 0.7193,-2.926 0.7194,-0.2304 0.7193,1.2175 0.7194,3.9433 0.7193,3.8243 0.7194,0.2737 0.7193,1.2573 0.7194,3.7794 0.7194,-0.7621 0.7193,-3.3703 0.7194,0.4343 0.7193,1.2451 0.7194,2.4562 0.7193,1.694 0.7194,-3.2308 0.7194,-2.075 0.7193,3.867 0.7194,1.4538 0.7193,-5.3345 0.7194,-4.8708 0.7193,2.1328 0.7194,6.4921 0.7194,4.8489 0.7193,6.5099 0.7194,2.1659 0.7193,-5.6288 0.7194,0.7934 0.7194,1.387 0.7193,-0.5996 0.7193,3.8409 0.7194,3.6057 0.7194,5.4167 0.7193,3.3874 0.7194,3.1815 0.7193,4.9657 0.7194,-2.5683 0.7194,-5.8214 0.7193,-2.1719 0.7194,-0.4583 0.7193,3.2104 0.7194,1.7869 0.7193,-3.5504 0.7194,-5.9176 0.7194,-5.0823 0.7193,-2.239 0.7193,-2.6824 0.7194,-9.9365 0.7194,-6.1342 0.7193,9.8819 0.7194,13.0729 0.7194,7.8495 0.7193,2.0923 0.7193,5.7025 0.7194,4.9345 0.7194,-1.8476 0.7193,-0.7045 0.7194,0.6546 0.7193,1.3296 0.7194,0.27 0.7194,3.4281 0.7193,-2.0409 0.7194,-7.6743 0.7193,-7.3841 0.7194,-8.2339 0.7193,-3.5742 0.7194,3.0072 0.7194,6.4572 0.7193,-0.2152 0.7194,0.0888 0.7193,2.8252 0.7194,-3.1007 0.7193,3.162 0.7194,6.6475 0.7193,1.8999 0.7194,0.6725 0.7194,3.1531 0.7193,6.7917 0.7194,4.1892 0.7193,-0.6177 0.7194,-2.8186 0.7194,0.7272 0.7193,3.5523 0.7194,0.271 0.7193,-2.1379 0.7194,-0.4973 0.7193,1.472 0.7194,-0.4204 0.7194,-2.1843 0.7193,3.3113 0.7194,1.1969 0.7193,-4.0392 0.7194,-0.2772 0.7193,1.4565 0.7194,0.0725 0.7194,0.4614 0.7193,3.9846 0.7194,5.7361 0.7193,0.8026 0.7194,1.481 0.7193,0.4849 0.7194,-1.5977 0.7193,6.9617 0.7194,1.1863 0.7194,-3.2442 0.7193,-2.8991 0.7194,-4.4213 0.7193,-1.518 0.7194,-1.361 0.7193,-4.1013 0.7194,-8.5191 0.7194,-9.0791 0.7193,0.4516 0.7194,1.9269 0.7193,-2.8601 0.7194,3.9623 0.7193,0.1647 0.7194,-2.925 0.7194,-1.2783 0.7193,-3.2589 0.7194,0.3944 0.7193,6.9163 0.7194,4.7333 0.7193,-2.8906 0.7194,-0.0147 0.7193,-2.012 0.7194,-3.492 0.7194,-0.2559 0.7193,2.2578 0.7194,-1.3195 0.7193,-2.4316 0.7194,7.0191 0.7194,3.7426 0.7193,-2.274 0.7194,1.4649 0.7193,6.2719 0.7194,-0.3866 0.7193,-9.3067 0.7194,-1.4877 0.5511,3.1272"
         style="fill:none;fill-rule:evenodd"
         id="path6199" />
      <path
         style="fill:none;fill-rule:evenodd;stroke-linejoin:bevel;stroke-miterlimit:1;stroke-dasharray:8, 8"
         d="m 250,248.7426 0.7194,-0.8732 0.7193,1.3566 0.7194,3.8369 0.7193,1.1903 0.7194,-0.3844 0.7193,-0.1071 0.7194,6.0408 0.7194,5.3655 0.7193,0.5163 0.7194,-2.5071 0.7193,-2.9962 0.7194,2.7541 0.7194,3.6516 0.7193,1.9379 0.7193,-0.2652 0.7194,-3.6824 0.7194,-2.9748 0.7193,-6.9342 0.7194,-8.5585 0.7193,-13.3896 0.7194,-8.3994 0.7193,5.1029 0.7194,2.8114 0.7194,7.6816 0.7193,8.7843 0.7194,6.6664 0.7193,4.4496 0.7194,-4.5932 0.7194,-6.4527 0.7193,-8.1654 0.7193,-5.0491 0.7194,2.9124 0.7194,6.2192 0.7193,4.8325 0.7194,1.1454 0.7194,5.4756 0.7193,8.186 0.7194,5.649 0.7193,3.3138 0.7194,-1.3343 0.7193,-1.7675 0.7194,-2.4644 0.7193,3.3781 0.7194,3.7455 0.7194,-0.3885 0.7193,-2.3095 0.7194,-2.2711 0.7193,0.5068 0.7194,0.9881 0.7193,0.7814 0.7194,-3.162 0.7194,-3.8635 0.7193,-8.119 0.7194,-3.9342 0.7193,1.8311 0.7194,0.1941 0.7193,4.102 0.7194,1.2318 0.7193,-1.5954 0.7194,-0.5201 0.7194,-0.2397 0.7193,-0.3179 0.7194,-1.0407 0.7193,1.9012 0.7194,4.7952 0.7193,1.9472 0.7194,2.9711 0.7194,6.2069 0.7193,5.8922 0.7194,5.8327 0.7193,7.2653 0.7194,4.7149 0.7194,-2.0066 0.7193,-3.763 0.7194,-1.7353 0.7193,-3.2061 0.7194,-6.8172 0.7193,-3.7102 0.7194,-2.4602 0.7194,-8.5711 0.7193,-9.3433 0.7194,-1.5913 0.7193,3.8184 0.7194,0.7749 0.7193,-0.6915 0.7194,-1.3633 0.7193,-3.4733 0.7194,0.1062 0.7194,6.4304 0.7193,6.8157 0.7194,1.4524 0.7193,-2.1396 0.7194,-3.4693 0.7193,0.6952 0.7194,-2.1729 0.7194,-6.8431 0.7193,-2.3858 0.7194,-3.5796 0.7193,-1.7269 0.7194,-0.5244 0.7193,0.3376 0.7194,7.6041 0.7194,2.2228 0.7193,-2.0237 0.7194,-1.1591 0.7193,-4.4045 0.7194,-1.1485 0.7194,2.0596 0.7193,-0.6209 0.7193,-3.327 0.7194,-4.9419 0.7194,-4.1564 0.7193,-0.6639 0.7194,3.9532 0.7193,4.7835 0.7194,-0.4825 0.7193,-2.8635 0.7194,-3.1444 0.7194,-8.248 0.7193,-5.2918 0.7194,4.4144 0.7193,3.863 0.7194,-1.3785 0.7194,-1.5514 0.7193,-3.032 0.7194,-1.8492 0.7193,0.669 0.7194,-0.6207 0.7193,0.6737 0.7194,0.5052 0.7193,-0.9473 0.7194,-0.8493 0.7194,-0.3556 0.7193,-5.6912 0.7194,-0.6669 0.7193,9.0355 0.7194,-0.0355 0.7193,-5.1469 0.7194,-0.4027 0.7194,0.8897 0.7193,3.3832 0.7194,7.155 0.7193,6.1647 0.7194,0.1872 0.7193,-1.2318 0.7194,5.4 0.7194,6.1851 0.7193,1.8448 0.7194,1.7517 0.7193,-2.766 0.7194,-3.5641 0.7194,-2.4471 0.7193,-1.0234 0.7193,2.4697 0.7194,-3.008 0.7194,-0.5123 0.7193,2.1803 0.7194,-3.7165 0.7193,-2.7201 0.7194,-1.8612 0.7194,0.6679 0.7193,5.0858 0.7194,0.8516 0.7193,-1.1145 0.7194,2.5503 0.7193,-0.1677 0.7194,0.0582 0.7194,4.1559 0.7193,-2.4675 0.7193,-12.6646 0.7194,-11.3705 0.7194,0.7228 0.7193,7.5682 0.7194,6.5584 0.7194,5.9482 0.7193,2.2827 0.7193,-3.4854 0.7194,-8.7563 0.7194,-5.5643 0.7193,-1.2164 0.7194,1.0932 0.7193,4.1334 0.7194,3.5627 0.7194,-1.1992 0.7193,-2.5884 0.7194,-2.6079 0.7193,-2.8268 0.7194,5.6617 0.7193,6.8373 0.7194,2.4611 0.7194,3.8424 0.7193,6.5475 0.7194,1.8331 0.7193,0.9957 0.7194,3.9201 0.7193,2.0912 0.7194,-3.3864 0.7193,-5.2436 0.7194,2.0882 0.7194,-1.2238 0.7193,-2.4714 0.7194,1.4283 0.7193,-3.8682 0.7194,-6.0487 0.7194,-5.1806 0.7193,2.5599 0.7194,5.8285 0.7193,-1.7636 0.7194,1.2037 0.7193,4.6903 0.7194,-0.715 0.7194,-2.5814 0.7193,2.6102 0.7194,4.6877 0.7193,1.9505 0.7194,2.0552 0.7193,-2.1116 0.7194,-5.1561 0.7194,-0.8053 0.7193,-4.1074 0.7194,1.8907 0.7193,4.0788 0.7194,-5.4897 0.7193,0.3636 0.7194,0.8424 0.7193,1.0197 0.7194,2.669 0.7194,2.0653 0.7193,-2.0343 0.7194,-4.8859 0.7193,4.2523 0.7194,1.6988 0.7193,-3.5298 0.7194,-2.6374 0.7194,-3.6464 0.7193,-2.21 0.7194,-0.4143 0.7193,2.5532 0.7194,0.5696 0.7193,-4.0955 0.7194,0.1495 0.7194,-0.75 0.7193,-2.5181 0.7194,4.363 0.7193,1.5507 0.7194,0.0835 0.7193,1.8111 0.7194,-0.9567 0.7193,-3.6263 0.7194,-3.4945 0.7194,2.2695 0.7193,-0.0968 0.7194,-1.7808 0.7193,-0.2205 0.7194,-0.1996 0.7194,1.3037 0.7193,-0.5085 0.7194,3.8996 0.7193,8.6711 0.7194,6.0119 0.7193,2.057 0.7194,4.005 0.5511,1.7059"
         id="path6201" />
    </g>
    <g
       style="font-style:normal;font-weight:normal;font-size:12px;font-family:Dialog;color-interpolation:linearRGB;fill:#000000;fill-opacity:0.702;stroke:#000000;stroke-width:3.3333;stroke-linecap:butt;stroke-linejoin:bevel;stroke-miterlimit:1;stroke-dasharray:3, 3;stroke-dashoffset:0;stroke-opacity:0.702;color-rendering:optimizeQuality;image-rendering:optimizeQuality;shape-rendering:auto;text-rendering:geometricPrecision"
       id="g6209"
       transform="matrix(0.23526449,0,0,0.23526449,-26.83863,84.303139)">
      <line
         y2="71"
         style="fill:none"
         x1="254.6098"
         x2="254.6098"
         y1="385"
         id="line6205" />
      <line
         y2="71"
         style="fill:none"
         x1="300.70731"
         x2="300.70731"
         y1="385"
         id="line6207" />
    </g>
    <g
       style="font-style:normal;font-weight:normal;font-size:12px;font-family:Dialog;color-interpolation:sRGB;fill:#ffffff;fill-opacity:1;stroke:#ffffff;stroke-width:1;stroke-linecap:square;stroke-linejoin:miter;stroke-miterlimit:10;stroke-dasharray:none;stroke-dashoffset:0;stroke-opacity:1;color-rendering:optimizeSpeed;image-rendering:optimizeSpeed;shape-rendering:crispEdges;text-rendering:optimizeSpeed"
       id="g6213"
       transform="matrix(0.23526449,0,0,0.23526449,-26.83863,84.303139)">
      <path
         style="stroke:none"
         d="M 508,385 H 698 V 71 H 508 Z"
         id="path6211" />
    </g>
    <g
       style="font-style:normal;font-weight:normal;font-size:12px;font-family:Dialog;color-interpolation:linearRGB;fill:#262626;fill-opacity:1;stroke:#262626;stroke-width:0.8333;stroke-linecap:square;stroke-linejoin:round;stroke-miterlimit:10;stroke-dasharray:none;stroke-dashoffset:0;stroke-opacity:1;color-rendering:optimizeQuality;image-rendering:optimizeQuality;shape-rendering:auto;text-rendering:geometricPrecision"
       id="g6223"
       transform="matrix(0.23526449,0,0,0.23526449,-26.83863,84.303139)">
      <line
         y2="385"
         style="fill:none"
         x1="508"
         x2="698"
         y1="385"
         id="line6215" />
      <line
         y2="381.85999"
         style="fill:none"
         x1="512.63422"
         x2="512.63422"
         y1="385"
         id="line6217" />
      <line
         y2="381.85999"
         style="fill:none"
         x1="605.31708"
         x2="605.31708"
         y1="385"
         id="line6219" />
      <line
         y2="381.85999"
         style="fill:none"
         x1="698"
         x2="698"
         y1="385"
         id="line6221" />
    </g>
    <g
       transform="matrix(0.23526449,0,0,0.23526449,93.765998,175.97788)"
       style="font-style:normal;font-weight:normal;font-size:15px;font-family:SansSerif;color-interpolation:linearRGB;fill:#262626;fill-opacity:1;stroke:#262626;stroke-width:1;stroke-linecap:square;stroke-linejoin:miter;stroke-miterlimit:10;stroke-dasharray:none;stroke-dashoffset:0;stroke-opacity:1;color-rendering:optimizeQuality;image-rendering:optimizeQuality;shape-rendering:auto;text-rendering:geometricPrecision"
       id="g6227">
      <text
         x="-4.5"
         xml:space="preserve"
         y="16"
         style="stroke:none"
         id="text6225">0</text>
    </g>
    <g
       transform="matrix(0.23526449,0,0,0.23526449,115.57099,175.97788)"
       style="font-style:normal;font-weight:normal;font-size:15px;font-family:SansSerif;color-interpolation:linearRGB;fill:#262626;fill-opacity:1;stroke:#262626;stroke-width:1;stroke-linecap:square;stroke-linejoin:miter;stroke-miterlimit:10;stroke-dasharray:none;stroke-dashoffset:0;stroke-opacity:1;color-rendering:optimizeQuality;image-rendering:optimizeQuality;shape-rendering:auto;text-rendering:geometricPrecision"
       id="g6231">
      <text
         x="-13"
         xml:space="preserve"
         y="16"
         style="stroke:none"
         id="text6229">500</text>
    </g>
    <g
       transform="matrix(0.23526449,0,0,0.23526449,137.376,175.97788)"
       style="font-style:normal;font-weight:normal;font-size:15px;font-family:SansSerif;color-interpolation:linearRGB;fill:#262626;fill-opacity:1;stroke:#262626;stroke-width:1;stroke-linecap:square;stroke-linejoin:miter;stroke-miterlimit:10;stroke-dasharray:none;stroke-dashoffset:0;stroke-opacity:1;color-rendering:optimizeQuality;image-rendering:optimizeQuality;shape-rendering:auto;text-rendering:geometricPrecision"
       id="g6235">
      <text
         x="-17"
         xml:space="preserve"
         y="16"
         style="stroke:none"
         id="text6233">1000</text>
    </g>
    <g
       style="font-style:normal;font-weight:normal;font-size:12px;font-family:Dialog;color-interpolation:linearRGB;fill:#262626;fill-opacity:1;stroke:#262626;stroke-width:0.8333;stroke-linecap:square;stroke-linejoin:round;stroke-miterlimit:10;stroke-dasharray:none;stroke-dashoffset:0;stroke-opacity:1;color-rendering:optimizeQuality;image-rendering:optimizeQuality;shape-rendering:auto;text-rendering:geometricPrecision"
       id="g6255"
       transform="matrix(0.23526449,0,0,0.23526449,-26.83863,84.303139)">
      <line
         y2="71"
         style="fill:none"
         x1="508"
         x2="508"
         y1="385"
         id="line6237" />
      <line
         y2="385"
         style="fill:none"
         x1="508"
         x2="511.14001"
         y1="385"
         id="line6239" />
      <line
         y2="343.1333"
         style="fill:none"
         x1="508"
         x2="511.14001"
         y1="343.1333"
         id="line6241" />
      <line
         y2="301.26669"
         style="fill:none"
         x1="508"
         x2="511.14001"
         y1="301.26669"
         id="line6243" />
      <line
         y2="259.39999"
         style="fill:none"
         x1="508"
         x2="511.14001"
         y1="259.39999"
         id="line6245" />
      <line
         y2="217.53329"
         style="fill:none"
         x1="508"
         x2="511.14001"
         y1="217.53329"
         id="line6247" />
      <line
         y2="175.6667"
         style="fill:none"
         x1="508"
         x2="511.14001"
         y1="175.6667"
         id="line6249" />
      <line
         y2="133.8"
         style="fill:none"
         x1="508"
         x2="511.14001"
         y1="133.8"
         id="line6251" />
      <line
         y2="91.933296"
         style="fill:none"
         x1="508"
         x2="511.14001"
         y1="91.933296"
         id="line6253" />
    </g>
    <g
       transform="matrix(0.23526449,0,0,0.23526449,91.577825,174.87998)"
       style="font-style:normal;font-weight:normal;font-size:15px;font-family:SansSerif;color-interpolation:linearRGB;fill:#262626;fill-opacity:1;stroke:#262626;stroke-width:1;stroke-linecap:square;stroke-linejoin:miter;stroke-miterlimit:10;stroke-dasharray:none;stroke-dashoffset:0;stroke-opacity:1;color-rendering:optimizeQuality;image-rendering:optimizeQuality;shape-rendering:auto;text-rendering:geometricPrecision"
       id="g6259">
      <text
         x="-14"
         xml:space="preserve"
         y="6"
         style="stroke:none"
         id="text6257">-3</text>
    </g>
    <g
       transform="matrix(0.23526449,0,0,0.23526449,91.577825,165.03022)"
       style="font-style:normal;font-weight:normal;font-size:15px;font-family:SansSerif;color-interpolation:linearRGB;fill:#262626;fill-opacity:1;stroke:#262626;stroke-width:1;stroke-linecap:square;stroke-linejoin:miter;stroke-miterlimit:10;stroke-dasharray:none;stroke-dashoffset:0;stroke-opacity:1;color-rendering:optimizeQuality;image-rendering:optimizeQuality;shape-rendering:auto;text-rendering:geometricPrecision"
       id="g6263">
      <text
         x="-14"
         xml:space="preserve"
         y="6"
         style="stroke:none"
         id="text6261">-2</text>
    </g>
    <g
       transform="matrix(0.23526449,0,0,0.23526449,91.577825,155.1805)"
       style="font-style:normal;font-weight:normal;font-size:15px;font-family:SansSerif;color-interpolation:linearRGB;fill:#262626;fill-opacity:1;stroke:#262626;stroke-width:1;stroke-linecap:square;stroke-linejoin:miter;stroke-miterlimit:10;stroke-dasharray:none;stroke-dashoffset:0;stroke-opacity:1;color-rendering:optimizeQuality;image-rendering:optimizeQuality;shape-rendering:auto;text-rendering:geometricPrecision"
       id="g6267">
      <text
         x="-14"
         xml:space="preserve"
         y="6"
         style="stroke:none"
         id="text6265">-1</text>
    </g>
    <g
       transform="matrix(0.23526449,0,0,0.23526449,91.577825,145.33076)"
       style="font-style:normal;font-weight:normal;font-size:15px;font-family:SansSerif;color-interpolation:linearRGB;fill:#262626;fill-opacity:1;stroke:#262626;stroke-width:1;stroke-linecap:square;stroke-linejoin:miter;stroke-miterlimit:10;stroke-dasharray:none;stroke-dashoffset:0;stroke-opacity:1;color-rendering:optimizeQuality;image-rendering:optimizeQuality;shape-rendering:auto;text-rendering:geometricPrecision"
       id="g6271">
      <text
         x="-9"
         xml:space="preserve"
         y="6"
         style="stroke:none"
         id="text6269">0</text>
    </g>
    <g
       transform="matrix(0.23526449,0,0,0.23526449,91.577825,135.481)"
       style="font-style:normal;font-weight:normal;font-size:15px;font-family:SansSerif;color-interpolation:linearRGB;fill:#262626;fill-opacity:1;stroke:#262626;stroke-width:1;stroke-linecap:square;stroke-linejoin:miter;stroke-miterlimit:10;stroke-dasharray:none;stroke-dashoffset:0;stroke-opacity:1;color-rendering:optimizeQuality;image-rendering:optimizeQuality;shape-rendering:auto;text-rendering:geometricPrecision"
       id="g6275">
      <text
         x="-9"
         xml:space="preserve"
         y="6"
         style="stroke:none"
         id="text6273">1</text>
    </g>
    <g
       transform="matrix(0.23526449,0,0,0.23526449,91.577825,125.63128)"
       style="font-style:normal;font-weight:normal;font-size:15px;font-family:SansSerif;color-interpolation:linearRGB;fill:#262626;fill-opacity:1;stroke:#262626;stroke-width:1;stroke-linecap:square;stroke-linejoin:miter;stroke-miterlimit:10;stroke-dasharray:none;stroke-dashoffset:0;stroke-opacity:1;color-rendering:optimizeQuality;image-rendering:optimizeQuality;shape-rendering:auto;text-rendering:geometricPrecision"
       id="g6279">
      <text
         x="-9"
         xml:space="preserve"
         y="6"
         style="stroke:none"
         id="text6277">2</text>
    </g>
    <g
       transform="matrix(0.23526449,0,0,0.23526449,91.577825,115.78153)"
       style="font-style:normal;font-weight:normal;font-size:15px;font-family:SansSerif;color-interpolation:linearRGB;fill:#262626;fill-opacity:1;stroke:#262626;stroke-width:1;stroke-linecap:square;stroke-linejoin:miter;stroke-miterlimit:10;stroke-dasharray:none;stroke-dashoffset:0;stroke-opacity:1;color-rendering:optimizeQuality;image-rendering:optimizeQuality;shape-rendering:auto;text-rendering:geometricPrecision"
       id="g6283">
      <text
         x="-9"
         xml:space="preserve"
         y="6"
         style="stroke:none"
         id="text6281">3</text>
    </g>
    <g
       transform="matrix(0.23526449,0,0,0.23526449,91.577825,105.93179)"
       style="font-style:normal;font-weight:normal;font-size:15px;font-family:SansSerif;color-interpolation:linearRGB;fill:#262626;fill-opacity:1;stroke:#262626;stroke-width:1;stroke-linecap:square;stroke-linejoin:miter;stroke-miterlimit:10;stroke-dasharray:none;stroke-dashoffset:0;stroke-opacity:1;color-rendering:optimizeQuality;image-rendering:optimizeQuality;shape-rendering:auto;text-rendering:geometricPrecision"
       id="g6287">
      <text
         x="-9"
         xml:space="preserve"
         y="6"
         style="stroke:none"
         id="text6285">4</text>
    </g>
    <g
       transform="matrix(0.23526449,0,0,0.23526449,115.02598,99.948228)"
       style="font-style:normal;font-weight:bold;font-size:30px;font-family:SansSerif;color-interpolation:linearRGB;fill:#000000;fill-opacity:1;stroke:#000000;stroke-width:1;stroke-linecap:square;stroke-linejoin:miter;stroke-miterlimit:10;stroke-dasharray:none;stroke-dashoffset:0;stroke-opacity:1;color-rendering:optimizeQuality;image-rendering:optimizeQuality;shape-rendering:auto;text-rendering:geometricPrecision"
       id="g6291">
      <text
         x="-76"
         xml:space="preserve"
         y="-7"
         style="stroke:none"
         id="text6289">Bash Lags</text>
    </g>
    <g
       style="font-style:normal;font-weight:normal;font-size:12px;font-family:Dialog;color-interpolation:linearRGB;fill:#d95319;fill-opacity:1;stroke:#d95319;stroke-width:2.5;stroke-linecap:butt;stroke-linejoin:round;stroke-miterlimit:10;stroke-dasharray:none;stroke-dashoffset:0;stroke-opacity:1;color-rendering:optimizeQuality;image-rendering:optimizeQuality;shape-rendering:auto;text-rendering:geometricPrecision"
       id="g6297"
       transform="matrix(0.23526449,0,0,0.23526449,-26.83863,84.303139)">
      <path
         d="m 508,244.2998 0.7232,7.1271 0.7231,3.2095 0.7232,-1.2174 0.7231,-2.0726 0.7232,0.8137 0.7232,3.1295 0.7231,1.0278 0.7232,3.0586 0.7232,1.8413 0.7231,3.8092 0.7232,5.5409 0.7232,5.0123 0.7231,2.5801 0.7232,-1.3121 0.7232,-3.8047 0.7231,-7.72 0.7232,-12.7867 0.7231,-6.0014 0.7232,3.7588 0.7232,-1.7897 0.7231,4.7688 0.7232,6.6391 0.7232,-3.0846 0.7231,-4.2011 0.7232,-1.4943 0.7231,0.266 0.7232,-0.9689 0.7231,-0.6968 0.7232,-6.0062 0.7232,-5.3363 0.7231,-6.2363 0.7232,-3.3968 0.7232,2.7543 0.7231,-0.9051 0.7232,4.4391 0.7232,9.6419 0.7231,2.1079 0.7232,2.1603 0.7232,4.0992 0.7231,4.7264 0.7232,1.0707 0.7232,-0.4672 0.7231,3.503 0.7232,-2.1553 0.7232,-2.5922 0.7231,-5.8058 0.7231,-5.4093 0.7232,2.5461 0.7232,3.0334 0.7231,1.5834 0.7232,-0.5664 0.7232,-3.9201 0.7231,-2.7051 0.7232,3.1776 0.7232,2.5707 0.7231,3.0009 0.7232,3.421 0.7232,0.2347 0.7231,-0.3016 0.7232,-1.653 0.7231,-5.2595 0.7232,-2.8296 0.7232,2.0932 0.7231,1.2752 0.7232,1.4312 0.7232,4.0153 0.7231,1.6266 0.7232,-1.9888 0.7232,-2.5554 0.7231,-2.5406 0.7231,2.8655 0.7232,2.7265 0.7232,1.429 0.7231,0.5071 0.7232,-3.6111 0.7232,-2e-4 0.7231,-1.4001 0.7232,-0.108 0.7232,-1.6034 0.7231,-5.7075 0.7232,-2.3051 0.7232,-5.0178 0.7231,-10.1781 0.7232,-13.3782 0.7232,-2.0141 0.7231,8.3565 0.7232,6.7643 0.7232,10.9171 0.7231,11.4324 0.7232,2.889 0.7232,-1.5834 0.7231,-1.575 0.7232,-3.4382 0.7231,-5.5757 0.7232,-4.7894 0.7231,-2.2156 0.7232,1.1058 0.7232,2.7768 0.7231,5.5743 0.7232,7.9533 0.7231,7.3252 0.7232,8.3181 0.7232,8.5332 0.7231,1.3305 0.7232,-2.6028 0.7232,2.2374 0.7231,0.0255 0.7232,1.7614 0.7232,7.1271 0.7231,3.358 0.7232,1.1614 0.7232,-1.2071 0.7231,0.068 0.7232,0.2574 0.7232,-1.9285 0.7231,-5.4765 0.7231,-4.4458 0.7233,1.1713 0.7231,-1.4474 0.7231,-0.3759 0.7232,-0.9512 0.7232,-3.283 0.7231,-1.2221 0.7232,2.3369 0.7232,4.0736 0.7231,1.9648 0.7232,1.7592 0.7232,-1.1769 0.7231,-4.1836 0.7232,1.1578 0.7232,4.4122 0.7231,-0.6286 0.7232,1.2964 0.7231,6.325 0.7232,3.0822 0.7232,2.0445 0.7231,3.6409 0.7232,1.6785 0.7232,-1.7852 0.7231,1.465 0.7231,-0.2611 0.7232,-1.8486 0.7232,1.7527 0.7232,-2.1367 0.7231,2.1746 0.7232,2.0992 0.7231,0.5528 0.7232,1.9423 0.7232,-2.9622 0.7231,-3.2875 0.7232,-5.741 0.7232,-1.8955 0.7231,1.2757 0.7232,-0.8465 0.7232,1.7226 0.7231,-1.3045 0.7232,0.1142 0.7232,2.4899 0.7231,0.8757 0.7232,1.2992 0.7232,-5.1936 0.7231,-7.0322 0.7231,-1.885 0.7232,1.7886 0.7232,3.4345 0.7231,-0.0847 0.7232,-2.479 0.7232,-5.2548 0.7231,-11.0357 0.7232,-11.2346 0.7232,-11.1798 0.7231,-4.3684 0.7232,-1.4341 0.7232,-4.0111 0.7231,2.2422 0.7232,-0.1867 0.7231,-7.5594 0.7232,-5.105 0.7232,0.9548 0.7231,3.788 0.7232,5.8697 0.7232,-2.7904 0.7231,-7.1468 0.7232,-5.0592 0.7232,-5.9021 0.7231,-4.0327 0.7231,-6.8327 0.7233,-5.2966 0.7231,-7.4633 0.7231,-2.5184 0.7232,7.9348 0.7232,1.7395 0.7231,-1.6026 0.7232,-2.1644 0.7232,0.6328 0.7231,5.185 0.7232,-1.88 0.7232,-0.098 0.7231,0.2384 0.7232,-6.2943 0.7232,1.5925 0.7231,2.9048 0.7232,-4.2369 0.7232,-3.7416 0.7231,-3.2191 0.7232,-2.8043 0.7232,-1.4369 0.7231,-1.6958 0.7232,-0.2855 0.7231,3.1501 0.7232,-1.4398 0.7231,-0.4314 0.7232,3.327 0.7232,-0.9202 0.7231,-0.1929 0.7232,-3.8531 0.7231,-3.5471 0.7232,-2.5925 0.7232,4.6031 0.7231,11.6642 0.7232,6.8754 0.7232,7.8232 0.7231,4.0726 0.7232,1.461 0.7232,3.4582 0.7231,0.981 0.7232,-2.9451 0.7232,-1.7988 0.7231,4.2358 0.7232,5.5503 0.7232,1.0267 0.7231,1.6863 0.7231,-1.0351 0.7233,-5.3492 0.7231,-4.9818 0.7231,1.2003 0.7232,3.6868 0.7232,0.0883 0.7231,4.877 0.7232,5.2869 0.7232,4.8091 0.7231,2.841 0.7232,-0.0632 0.7232,0.5195 0.7231,-1.5977 0.7232,2.0999 0.7232,4.7878 0.7231,-2.7983 0.7232,-7.6933 0.7232,-6.3132 0.7231,-2.4088 0.7232,3.6018 0.7231,2.5755 0.7232,0.7145 0.7232,-0.4028 0.7231,-2.6392 0.7232,3.1005 0.7231,4.1867 0.7232,3.0603 0.7232,7.4434 0.7231,4.2279 0.7232,0.3091 0.5539,4.0209"
         style="fill:none;fill-rule:evenodd"
         id="path6293" />
      <path
         style="fill:none;fill-rule:evenodd;stroke-linejoin:bevel;stroke-miterlimit:1;stroke-dasharray:8, 8"
         d="m 508,245.335 0.7232,3.2431 0.7231,6.9759 0.7232,3.0135 0.7231,-0.291 0.7232,-1.3168 0.7232,-5.566 0.7231,-1.4383 0.7232,3.9089 0.7232,2.0094 0.7231,3.4066 0.7232,-2e-4 0.7232,0.8096 0.7231,1.927 0.7232,-2.0465 0.7232,0.2565 0.7231,-4.2144 0.7232,-13.3517 0.7231,-5.2811 0.7232,7.6183 0.7232,3.9686 0.7231,3.8064 0.7232,4.6286 0.7232,-2.8337 0.7231,-5.4861 0.7232,-3.2588 0.7231,1.7672 0.7232,2.7229 0.7231,-1.9817 0.7232,-2.0224 0.7232,1.4887 0.7231,-1.1064 0.7232,-4.4901 0.7232,-1.2242 0.7231,0.6916 0.7232,1.238 0.7232,3.0348 0.7231,3.4455 0.7232,2.9769 0.7232,0.8294 0.7231,1.3742 0.7232,1.233 0.7232,1.2473 0.7231,0.4164 0.7232,1.1522 0.7232,4.4792 0.7231,-1.9612 0.7231,-6.5226 0.7232,-3.048 0.7232,0.5745 0.7231,0.8514 0.7232,-1.0529 0.7232,-1.6811 0.7231,-0.7876 0.7232,-1.3598 0.7232,0.263 0.7231,0.2266 0.7232,-1.5945 0.7232,2.7388 0.7231,4.757 0.7232,2.8792 0.7231,2.9836 0.7232,0.0912 0.7232,-2.6972 0.7231,-1.9215 0.7232,-4.2367 0.7232,-3.938 0.7231,-0.1656 0.7232,5.4397 0.7232,2.5864 0.7231,-2.6117 0.7231,-1.0304 0.7232,-1.0738 0.7232,1.4306 0.7231,1.9002 0.7232,-2.3079 0.7232,0.5205 0.7231,3.8968 0.7232,4.7677 0.7232,4.0762 0.7231,-3.2058 0.7232,-2.2024 0.7232,-7.5992 0.7231,-10.2186 0.7232,-8.8324 0.7232,-7.823 0.7231,0.8247 0.7232,3.2302 0.7232,7.5505 0.7231,5.4113 0.7232,-1.5947 0.7232,-2.6408 0.7231,-1.0612 0.7232,-8.7904 0.7231,-5.5789 0.7232,3.7829 0.7231,-1.8572 0.7232,2.9507 0.7232,8.3377 0.7231,0.4597 0.7232,2.6335 0.7231,7.0269 0.7232,0.2931 0.7232,-0.829 0.7231,4.1159 0.7232,4.6535 0.7232,2.7681 0.7231,4.3075 0.7232,6.7629 0.7232,7.2637 0.7231,1.8924 0.7232,-3.4523 0.7232,-2.5282 0.7231,-2.292 0.7232,-1.8635 0.7232,-1.0133 0.7231,-9.2416 0.7231,-8.3748 0.7233,-0.6507 0.7231,-3.2207 0.7231,1.7843 0.7232,5.5624 0.7232,-0.8885 0.7231,3.5059 0.7232,9.0006 0.7232,2.2989 0.7231,-2.091 0.7232,-1.4752 0.7232,2.4205 0.7231,6.2762 0.7232,3.4748 0.7232,1.6831 0.7231,1.4047 0.7232,2.0739 0.7231,-1.178 0.7232,-2.5764 0.7232,1.9721 0.7231,-1.0134 0.7232,1.588 0.7232,3.4808 0.7231,1.9823 0.7231,-1.2842 0.7232,-4.639 0.7232,0.472 0.7232,-0.8705 0.7231,3.0261 0.7232,7.8872 0.7231,0.0688 0.7232,-4.5174 0.7232,-2.5882 0.7231,-0.2789 0.7232,-0.3541 0.7232,4.3303 0.7231,4.4212 0.7232,-2.7446 0.7232,-6.7515 0.7231,0.5728 0.7232,7.8613 0.7232,4.2009 0.7231,0.3284 0.7232,-3.556 0.7232,-1.9306 0.7231,0.9855 0.7231,0.2375 0.7232,-1.1423 0.7232,2.2822 0.7231,4.4061 0.7232,-1.8849 0.7232,-2.4349 0.7231,-2.3888 0.7232,-11.0693 0.7232,-17.0902 0.7231,-3.3148 0.7232,5.0791 0.7232,-1.3128 0.7231,4.3747 0.7232,7.0372 0.7231,-0.2055 0.7232,-7.0209 0.7232,-2.0782 0.7231,-2.4022 0.7232,-3.4689 0.7232,0.5797 0.7231,-4.6676 0.7232,-2.6114 0.7232,-3.0897 0.7231,-0.832 0.7231,-0.9883 0.7233,-5.0579 0.7231,-3.4852 0.7231,-5.2876 0.7232,2.114 0.7232,6.287 0.7231,-0.7945 0.7232,-1.7401 0.7232,-2.101 0.7231,-5.2827 0.7232,-2.2808 0.7232,2.9843 0.7231,0.1956 0.7232,0.6214 0.7232,-1.4803 0.7231,-7.8706 0.7232,-0.7165 0.7232,2.5159 0.7231,3.5011 0.7232,2.4624 0.7232,-3.8672 0.7231,-2.542 0.7232,-0.7679 0.7231,5.3037 0.7232,3.5638 0.7231,-8.3143 0.7232,-8.833 0.7232,-4.0715 0.7231,-2.7702 0.7232,0.4344 0.7231,-2.1334 0.7232,-7.9822 0.7232,-3.1315 0.7231,1.146 0.7232,4.0159 0.7232,2.4488 0.7231,0.4109 0.7232,4.0145 0.7232,5.2784 0.7231,5.4642 0.7232,6.702 0.7232,7.4626 0.7231,2.6806 0.7232,1.3853 0.7232,1.9224 0.7231,-1.4045 0.7231,-5.0693 0.7233,-5.9957 0.7231,-2.7167 0.7231,-0.3337 0.7232,3.6524 0.7232,2.623 0.7231,-0.2838 0.7232,-0.5393 0.7232,-6.5616 0.7231,-3.2956 0.7232,-2.5072 0.7232,-0.229 0.7231,5.3524 0.7232,3.0757 0.7232,4.0746 0.7231,-3.2281 0.7232,-10.0257 0.7232,-5.8955 0.7231,0.5124 0.7232,3.2339 0.7231,1.9496 0.7232,3.0492 0.7232,6.019 0.7231,3.4986 0.7232,-1.0171 0.7231,1.7407 0.7232,5.3702 0.7232,8.7876 0.7231,8.0098 0.7232,7.4693 0.5539,0.6796"
         id="path6295" />
    </g>
    <g
       style="font-style:normal;font-weight:normal;font-size:12px;font-family:Dialog;color-interpolation:linearRGB;fill:#000000;fill-opacity:0.702;stroke:#000000;stroke-width:3.3333;stroke-linecap:butt;stroke-linejoin:bevel;stroke-miterlimit:1;stroke-dasharray:3, 3;stroke-dashoffset:0;stroke-opacity:0.702;color-rendering:optimizeQuality;image-rendering:optimizeQuality;shape-rendering:auto;text-rendering:geometricPrecision"
       id="g6303"
       transform="matrix(0.23526449,0,0,0.23526449,-26.83863,84.303139)">
      <line
         y2="71"
         style="fill:none"
         x1="512.63422"
         x2="512.63422"
         y1="385"
         id="line6299" />
      <line
         y2="71"
         style="fill:none"
         x1="558.97559"
         x2="558.97559"
         y1="385"
         id="line6301" />
    </g>
    <g
       style="font-style:normal;font-weight:normal;font-size:12px;font-family:Dialog;color-interpolation:sRGB;fill:#ffffff;fill-opacity:1;stroke:#ffffff;stroke-width:1;stroke-linecap:square;stroke-linejoin:miter;stroke-miterlimit:10;stroke-dasharray:none;stroke-dashoffset:0;stroke-opacity:1;color-rendering:optimizeSpeed;image-rendering:optimizeSpeed;shape-rendering:crispEdges;text-rendering:optimizeSpeed"
       id="g6307"
       transform="matrix(0.23526449,0,0,0.23526449,-26.83863,84.303139)">
      <path
         style="stroke:none"
         d="M 766,385 H 956 V 71 H 766 Z"
         id="path6305" />
    </g>
    <g
       style="font-style:normal;font-weight:normal;font-size:12px;font-family:Dialog;color-interpolation:linearRGB;fill:#262626;fill-opacity:1;stroke:#262626;stroke-width:0.8333;stroke-linecap:square;stroke-linejoin:round;stroke-miterlimit:10;stroke-dasharray:none;stroke-dashoffset:0;stroke-opacity:1;color-rendering:optimizeQuality;image-rendering:optimizeQuality;shape-rendering:auto;text-rendering:geometricPrecision"
       id="g6317"
       transform="matrix(0.23526449,0,0,0.23526449,-26.83863,84.303139)">
      <line
         y2="385"
         style="fill:none"
         x1="766"
         x2="956"
         y1="385"
         id="line6309" />
      <line
         y2="381.85999"
         style="fill:none"
         x1="770.63422"
         x2="770.63422"
         y1="385"
         id="line6311" />
      <line
         y2="381.85999"
         style="fill:none"
         x1="863.31708"
         x2="863.31708"
         y1="385"
         id="line6313" />
      <line
         y2="381.85999"
         style="fill:none"
         x1="956"
         x2="956"
         y1="385"
         id="line6315" />
    </g>
    <g
       transform="matrix(0.23526449,0,0,0.23526449,154.46424,175.97788)"
       style="font-style:normal;font-weight:normal;font-size:15px;font-family:SansSerif;color-interpolation:linearRGB;fill:#262626;fill-opacity:1;stroke:#262626;stroke-width:1;stroke-linecap:square;stroke-linejoin:miter;stroke-miterlimit:10;stroke-dasharray:none;stroke-dashoffset:0;stroke-opacity:1;color-rendering:optimizeQuality;image-rendering:optimizeQuality;shape-rendering:auto;text-rendering:geometricPrecision"
       id="g6321">
      <text
         x="-4.5"
         xml:space="preserve"
         y="16"
         style="stroke:none"
         id="text6319">0</text>
    </g>
    <g
       transform="matrix(0.23526449,0,0,0.23526449,176.26924,175.97788)"
       style="font-style:normal;font-weight:normal;font-size:15px;font-family:SansSerif;color-interpolation:linearRGB;fill:#262626;fill-opacity:1;stroke:#262626;stroke-width:1;stroke-linecap:square;stroke-linejoin:miter;stroke-miterlimit:10;stroke-dasharray:none;stroke-dashoffset:0;stroke-opacity:1;color-rendering:optimizeQuality;image-rendering:optimizeQuality;shape-rendering:auto;text-rendering:geometricPrecision"
       id="g6325">
      <text
         x="-13"
         xml:space="preserve"
         y="16"
         style="stroke:none"
         id="text6323">500</text>
    </g>
    <g
       transform="matrix(0.23526449,0,0,0.23526449,198.07423,175.97788)"
       style="font-style:normal;font-weight:normal;font-size:15px;font-family:SansSerif;color-interpolation:linearRGB;fill:#262626;fill-opacity:1;stroke:#262626;stroke-width:1;stroke-linecap:square;stroke-linejoin:miter;stroke-miterlimit:10;stroke-dasharray:none;stroke-dashoffset:0;stroke-opacity:1;color-rendering:optimizeQuality;image-rendering:optimizeQuality;shape-rendering:auto;text-rendering:geometricPrecision"
       id="g6329">
      <text
         x="-17"
         xml:space="preserve"
         y="16"
         style="stroke:none"
         id="text6327">1000</text>
    </g>
    <g
       style="font-style:normal;font-weight:normal;font-size:12px;font-family:Dialog;color-interpolation:linearRGB;fill:#262626;fill-opacity:1;stroke:#262626;stroke-width:0.8333;stroke-linecap:square;stroke-linejoin:round;stroke-miterlimit:10;stroke-dasharray:none;stroke-dashoffset:0;stroke-opacity:1;color-rendering:optimizeQuality;image-rendering:optimizeQuality;shape-rendering:auto;text-rendering:geometricPrecision"
       id="g6349"
       transform="matrix(0.23526449,0,0,0.23526449,-26.83863,84.303139)">
      <line
         y2="71"
         style="fill:none"
         x1="766"
         x2="766"
         y1="385"
         id="line6331" />
      <line
         y2="385"
         style="fill:none"
         x1="766"
         x2="769.14001"
         y1="385"
         id="line6333" />
      <line
         y2="343.1333"
         style="fill:none"
         x1="766"
         x2="769.14001"
         y1="343.1333"
         id="line6335" />
      <line
         y2="301.26669"
         style="fill:none"
         x1="766"
         x2="769.14001"
         y1="301.26669"
         id="line6337" />
      <line
         y2="259.39999"
         style="fill:none"
         x1="766"
         x2="769.14001"
         y1="259.39999"
         id="line6339" />
      <line
         y2="217.53329"
         style="fill:none"
         x1="766"
         x2="769.14001"
         y1="217.53329"
         id="line6341" />
      <line
         y2="175.6667"
         style="fill:none"
         x1="766"
         x2="769.14001"
         y1="175.6667"
         id="line6343" />
      <line
         y2="133.8"
         style="fill:none"
         x1="766"
         x2="769.14001"
         y1="133.8"
         id="line6345" />
      <line
         y2="91.933296"
         style="fill:none"
         x1="766"
         x2="769.14001"
         y1="91.933296"
         id="line6347" />
    </g>
    <g
       transform="matrix(0.23526449,0,0,0.23526449,152.27606,174.87998)"
       style="font-style:normal;font-weight:normal;font-size:15px;font-family:SansSerif;color-interpolation:linearRGB;fill:#262626;fill-opacity:1;stroke:#262626;stroke-width:1;stroke-linecap:square;stroke-linejoin:miter;stroke-miterlimit:10;stroke-dasharray:none;stroke-dashoffset:0;stroke-opacity:1;color-rendering:optimizeQuality;image-rendering:optimizeQuality;shape-rendering:auto;text-rendering:geometricPrecision"
       id="g6353">
      <text
         x="-14"
         xml:space="preserve"
         y="6"
         style="stroke:none"
         id="text6351">-3</text>
    </g>
    <g
       transform="matrix(0.23526449,0,0,0.23526449,152.27606,165.03022)"
       style="font-style:normal;font-weight:normal;font-size:15px;font-family:SansSerif;color-interpolation:linearRGB;fill:#262626;fill-opacity:1;stroke:#262626;stroke-width:1;stroke-linecap:square;stroke-linejoin:miter;stroke-miterlimit:10;stroke-dasharray:none;stroke-dashoffset:0;stroke-opacity:1;color-rendering:optimizeQuality;image-rendering:optimizeQuality;shape-rendering:auto;text-rendering:geometricPrecision"
       id="g6357">
      <text
         x="-14"
         xml:space="preserve"
         y="6"
         style="stroke:none"
         id="text6355">-2</text>
    </g>
    <g
       transform="matrix(0.23526449,0,0,0.23526449,152.27606,155.1805)"
       style="font-style:normal;font-weight:normal;font-size:15px;font-family:SansSerif;color-interpolation:linearRGB;fill:#262626;fill-opacity:1;stroke:#262626;stroke-width:1;stroke-linecap:square;stroke-linejoin:miter;stroke-miterlimit:10;stroke-dasharray:none;stroke-dashoffset:0;stroke-opacity:1;color-rendering:optimizeQuality;image-rendering:optimizeQuality;shape-rendering:auto;text-rendering:geometricPrecision"
       id="g6361">
      <text
         x="-14"
         xml:space="preserve"
         y="6"
         style="stroke:none"
         id="text6359">-1</text>
    </g>
    <g
       transform="matrix(0.23526449,0,0,0.23526449,152.27606,145.33076)"
       style="font-style:normal;font-weight:normal;font-size:15px;font-family:SansSerif;color-interpolation:linearRGB;fill:#262626;fill-opacity:1;stroke:#262626;stroke-width:1;stroke-linecap:square;stroke-linejoin:miter;stroke-miterlimit:10;stroke-dasharray:none;stroke-dashoffset:0;stroke-opacity:1;color-rendering:optimizeQuality;image-rendering:optimizeQuality;shape-rendering:auto;text-rendering:geometricPrecision"
       id="g6365">
      <text
         x="-9"
         xml:space="preserve"
         y="6"
         style="stroke:none"
         id="text6363">0</text>
    </g>
    <g
       transform="matrix(0.23526449,0,0,0.23526449,152.27606,135.481)"
       style="font-style:normal;font-weight:normal;font-size:15px;font-family:SansSerif;color-interpolation:linearRGB;fill:#262626;fill-opacity:1;stroke:#262626;stroke-width:1;stroke-linecap:square;stroke-linejoin:miter;stroke-miterlimit:10;stroke-dasharray:none;stroke-dashoffset:0;stroke-opacity:1;color-rendering:optimizeQuality;image-rendering:optimizeQuality;shape-rendering:auto;text-rendering:geometricPrecision"
       id="g6369">
      <text
         x="-9"
         xml:space="preserve"
         y="6"
         style="stroke:none"
         id="text6367">1</text>
    </g>
    <g
       transform="matrix(0.23526449,0,0,0.23526449,152.27606,125.63128)"
       style="font-style:normal;font-weight:normal;font-size:15px;font-family:SansSerif;color-interpolation:linearRGB;fill:#262626;fill-opacity:1;stroke:#262626;stroke-width:1;stroke-linecap:square;stroke-linejoin:miter;stroke-miterlimit:10;stroke-dasharray:none;stroke-dashoffset:0;stroke-opacity:1;color-rendering:optimizeQuality;image-rendering:optimizeQuality;shape-rendering:auto;text-rendering:geometricPrecision"
       id="g6373">
      <text
         x="-9"
         xml:space="preserve"
         y="6"
         style="stroke:none"
         id="text6371">2</text>
    </g>
    <g
       transform="matrix(0.23526449,0,0,0.23526449,152.27606,115.78153)"
       style="font-style:normal;font-weight:normal;font-size:15px;font-family:SansSerif;color-interpolation:linearRGB;fill:#262626;fill-opacity:1;stroke:#262626;stroke-width:1;stroke-linecap:square;stroke-linejoin:miter;stroke-miterlimit:10;stroke-dasharray:none;stroke-dashoffset:0;stroke-opacity:1;color-rendering:optimizeQuality;image-rendering:optimizeQuality;shape-rendering:auto;text-rendering:geometricPrecision"
       id="g6377">
      <text
         x="-9"
         xml:space="preserve"
         y="6"
         style="stroke:none"
         id="text6375">3</text>
    </g>
    <g
       transform="matrix(0.23526449,0,0,0.23526449,152.27606,105.93179)"
       style="font-style:normal;font-weight:normal;font-size:15px;font-family:SansSerif;color-interpolation:linearRGB;fill:#262626;fill-opacity:1;stroke:#262626;stroke-width:1;stroke-linecap:square;stroke-linejoin:miter;stroke-miterlimit:10;stroke-dasharray:none;stroke-dashoffset:0;stroke-opacity:1;color-rendering:optimizeQuality;image-rendering:optimizeQuality;shape-rendering:auto;text-rendering:geometricPrecision"
       id="g6381">
      <text
         x="-9"
         xml:space="preserve"
         y="6"
         style="stroke:none"
         id="text6379">4</text>
    </g>
    <g
       transform="matrix(0.23526449,0,0,0.23526449,175.72429,99.948228)"
       style="font-style:normal;font-weight:bold;font-size:30px;font-family:SansSerif;color-interpolation:linearRGB;fill:#000000;fill-opacity:1;stroke:#000000;stroke-width:1;stroke-linecap:square;stroke-linejoin:miter;stroke-miterlimit:10;stroke-dasharray:none;stroke-dashoffset:0;stroke-opacity:1;color-rendering:optimizeQuality;image-rendering:optimizeQuality;shape-rendering:auto;text-rendering:geometricPrecision"
       id="g6385">
      <text
         x="-61"
         xml:space="preserve"
         y="-7"
         style="stroke:none"
         id="text6383">No Bash</text>
    </g>
    <g
       style="font-style:normal;font-weight:normal;font-size:12px;font-family:Dialog;color-interpolation:linearRGB;fill:#77ac30;fill-opacity:1;stroke:#77ac30;stroke-width:2.5;stroke-linecap:butt;stroke-linejoin:round;stroke-miterlimit:10;stroke-dasharray:none;stroke-dashoffset:0;stroke-opacity:1;color-rendering:optimizeQuality;image-rendering:optimizeQuality;shape-rendering:auto;text-rendering:geometricPrecision"
       id="g6391"
       transform="matrix(0.23526449,0,0,0.23526449,-26.83863,84.303139)">
      <path
         d="m 766,259.5491 0.7231,1.9288 0.7233,3.2201 0.7231,2.4149 0.7231,1.2442 0.7232,-1.5722 0.7232,-4.0738 0.7231,-1.7086 0.7232,1.6268 0.7232,-0.8512 0.7231,-1.1246 0.7232,0.084 0.7232,-2.0391 0.7231,-2.7765 0.7232,-2.0774 0.7232,-3.9794 0.7231,-5.1288 0.7232,-8.8676 0.7231,-6.8226 0.7232,6.861 0.7232,4.593 0.7231,3.638 0.7232,4.618 0.7232,-2.6548 0.7231,-2.0906 0.7232,-2.2367 0.7231,0.5452 0.7232,1.7534 0.7231,-1.4619 0.7232,-2.0827 0.7232,-0.7352 0.7231,-3.5534 0.7232,-5.763 0.7232,-3.2113 0.7231,-3.3393 0.7232,1.8246 0.7232,1.1226 0.7231,0.2344 0.7232,6.5921 0.7232,1.1579 0.7231,-0.497 0.7232,4.3092 0.7232,3.3949 0.7231,1.1781 0.7232,-1.7578 0.7232,-1.474 0.7231,-1.5107 0.7231,-1.6584 0.7232,0.6761 0.7232,0.1606 0.7231,-2.7517 0.7232,-1.7987 0.7232,1.2857 0.7231,2.5444 0.7232,1.5836 0.7232,0.2004 0.7231,0.6333 0.7232,2.6738 0.7232,3.0757 0.7231,1.9847 0.7232,1.7753 0.7231,-0.0753 0.7232,-1.6212 0.7232,-1.8311 0.7231,-2.7943 0.7232,-1.6485 0.7232,-0.5508 0.7231,-0.7228 0.7232,1.4871 0.7232,1.1547 0.7231,3.0359 0.7231,1.465 0.7232,-2.2958 0.7232,1.3217 0.7231,0.9986 0.7232,1.9323 0.7232,2.657 0.7231,0.5283 0.7232,0.5807 0.7232,-1.7693 0.7231,-4.8815 0.7232,-5.9335 0.7232,-1.8222 0.7231,2.063 0.7232,-1.944 0.7232,0.7472 0.7231,2.1233 0.7232,0.2348 0.7232,0.2442 0.7231,-3.2903 0.7232,-0.3922 0.7232,-0.0794 0.7231,-2.0019 0.7232,0.8356 0.7231,0.5305 0.7232,-2.7619 0.7231,-3.9891 0.7232,-2.1944 0.7232,0.3479 0.7231,1.3413 0.7232,1.0757 0.7231,4.5054 0.7232,4.6106 0.7232,1.9376 0.7231,2.3255 0.7232,2.0507 0.7232,3.2254 0.7231,1.6075 0.7232,0.9197 0.7232,3.0408 0.7231,1.568 0.7232,2.3893 0.7232,2.5967 0.7231,-0.0133 0.7232,-0.9047 0.7232,-0.3416 0.7231,-1.0917 0.7231,-0.4318 0.7233,1.7521 0.7231,1.0266 0.7231,0.2762 0.7232,-0.6867 0.7232,-1.5242 0.7231,-0.0252 0.7232,0.3555 0.7232,-1.5737 0.7231,-2.1253 0.7232,-0.3428 0.7232,0.3915 0.7231,-0.6367 0.7232,-0.8164 0.7232,1.7223 0.7231,1.1231 0.7232,-0.2288 0.7231,2.3578 0.7232,2.0798 0.7232,1.587 0.7231,1.7818 0.7232,-0.0387 0.7232,1.2393 0.7231,0.702 0.7231,-1.7744 0.7232,-2.1112 0.7232,-0.3925 0.7232,1.0251 0.7231,-0.7953 0.7232,-1.1628 0.7231,0.1318 0.7232,1.7525 0.7232,2.4729 0.7231,1.7255 0.7232,0.8028 0.7232,-0.116 0.7231,-1.0831 0.7232,0.1145 0.7232,3.6287 0.7231,0.6161 0.7232,-1.3217 0.7232,-0.5417 0.7231,-2.0708 0.7232,-1.9512 0.7232,1.6092 0.7231,1.5752 0.7231,-1.7823 0.7232,-2.201 0.7232,-3.0363 0.7231,-0.009 0.7232,1.5207 0.7232,-1.5463 0.7231,-1.8485 0.7232,-4.8525 0.7232,-9.19 0.7231,-2.4972 0.7232,2.6007 0.7232,-0.3682 0.7231,4.5143 0.7232,3.9885 0.7231,-1.6184 0.7232,-1.9948 0.7232,0.249 0.7231,1.1022 0.7232,-0.5133 0.7232,-3.3309 0.7231,-6.6708 0.7232,-2.4689 0.7232,-1.7037 0.7231,-0.6747 0.7231,0.9663 0.7233,-0.7612 0.7231,2.0586 0.7231,2.5231 0.7232,2.262 0.7232,2.5244 0.7231,3.909 0.7232,5.015 0.7232,1.5672 0.7231,1.8992 0.7232,2.5224 0.7232,-0.1763 0.7231,0.6547 0.7232,-1.8384 0.7232,-2.1719 0.7231,0.1986 0.7232,-0.1511 0.7232,-0.2652 0.7231,-1.2929 0.7232,-2.6977 0.7232,-3.2642 0.7231,0.0849 0.7232,0.1532 0.7231,-1.8395 0.7232,-0.5876 0.7231,1.756 0.7232,0.4628 0.7232,-0.5959 0.7231,2.2814 0.7232,0.8502 0.7231,0.3027 0.7232,-1.2027 0.7232,-0.5357 0.7231,2.2251 0.7232,-0.4882 0.7232,0.5107 0.7231,2.749 0.7232,3.5632 0.7232,6.1659 0.7231,4.8621 0.7232,0.5928 0.7232,-1.8895 0.7231,-1.3717 0.7232,0.9382 0.7232,1.5683 0.7231,-0.3647 0.7231,-3.7271 0.7233,-3.7361 0.7231,-4.5067 0.7231,-5.1308 0.7232,-5.743 0.7232,-8.1279 0.7231,-0.5239 0.7232,1.1403 0.7232,0.336 0.7231,3.7993 0.7232,2.323 0.7232,0.9822 0.7231,-1.0969 0.7232,-1.1474 0.7232,-3.6867 0.7231,-3.5559 0.7232,-1.3935 0.7232,-1.4151 0.7231,0.264 0.7232,3.4928 0.7231,3.2416 0.7232,3.0107 0.7232,6.3416 0.7231,3.9649 0.7232,-0.1746 0.7231,-1.4865 0.7232,-2.5233 0.7232,-1.5362 0.7231,0.787 0.7232,4.3453 0.5539,4.3209"
         style="fill:none;fill-rule:evenodd"
         id="path6387" />
      <path
         style="fill:none;fill-rule:evenodd;stroke-linejoin:bevel;stroke-miterlimit:1;stroke-dasharray:8, 8"
         d="m 766,263.3937 0.7231,1.8757 0.7233,-2.4074 0.7231,2.2152 0.7231,1.32 0.7232,-0.7605 0.7232,-0.3666 0.7231,-2.1632 0.7232,-2.4451 0.7232,-2.0969 0.7231,-0.0551 0.7232,0.2403 0.7232,0.1896 0.7231,1.074 0.7232,0.017 0.7232,-3.2068 0.7231,-6.2297 0.7232,-10.5005 0.7231,-6.3138 0.7232,2.8633 0.7232,2.7552 0.7231,5.3831 0.7232,6.9231 0.7232,0.2545 0.7231,-1.9318 0.7232,-1.9437 0.7231,-3.3602 0.7232,1.4849 0.7231,3.5355 0.7232,-0.1598 0.7232,-1.0471 0.7231,-2.3568 0.7232,-3.2093 0.7232,-2.1464 0.7231,-2.2468 0.7232,-3.4238 0.7232,-1.2174 0.7231,1.3853 0.7232,2.1192 0.7232,1.6526 0.7231,3.5862 0.7232,1.3389 0.7232,-1.4197 0.7231,2.2021 0.7232,1.5006 0.7232,1.6972 0.7231,1.4995 0.7231,0.2743 0.7232,-0.3797 0.7232,-1.6115 0.7231,0.1524 0.7232,-0.0243 0.7232,-0.0434 0.7231,-1.776 0.7232,-2.9401 0.7232,-2.0319 0.7231,-1.356 0.7232,-1.0567 0.7232,-3.6017 0.7231,-1.1719 0.7232,0.7795 0.7231,-0.7992 0.7232,0.4572 0.7232,0.1134 0.7231,-2.4277 0.7232,-1.9337 0.7232,-0.8047 0.7231,0.4472 0.7232,3.5208 0.7232,1.7676 0.7231,0.7845 0.7231,3.4025 0.7232,5.0708 0.7232,2.3897 0.7231,-0.4069 0.7232,1.2803 0.7232,1.5048 0.7231,-0.6418 0.7232,-0.2714 0.7232,-0.7732 0.7231,-5.1559 0.7232,-7.5336 0.7232,-2.0592 0.7231,2.0414 0.7232,-2.7693 0.7232,0.1025 0.7231,0.6582 0.7232,-1.4485 0.7232,1.0468 0.7231,-1.0376 0.7232,0.8865 0.7232,3.0539 0.7231,1.4167 0.7232,1.9588 0.7231,-0.6496 0.7232,-5.6198 0.7231,-3.8422 0.7232,-2.642 0.7232,0.2955 0.7231,2.5197 0.7232,1.6212 0.7231,3.2122 0.7232,2.2167 0.7232,-0.4365 0.7231,1.4419 0.7232,6.0385 0.7232,4.1264 0.7231,1.4026 0.7232,2.5498 0.7232,2.7387 0.7231,1.5643 0.7232,3.4292 0.7232,2.4561 0.7231,0.8691 0.7232,2.5804 0.7232,0.1131 0.7231,1.712 0.7231,1.8923 0.7233,-1.7415 0.7231,0.4113 0.7231,0.9523 0.7232,-3.4652 0.7232,-2.8266 0.7231,-1.4805 0.7232,-0.9499 0.7232,1.565 0.7231,-2.585 0.7232,-3.5296 0.7232,0.8416 0.7231,1.8644 0.7232,-2.2701 0.7232,-2.1047 0.7231,0.8962 0.7232,-1.1573 0.7231,-0.4188 0.7232,2.3407 0.7232,3.303 0.7231,1.0839 0.7232,-0.6896 0.7232,-0.3561 0.7231,-2.3236 0.7231,-0.0359 0.7232,2.4509 0.7232,2.993 0.7232,2.904 0.7231,-2.5268 0.7232,-1.3135 0.7231,1.3286 0.7232,0.5177 0.7232,2.2829 0.7231,-2.6592 0.7232,-4.0201 0.7232,-2.4581 0.7231,-2.93 0.7232,2.8493 0.7232,2.2092 0.7231,-0.4221 0.7232,1.7783 0.7232,0.5474 0.7231,0.7967 0.7232,1.8543 0.7232,0.7847 0.7231,0.448 0.7231,0.1401 0.7232,-0.2613 0.7232,1.1868 0.7231,0.7573 0.7232,-0.7935 0.7232,-2.8322 0.7231,-3.6814 0.7232,-4.7675 0.7232,-12.1468 0.7231,-5.8429 0.7232,1.3201 0.7232,-1.0581 0.7231,4.0505 0.7232,1.3313 0.7231,0.4281 0.7232,2.4058 0.7232,1.2052 0.7231,4.0372 0.7232,2.19 0.7232,-0.4837 0.7231,-1.6403 0.7232,-2.5405 0.7232,-4.4323 0.7231,-2.0779 0.7231,2.0508 0.7233,0.7561 0.7231,1.7243 0.7231,1.4772 0.7232,3.6586 0.7232,6.3465 0.7231,3.6512 0.7232,3.089 0.7232,0.2834 0.7231,-1.1565 0.7232,0.7039 0.7232,-0.1164 0.7231,-0.8537 0.7232,-2.6171 0.7232,-2.142 0.7231,1.011 0.7232,0.6115 0.7232,0.5627 0.7231,2.1526 0.7232,-1.3235 0.7232,-3.1536 0.7231,0.5283 0.7232,-0.4687 0.7231,0.0732 0.7232,2.3224 0.7231,0.579 0.7232,0.5698 0.7232,1.7087 0.7231,1.9487 0.7232,-0.5877 0.7231,-1.7746 0.7232,-1.3201 0.7232,-0.5507 0.7231,-0.3015 0.7232,0.7847 0.7232,2.9207 0.7231,1.3179 0.7232,2.4737 0.7232,1.8395 0.7231,-1.8225 0.7232,-0.4218 0.7232,0.7847 0.7231,0.191 0.7232,0.9419 0.7232,1.3623 0.7231,-0.0587 0.7231,-4.6615 0.7233,-7.7448 0.7231,-3.6591 0.7231,0.3534 0.7232,-1.6733 0.7232,-2.7186 0.7231,-0.3116 0.7232,-1.8853 0.7232,2.6991 0.7231,3.9807 0.7232,1.3143 0.7232,3.0209 0.7231,-4.2251 0.7232,-5.0797 0.7232,-0.5401 0.7231,-3.3742 0.7232,-3.472 0.7232,-1.0384 0.7231,-0.6261 0.7232,-1.4804 0.7231,1.3615 0.7232,5.0973 0.7232,3.2513 0.7231,1.5354 0.7232,0.5734 0.7231,0.9339 0.7232,0.4564 0.7232,-0.2412 0.7231,1.3342 0.7232,2.9234 0.5539,3.2189"
         id="path6389" />
    </g>
    <g
       style="font-style:normal;font-weight:normal;font-size:12px;font-family:Dialog;color-interpolation:linearRGB;fill:#000000;fill-opacity:0.702;stroke:#000000;stroke-width:3.3333;stroke-linecap:butt;stroke-linejoin:bevel;stroke-miterlimit:1;stroke-dasharray:3, 3;stroke-dashoffset:0;stroke-opacity:0.702;color-rendering:optimizeQuality;image-rendering:optimizeQuality;shape-rendering:auto;text-rendering:geometricPrecision"
       id="g6397"
       transform="matrix(0.23526449,0,0,0.23526449,-26.83863,84.303139)">
      <line
         y2="71"
         style="fill:none"
         x1="770.63422"
         x2="770.63422"
         y1="385"
         id="line6393" />
      <line
         y2="71"
         style="fill:none"
         x1="816.97559"
         x2="816.97559"
         y1="385"
         id="line6395" />
    </g>
    <g
       transform="matrix(0,-0.27881068,0.27881068,0,27.808156,140.04312)"
       style="font-style:normal;font-weight:normal;font-size:30px;font-family:SansSerif;color-interpolation:linearRGB;fill:#262626;fill-opacity:1;stroke:#262626;stroke-width:1;stroke-linecap:square;stroke-linejoin:miter;stroke-miterlimit:10;stroke-dasharray:none;stroke-dashoffset:0;stroke-opacity:1;color-rendering:optimizeQuality;image-rendering:optimizeQuality;shape-rendering:auto;text-rendering:geometricPrecision"
       id="g633">
      <text
         x="-83.5"
         xml:space="preserve"
         y="-7"
         style="stroke:none"
         id="text631">Voltage (uV)</text>
    </g>
  </g>
</svg>
